{
  "asset": {
    "generator": "Khronos glTF Blender I/O v4.1.62",
    "version": "2.0"
  },
  "scene": 0,
  "scenes": [
    {
      "name": "Scene",
      "nodes": [0]
    }
  ],
  "nodes": [
    {
      "mesh": 0,
      "name": "Fruit"
    }
  ],
  "materials": [
    {
      "doubleSided": true,
      "name": "fruit_red_M",
      "pbrMetallicRoughness": {
        "baseColorFactor": [0.4735291302204132, 0.012982983142137527, 0.02028857357800007, 1],
        "metallicFactor": 0
      }
    },
    {
      "doubleSided": true,
      "name": "fruit_red_L",
      "pbrMetallicRoughness": {
        "baseColorFactor": [0.7379068732261658, 0.015208435244858265, 0.02518688328564167, 1],
        "metallicFactor": 0
      }
    },
    {
      "doubleSided": true,
      "name": "fruit_red_D",
      "pbrMetallicRoughness": {
        "baseColorFactor": [0.35153084993362427, 0.010960059240460396, 0.013702093623578548, 1],
        "metallicFactor": 0
      }
    },
    {
      "doubleSided": true,
      "name": "fruit_red_XD",
      "pbrMetallicRoughness": {
        "baseColorFactor": [0.10224122554063797, 0.006048825569450855, 0.007499035447835922, 1],
        "metallicFactor": 0
      }
    },
    {
      "doubleSided": true,
      "name": "fruit_red_XL",
      "pbrMetallicRoughness": {
        "baseColorFactor": [1, 0.02028844878077507, 0.03189607337117195, 1],
        "metallicFactor": 0
      }
    },
    {
      "doubleSided": true,
      "name": "fruit_red_XXL",
      "pbrMetallicRoughness": {
        "baseColorFactor": [1, 0.31854701042175293, 0.35153278708457947, 1],
        "metallicFactor": 0
      }
    },
    {
      "doubleSided": true,
      "name": "fruit_green_M",
      "pbrMetallicRoughness": {
        "baseColorFactor": [0.1356325000524521, 0.18782104551792145, 0.015208562836050987, 1],
        "metallicFactor": 0
      }
    },
    {
      "doubleSided": true,
      "name": "fruit_green_L",
      "pbrMetallicRoughness": {
        "baseColorFactor": [0.2501567304134369, 0.35153308510780334, 0.025186948478221893, 1],
        "metallicFactor": 0
      }
    },
    {
      "doubleSided": true,
      "name": "fruit_green_D",
      "pbrMetallicRoughness": {
        "baseColorFactor": [0.05780505761504173, 0.08021994680166245, 0.008023212663829327, 1],
        "metallicFactor": 0
      }
    }
  ],
  "meshes": [
    {
      "name": "Fruit",
      "primitives": [
        {
          "attributes": {
            "POSITION": 0,
            "NORMAL": 1,
            "TEXCOORD_0": 2
          },
          "indices": 3,
          "material": 0
        },
        {
          "attributes": {
            "POSITION": 4,
            "NORMAL": 5,
            "TEXCOORD_0": 6
          },
          "indices": 7,
          "material": 1
        },
        {
          "attributes": {
            "POSITION": 8,
            "NORMAL": 9,
            "TEXCOORD_0": 10
          },
          "indices": 11,
          "material": 2
        },
        {
          "attributes": {
            "POSITION": 12,
            "NORMAL": 13,
            "TEXCOORD_0": 14
          },
          "indices": 15,
          "material": 3
        },
        {
          "attributes": {
            "POSITION": 16,
            "NORMAL": 17,
            "TEXCOORD_0": 18
          },
          "indices": 19,
          "material": 4
        },
        {
          "attributes": {
            "POSITION": 20,
            "NORMAL": 21,
            "TEXCOORD_0": 22
          },
          "indices": 23,
          "material": 5
        },
        {
          "attributes": {
            "POSITION": 24,
            "NORMAL": 25,
            "TEXCOORD_0": 26
          },
          "indices": 27,
          "material": 6
        },
        {
          "attributes": {
            "POSITION": 28,
            "NORMAL": 29,
            "TEXCOORD_0": 30
          },
          "indices": 31,
          "material": 7
        },
        {
          "attributes": {
            "POSITION": 32,
            "NORMAL": 33,
            "TEXCOORD_0": 34
          },
          "indices": 35,
          "material": 8
        }
      ]
    }
  ],
  "accessors": [
    {
      "bufferView": 0,
      "componentType": 5126,
      "count": 72,
      "max": [0.44999998807907104, 0.27000001072883606, 0.44999998807907104],
      "min": [-0.44999998807907104, -0.27000001072883606, -0.44999998807907104],
      "type": "VEC3"
    },
    {
      "bufferView": 1,
      "componentType": 5126,
      "count": 72,
      "type": "VEC3"
    },
    {
      "bufferView": 2,
      "componentType": 5126,
      "count": 72,
      "type": "VEC2"
    },
    {
      "bufferView": 3,
      "componentType": 5123,
      "count": 192,
      "type": "SCALAR"
    },
    {
      "bufferView": 4,
      "componentType": 5126,
      "count": 74,
      "max": [0.44999998807907104, 0.27000004053115845, 0.44999998807907104],
      "min": [-0.44999998807907104, -0.09000001102685928, -0.44999998807907104],
      "type": "VEC3"
    },
    {
      "bufferView": 5,
      "componentType": 5126,
      "count": 74,
      "type": "VEC3"
    },
    {
      "bufferView": 6,
      "componentType": 5126,
      "count": 74,
      "type": "VEC2"
    },
    {
      "bufferView": 7,
      "componentType": 5123,
      "count": 150,
      "type": "SCALAR"
    },
    {
      "bufferView": 8,
      "componentType": 5126,
      "count": 88,
      "max": [0.44999998807907104, 0.44999998807907104, 0.44999998807907104],
      "min": [-0.44999998807907104, -0.27000001072883606, -0.44999998807907104],
      "type": "VEC3"
    },
    {
      "bufferView": 9,
      "componentType": 5126,
      "count": 88,
      "type": "VEC3"
    },
    {
      "bufferView": 10,
      "componentType": 5126,
      "count": 88,
      "type": "VEC2"
    },
    {
      "bufferView": 11,
      "componentType": 5123,
      "count": 156,
      "type": "SCALAR"
    },
    {
      "bufferView": 12,
      "componentType": 5126,
      "count": 52,
      "max": [0.26999998092651367, 0.27000001072883606, 0.26999998092651367],
      "min": [-0.26999998092651367, -0.44999998807907104, -0.27000001072883606],
      "type": "VEC3"
    },
    {
      "bufferView": 13,
      "componentType": 5126,
      "count": 52,
      "type": "VEC3"
    },
    {
      "bufferView": 14,
      "componentType": 5126,
      "count": 52,
      "type": "VEC2"
    },
    {
      "bufferView": 15,
      "componentType": 5123,
      "count": 132,
      "type": "SCALAR"
    },
    {
      "bufferView": 16,
      "componentType": 5126,
      "count": 71,
      "max": [0.44999998807907104, 0.44999998807907104, 0.44999998807907104],
      "min": [-0.44999998807907104, 0.08999998867511749, -0.44999998807907104],
      "type": "VEC3"
    },
    {
      "bufferView": 17,
      "componentType": 5126,
      "count": 71,
      "type": "VEC3"
    },
    {
      "bufferView": 18,
      "componentType": 5126,
      "count": 71,
      "type": "VEC2"
    },
    {
      "bufferView": 19,
      "componentType": 5123,
      "count": 144,
      "type": "SCALAR"
    },
    {
      "bufferView": 20,
      "componentType": 5126,
      "count": 8,
      "max": [0.44999998807907104, 0.44999998807907104, 0.44999998807907104],
      "min": [0.08999998867511749, 0.26999998092651367, 0.09000000357627869],
      "type": "VEC3"
    },
    {
      "bufferView": 21,
      "componentType": 5126,
      "count": 8,
      "type": "VEC3"
    },
    {
      "bufferView": 22,
      "componentType": 5126,
      "count": 8,
      "type": "VEC2"
    },
    {
      "bufferView": 23,
      "componentType": 5123,
      "count": 12,
      "type": "SCALAR"
    },
    {
      "bufferView": 24,
      "componentType": 5126,
      "count": 15,
      "max": [0.09000000357627869, 0.44999998807907104, 0.09000000357627869],
      "min": [-0.26999998092651367, 0.27000001072883606, -0.26999998092651367],
      "type": "VEC3"
    },
    {
      "bufferView": 25,
      "componentType": 5126,
      "count": 15,
      "type": "VEC3"
    },
    {
      "bufferView": 26,
      "componentType": 5126,
      "count": 15,
      "type": "VEC2"
    },
    {
      "bufferView": 27,
      "componentType": 5123,
      "count": 24,
      "type": "SCALAR"
    },
    {
      "bufferView": 28,
      "componentType": 5126,
      "count": 4,
      "max": [-0.08999998867511749, 0.44999998807907104, -0.08999998867511749],
      "min": [-0.26999998092651367, 0.44999998807907104, -0.26999998092651367],
      "type": "VEC3"
    },
    {
      "bufferView": 29,
      "componentType": 5126,
      "count": 4,
      "type": "VEC3"
    },
    {
      "bufferView": 30,
      "componentType": 5126,
      "count": 4,
      "type": "VEC2"
    },
    {
      "bufferView": 31,
      "componentType": 5123,
      "count": 6,
      "type": "SCALAR"
    },
    {
      "bufferView": 32,
      "componentType": 5126,
      "count": 8,
      "max": [0.09000000357627869, 0.44999998807907104, 0.09000000357627869],
      "min": [-0.08999999612569809, 0.27000001072883606, -0.08999998867511749],
      "type": "VEC3"
    },
    {
      "bufferView": 33,
      "componentType": 5126,
      "count": 8,
      "type": "VEC3"
    },
    {
      "bufferView": 34,
      "componentType": 5126,
      "count": 8,
      "type": "VEC2"
    },
    {
      "bufferView": 35,
      "componentType": 5123,
      "count": 12,
      "type": "SCALAR"
    }
  ],
  "bufferViews": [
    {
      "buffer": 0,
      "byteLength": 864,
      "byteOffset": 0,
      "target": 34962
    },
    {
      "buffer": 0,
      "byteLength": 864,
      "byteOffset": 864,
      "target": 34962
    },
    {
      "buffer": 0,
      "byteLength": 576,
      "byteOffset": 1728,
      "target": 34962
    },
    {
      "buffer": 0,
      "byteLength": 384,
      "byteOffset": 2304,
      "target": 34963
    },
    {
      "buffer": 0,
      "byteLength": 888,
      "byteOffset": 2688,
      "target": 34962
    },
    {
      "buffer": 0,
      "byteLength": 888,
      "byteOffset": 3576,
      "target": 34962
    },
    {
      "buffer": 0,
      "byteLength": 592,
      "byteOffset": 4464,
      "target": 34962
    },
    {
      "buffer": 0,
      "byteLength": 300,
      "byteOffset": 5056,
      "target": 34963
    },
    {
      "buffer": 0,
      "byteLength": 1056,
      "byteOffset": 5356,
      "target": 34962
    },
    {
      "buffer": 0,
      "byteLength": 1056,
      "byteOffset": 6412,
      "target": 34962
    },
    {
      "buffer": 0,
      "byteLength": 704,
      "byteOffset": 7468,
      "target": 34962
    },
    {
      "buffer": 0,
      "byteLength": 312,
      "byteOffset": 8172,
      "target": 34963
    },
    {
      "buffer": 0,
      "byteLength": 624,
      "byteOffset": 8484,
      "target": 34962
    },
    {
      "buffer": 0,
      "byteLength": 624,
      "byteOffset": 9108,
      "target": 34962
    },
    {
      "buffer": 0,
      "byteLength": 416,
      "byteOffset": 9732,
      "target": 34962
    },
    {
      "buffer": 0,
      "byteLength": 264,
      "byteOffset": 10148,
      "target": 34963
    },
    {
      "buffer": 0,
      "byteLength": 852,
      "byteOffset": 10412,
      "target": 34962
    },
    {
      "buffer": 0,
      "byteLength": 852,
      "byteOffset": 11264,
      "target": 34962
    },
    {
      "buffer": 0,
      "byteLength": 568,
      "byteOffset": 12116,
      "target": 34962
    },
    {
      "buffer": 0,
      "byteLength": 288,
      "byteOffset": 12684,
      "target": 34963
    },
    {
      "buffer": 0,
      "byteLength": 96,
      "byteOffset": 12972,
      "target": 34962
    },
    {
      "buffer": 0,
      "byteLength": 96,
      "byteOffset": 13068,
      "target": 34962
    },
    {
      "buffer": 0,
      "byteLength": 64,
      "byteOffset": 13164,
      "target": 34962
    },
    {
      "buffer": 0,
      "byteLength": 24,
      "byteOffset": 13228,
      "target": 34963
    },
    {
      "buffer": 0,
      "byteLength": 180,
      "byteOffset": 13252,
      "target": 34962
    },
    {
      "buffer": 0,
      "byteLength": 180,
      "byteOffset": 13432,
      "target": 34962
    },
    {
      "buffer": 0,
      "byteLength": 120,
      "byteOffset": 13612,
      "target": 34962
    },
    {
      "buffer": 0,
      "byteLength": 48,
      "byteOffset": 13732,
      "target": 34963
    },
    {
      "buffer": 0,
      "byteLength": 48,
      "byteOffset": 13780,
      "target": 34962
    },
    {
      "buffer": 0,
      "byteLength": 48,
      "byteOffset": 13828,
      "target": 34962
    },
    {
      "buffer": 0,
      "byteLength": 32,
      "byteOffset": 13876,
      "target": 34962
    },
    {
      "buffer": 0,
      "byteLength": 12,
      "byteOffset": 13908,
      "target": 34963
    },
    {
      "buffer": 0,
      "byteLength": 96,
      "byteOffset": 13920,
      "target": 34962
    },
    {
      "buffer": 0,
      "byteLength": 96,
      "byteOffset": 14016,
      "target": 34962
    },
    {
      "buffer": 0,
      "byteLength": 64,
      "byteOffset": 14112,
      "target": 34962
    },
    {
      "buffer": 0,
      "byteLength": 24,
      "byteOffset": 14176,
      "target": 34963
    }
  ],
  "buffers": [
    {
      "byteLength": 14200,
      "uri": "Fruit.bin"
    }
  ]
}
