<?xml version="1.0" encoding="UTF-8" standalone="no"?>
<!-- Created with Inkscape (http://www.inkscape.org/) -->

<svg
   width="13.280301mm"
   height="26.458338mm"
   viewBox="0 0 13.280301 26.458338"
   version="1.1"
   id="svg1"
   xmlns="http://www.w3.org/2000/svg"
   xmlns:svg="http://www.w3.org/2000/svg">
  <defs
     id="defs1" />
  <g
     id="layer1"
     transform="translate(-32.543753,-3.9687511)">
    <g
       id="g17107"
       transform="matrix(0.00642788,0,0,0.00642788,13.941924,0.51832647)">
      <path
         style="fill:none;stroke:#0f6b3c;stroke-width:20"
         id="path53"
         d="m 4952.9048,543.86152 c -418.8471,418.84715 -875.3401,875.33918 -1294.1867,1294.18678 -102.6719,102.672 -102.6719,102.672 -102.6719,170.695 v 160 120.834 c 0,48.834 58.6399,48.834 58.6399,107.166 v 233 972.327 c 0,92.8819 0,90.1341 48.0062,138.14 48.007,48.0062 63.0889,63.0881 120.8607,120.8599 29.0509,29.0509 43.4331,50.3203 42.714,81.7719 -0.7967,34.8457 -25.3861,59.8833 -76.305,59.8833 h -156.9999 c -47.9999,0 -48.7851,8e-4 -92.085,43.3009 -43.3,43.3002 -539.403,539.4041 -599.877,599.877" />
    </g>
  </g>
</svg>
