{
  "asset": {
    "generator": "Khronos glTF Blender I/O v4.1.62",
    "version": "2.0"
  },
  "extensionsUsed": [
    "KHR_materials_specular",
    "KHR_materials_ior",
    "KHR_materials_clearcoat",
    "KHR_materials_transmission",
    "KHR_materials_sheen",
    "KHR_materials_anisotropy"
  ],
  "scene": 0,
  "scenes": [
    {
      "name": "Scene",
      "nodes": [0, 1]
    }
  ],
  "nodes": [
    {
      "mesh": 0,
      "name": "GraphicsSkills",
      "rotation": [-0.07968048751354218, 0.13311342895030975, 0.18901821970939636, 0.9696411490440369],
      "translation": [-1.2211793661117554, 0.942481517791748, 0]
    },
    {
      "mesh": 1,
      "name": "GraphicsPack",
      "scale": [1, 1, 0.800000011920929]
    }
  ],
  "materials": [
    {
      "doubleSided": true,
      "name": "icon_illustrator_#320000",
      "pbrMetallicRoughness": {
        "baseColorFactor": [0.03190144896507263, 0, 0, 1],
        "metallicFactor": 0
      }
    },
    {
      "doubleSided": true,
      "extensions": {
        "KHR_materials_specular": {
          "specularFactor": 0
        },
        "KHR_materials_ior": {
          "ior": 1.4500000476837158
        }
      },
      "name": "icon_illustrator_#f89a01",
      "pbrMetallicRoughness": {
        "baseColorFactor": [0.9386860132217407, 0.32314324378967285, 0.00030355527997016907, 1],
        "metallicFactor": 0
      }
    },
    {
      "doubleSided": true,
      "extensions": {
        "KHR_materials_specular": {
          "specularFactor": 0
        },
        "KHR_materials_ior": {
          "ior": 1.4500000476837158
        }
      },
      "name": "icon_photoshop_#051e37",
      "pbrMetallicRoughness": {
        "baseColorFactor": [0.0015176329761743546, 0.012983032502233982, 0.038204375654459, 1],
        "metallicFactor": 0
      }
    },
    {
      "doubleSided": true,
      "extensions": {
        "KHR_materials_specular": {
          "specularFactor": 0
        },
        "KHR_materials_ior": {
          "ior": 1.4500000476837158
        }
      },
      "name": "icon_photoshop_#39a9ff",
      "pbrMetallicRoughness": {
        "baseColorFactor": [0.04091513156890869, 0.39675527811050415, 1, 1],
        "metallicFactor": 0
      }
    },
    {
      "doubleSided": true,
      "extensions": {
        "KHR_materials_specular": {
          "specularFactor": 0
        },
        "KHR_materials_ior": {
          "ior": 1.4500000476837158
        }
      },
      "name": "icon_blender_#265787",
      "pbrMetallicRoughness": {
        "baseColorFactor": [0.01938232034444809, 0.09530752152204514, 0.24228113889694214, 1],
        "metallicFactor": 0
      }
    },
    {
      "doubleSided": true,
      "extensions": {
        "KHR_materials_specular": {
          "specularFactor": 0
        },
        "KHR_materials_ior": {
          "ior": 1.4500000476837158
        }
      },
      "name": "icon_blender_#ea7600",
      "pbrMetallicRoughness": {
        "baseColorFactor": [0.8227861523628235, 0.18116417527198792, 0, 1],
        "metallicFactor": 0
      }
    },
    {
      "doubleSided": true,
      "name": "icon_blender_#ffffff",
      "pbrMetallicRoughness": {
        "metallicFactor": 0
      }
    },
    {
      "doubleSided": true,
      "extensions": {
        "KHR_materials_clearcoat": {
          "clearcoatFactor": 0.3571428656578064,
          "clearcoatRoughnessFactor": 0.029999999329447746
        },
        "KHR_materials_transmission": {
          "transmissionFactor": 0.800000011920929
        },
        "KHR_materials_specular": {
          "specularColorFactor": [2.0, 2.0, 2.0]
        },
        "KHR_materials_sheen": {
          "sheenColorFactor": [1.0, 1.0, 1.0],
          "sheenRoughnessFactor": 0.5
        },
        "KHR_materials_anisotropy": {
          "anisotropyStrength": 0.8714285492897034
        }
      },
      "name": "Material",
      "pbrMetallicRoughness": {
        "baseColorFactor": [0.15846431255340576, 0.15846431255340576, 0.15846431255340576, 0.20000000298023224],
        "metallicFactor": 0,
        "roughnessFactor": 0.05000000074505806
      }
    }
  ],
  "meshes": [
    {
      "name": "GraphicsSkills",
      "primitives": [
        {
          "attributes": {
            "POSITION": 0,
            "NORMAL": 1,
            "TEXCOORD_0": 2
          },
          "indices": 3,
          "material": 0
        },
        {
          "attributes": {
            "POSITION": 4,
            "NORMAL": 5,
            "TEXCOORD_0": 6
          },
          "indices": 7,
          "material": 1
        },
        {
          "attributes": {
            "POSITION": 8,
            "NORMAL": 9,
            "TEXCOORD_0": 10
          },
          "indices": 11,
          "material": 2
        },
        {
          "attributes": {
            "POSITION": 12,
            "NORMAL": 13,
            "TEXCOORD_0": 14
          },
          "indices": 15,
          "material": 3
        },
        {
          "attributes": {
            "POSITION": 16,
            "NORMAL": 17,
            "TEXCOORD_0": 18
          },
          "indices": 19,
          "material": 4
        },
        {
          "attributes": {
            "POSITION": 20,
            "NORMAL": 21,
            "TEXCOORD_0": 22
          },
          "indices": 23,
          "material": 5
        },
        {
          "attributes": {
            "POSITION": 24,
            "NORMAL": 25,
            "TEXCOORD_0": 26
          },
          "indices": 27,
          "material": 6
        }
      ]
    },
    {
      "name": "GraphicsPack",
      "primitives": [
        {
          "attributes": {
            "POSITION": 28,
            "NORMAL": 29,
            "TEXCOORD_0": 30
          },
          "indices": 31,
          "material": 7
        }
      ]
    }
  ],
  "accessors": [
    {
      "bufferView": 0,
      "componentType": 5126,
      "count": 264,
      "max": [1, 1, 0.12335164844989777],
      "min": [-1, -0.9999999403953552, -0.3266482651233673],
      "type": "VEC3"
    },
    {
      "bufferView": 1,
      "componentType": 5126,
      "count": 264,
      "type": "VEC3"
    },
    {
      "bufferView": 2,
      "componentType": 5126,
      "count": 264,
      "type": "VEC2"
    },
    {
      "bufferView": 3,
      "componentType": 5123,
      "count": 516,
      "type": "SCALAR"
    },
    {
      "bufferView": 4,
      "componentType": 5126,
      "count": 271,
      "max": [0.5279998779296875, 0.5499999523162842, 0.27335143089294434],
      "min": [-0.6000003218650818, -0.408000111579895, 0.12335146963596344],
      "type": "VEC3"
    },
    {
      "bufferView": 5,
      "componentType": 5126,
      "count": 271,
      "type": "VEC3"
    },
    {
      "bufferView": 6,
      "componentType": 5126,
      "count": 271,
      "type": "VEC2"
    },
    {
      "bufferView": 7,
      "componentType": 5123,
      "count": 507,
      "type": "SCALAR"
    },
    {
      "bufferView": 8,
      "componentType": 5126,
      "count": 264,
      "max": [3.532658815383911, 0.10293734073638916, 1.0885825157165527],
      "min": [1.0824497938156128, -2.398919105529785, -0.2327699065208435],
      "type": "VEC3"
    },
    {
      "bufferView": 9,
      "componentType": 5126,
      "count": 264,
      "type": "VEC3"
    },
    {
      "bufferView": 10,
      "componentType": 5126,
      "count": 264,
      "type": "VEC2"
    },
    {
      "bufferView": 11,
      "componentType": 5123,
      "count": 516,
      "type": "SCALAR"
    },
    {
      "bufferView": 12,
      "componentType": 5126,
      "count": 2806,
      "max": [2.8225154876708984, -0.5078399181365967, 0.9559926390647888],
      "min": [1.566581130027771, -1.8069357872009277, 0.41071826219558716],
      "type": "VEC3"
    },
    {
      "bufferView": 13,
      "componentType": 5126,
      "count": 2806,
      "type": "VEC3"
    },
    {
      "bufferView": 14,
      "componentType": 5126,
      "count": 2806,
      "type": "VEC2"
    },
    {
      "bufferView": 15,
      "componentType": 5123,
      "count": 4140,
      "type": "SCALAR"
    },
    {
      "bufferView": 16,
      "componentType": 5126,
      "count": 64,
      "max": [0.5063373446464539, -2.1830995082855225, 0.365669310092926],
      "min": [0.012800931930541992, -2.781571626663208, -0.03687910735607147],
      "type": "VEC3"
    },
    {
      "bufferView": 17,
      "componentType": 5126,
      "count": 64,
      "type": "VEC3"
    },
    {
      "bufferView": 18,
      "componentType": 5126,
      "count": 64,
      "type": "VEC2"
    },
    {
      "bufferView": 19,
      "componentType": 5123,
      "count": 186,
      "type": "SCALAR"
    },
    {
      "bufferView": 20,
      "componentType": 5126,
      "count": 532,
      "max": [1.2600761651992798, -1.3542766571044922, 0.6859368681907654],
      "min": [-0.9006390571594238, -3.407163619995117, -1.2704286575317383],
      "type": "VEC3"
    },
    {
      "bufferView": 21,
      "componentType": 5126,
      "count": 532,
      "type": "VEC3"
    },
    {
      "bufferView": 22,
      "componentType": 5126,
      "count": 532,
      "type": "VEC2"
    },
    {
      "bufferView": 23,
      "componentType": 5123,
      "count": 1122,
      "type": "SCALAR"
    },
    {
      "bufferView": 24,
      "componentType": 5126,
      "count": 128,
      "max": [0.649462878704071, -2.009542465209961, 0.48240840435028076],
      "min": [-0.1303246021270752, -2.9551286697387695, -0.15361817181110382],
      "type": "VEC3"
    },
    {
      "bufferView": 25,
      "componentType": 5126,
      "count": 128,
      "type": "VEC3"
    },
    {
      "bufferView": 26,
      "componentType": 5126,
      "count": 128,
      "type": "VEC2"
    },
    {
      "bufferView": 27,
      "componentType": 5123,
      "count": 384,
      "type": "SCALAR"
    },
    {
      "bufferView": 28,
      "componentType": 5126,
      "count": 491821,
      "max": [3.010089874267578, 2.919583320617676, 0.9739503264427185],
      "min": [-2.8542022705078125, -2.9461801052093506, -1.03830885887146],
      "type": "VEC3"
    },
    {
      "bufferView": 29,
      "componentType": 5126,
      "count": 491821,
      "type": "VEC3"
    },
    {
      "bufferView": 30,
      "componentType": 5126,
      "count": 491821,
      "type": "VEC2"
    },
    {
      "bufferView": 31,
      "componentType": 5125,
      "count": 738048,
      "type": "SCALAR"
    }
  ],
  "bufferViews": [
    {
      "buffer": 0,
      "byteLength": 3168,
      "byteOffset": 0,
      "target": 34962
    },
    {
      "buffer": 0,
      "byteLength": 3168,
      "byteOffset": 3168,
      "target": 34962
    },
    {
      "buffer": 0,
      "byteLength": 2112,
      "byteOffset": 6336,
      "target": 34962
    },
    {
      "buffer": 0,
      "byteLength": 1032,
      "byteOffset": 8448,
      "target": 34963
    },
    {
      "buffer": 0,
      "byteLength": 3252,
      "byteOffset": 9480,
      "target": 34962
    },
    {
      "buffer": 0,
      "byteLength": 3252,
      "byteOffset": 12732,
      "target": 34962
    },
    {
      "buffer": 0,
      "byteLength": 2168,
      "byteOffset": 15984,
      "target": 34962
    },
    {
      "buffer": 0,
      "byteLength": 1014,
      "byteOffset": 18152,
      "target": 34963
    },
    {
      "buffer": 0,
      "byteLength": 3168,
      "byteOffset": 19168,
      "target": 34962
    },
    {
      "buffer": 0,
      "byteLength": 3168,
      "byteOffset": 22336,
      "target": 34962
    },
    {
      "buffer": 0,
      "byteLength": 2112,
      "byteOffset": 25504,
      "target": 34962
    },
    {
      "buffer": 0,
      "byteLength": 1032,
      "byteOffset": 27616,
      "target": 34963
    },
    {
      "buffer": 0,
      "byteLength": 33672,
      "byteOffset": 28648,
      "target": 34962
    },
    {
      "buffer": 0,
      "byteLength": 33672,
      "byteOffset": 62320,
      "target": 34962
    },
    {
      "buffer": 0,
      "byteLength": 22448,
      "byteOffset": 95992,
      "target": 34962
    },
    {
      "buffer": 0,
      "byteLength": 8280,
      "byteOffset": 118440,
      "target": 34963
    },
    {
      "buffer": 0,
      "byteLength": 768,
      "byteOffset": 126720,
      "target": 34962
    },
    {
      "buffer": 0,
      "byteLength": 768,
      "byteOffset": 127488,
      "target": 34962
    },
    {
      "buffer": 0,
      "byteLength": 512,
      "byteOffset": 128256,
      "target": 34962
    },
    {
      "buffer": 0,
      "byteLength": 372,
      "byteOffset": 128768,
      "target": 34963
    },
    {
      "buffer": 0,
      "byteLength": 6384,
      "byteOffset": 129140,
      "target": 34962
    },
    {
      "buffer": 0,
      "byteLength": 6384,
      "byteOffset": 135524,
      "target": 34962
    },
    {
      "buffer": 0,
      "byteLength": 4256,
      "byteOffset": 141908,
      "target": 34962
    },
    {
      "buffer": 0,
      "byteLength": 2244,
      "byteOffset": 146164,
      "target": 34963
    },
    {
      "buffer": 0,
      "byteLength": 1536,
      "byteOffset": 148408,
      "target": 34962
    },
    {
      "buffer": 0,
      "byteLength": 1536,
      "byteOffset": 149944,
      "target": 34962
    },
    {
      "buffer": 0,
      "byteLength": 1024,
      "byteOffset": 151480,
      "target": 34962
    },
    {
      "buffer": 0,
      "byteLength": 768,
      "byteOffset": 152504,
      "target": 34963
    },
    {
      "buffer": 0,
      "byteLength": 5901852,
      "byteOffset": 153272,
      "target": 34962
    },
    {
      "buffer": 0,
      "byteLength": 5901852,
      "byteOffset": 6055124,
      "target": 34962
    },
    {
      "buffer": 0,
      "byteLength": 3934568,
      "byteOffset": 11956976,
      "target": 34962
    },
    {
      "buffer": 0,
      "byteLength": 2952192,
      "byteOffset": 15891544,
      "target": 34963
    }
  ],
  "buffers": [
    {
      "byteLength": 18843736,
      "uri": "GraphicsPack.bin"
    }
  ]
}
