{
  "asset": {
    "generator": "Khronos glTF Blender I/O v4.2.57",
    "version": "2.0"
  },
  "scene": 0,
  "scenes": [
    {
      "name": "Scene",
      "nodes": [0]
    }
  ],
  "nodes": [
    {
      "mesh": 0,
      "name": "Face"
    }
  ],
  "meshes": [
    {
      "name": "Face",
      "primitives": [
        {
          "attributes": {
            "POSITION": 0,
            "NORMAL": 1,
            "TEXCOORD_0": 2
          },
          "indices": 3
        }
      ]
    }
  ],
  "accessors": [
    {
      "bufferView": 0,
      "componentType": 5126,
      "count": 19980,
      "max": [1.25970458984375, 1.2273728847503662, 0.6299974918365479],
      "min": [-1.32989501953125, -2.096895933151245, -1.618994116783142],
      "type": "VEC3"
    },
    {
      "bufferView": 1,
      "componentType": 5126,
      "count": 19980,
      "type": "VEC3"
    },
    {
      "bufferView": 2,
      "componentType": 5126,
      "count": 19980,
      "type": "VEC2"
    },
    {
      "bufferView": 3,
      "componentType": 5123,
      "count": 118140,
      "type": "SCALAR"
    }
  ],
  "bufferViews": [
    {
      "buffer": 0,
      "byteLength": 239760,
      "byteOffset": 0,
      "target": 34962
    },
    {
      "buffer": 0,
      "byteLength": 239760,
      "byteOffset": 239760,
      "target": 34962
    },
    {
      "buffer": 0,
      "byteLength": 159840,
      "byteOffset": 479520,
      "target": 34962
    },
    {
      "buffer": 0,
      "byteLength": 236280,
      "byteOffset": 639360,
      "target": 34963
    }
  ],
  "buffers": [
    {
      "byteLength": 875640,
      "uri": "Face.bin"
    }
  ]
}
