{
  "asset": {
    "generator": "Khronos glTF Blender I/O v4.1.62",
    "version": "2.0"
  },
  "scene": 0,
  "scenes": [
    {
      "name": "Scene",
      "nodes": [0]
    }
  ],
  "nodes": [
    {
      "mesh": 0,
      "name": "Star"
    }
  ],
  "meshes": [
    {
      "name": "Star",
      "primitives": [
        {
          "attributes": {
            "POSITION": 0,
            "NORMAL": 1,
            "TEXCOORD_0": 2
          },
          "indices": 3
        }
      ]
    }
  ],
  "accessors": [
    {
      "bufferView": 0,
      "componentType": 5126,
      "count": 15370,
      "max": [0.9195032715797424, 0.9663678407669067, 0.20000003278255463],
      "min": [-0.9195032715797424, -0.7836679220199585, -0.20000003278255463],
      "type": "VEC3"
    },
    {
      "bufferView": 1,
      "componentType": 5126,
      "count": 15370,
      "type": "VEC3"
    },
    {
      "bufferView": 2,
      "componentType": 5126,
      "count": 15370,
      "type": "VEC2"
    },
    {
      "bufferView": 3,
      "componentType": 5123,
      "count": 23088,
      "type": "SCALAR"
    }
  ],
  "bufferViews": [
    {
      "buffer": 0,
      "byteLength": 184440,
      "byteOffset": 0,
      "target": 34962
    },
    {
      "buffer": 0,
      "byteLength": 184440,
      "byteOffset": 184440,
      "target": 34962
    },
    {
      "buffer": 0,
      "byteLength": 122960,
      "byteOffset": 368880,
      "target": 34962
    },
    {
      "buffer": 0,
      "byteLength": 46176,
      "byteOffset": 491840,
      "target": 34963
    }
  ],
  "buffers": [
    {
      "byteLength": 538016,
      "uri": "Star.bin"
    }
  ]
}
