{
  "asset": {
    "generator": "Khronos glTF Blender I/O v4.1.62",
    "version": "2.0"
  },
  "scene": 0,
  "scenes": [
    {
      "name": "Scene",
      "nodes": [0]
    }
  ],
  "nodes": [
    {
      "mesh": 0,
      "name": "LogoSass"
    }
  ],
  "materials": [
    {
      "doubleSided": true,
      "name": "icon_sass_#ce679b",
      "pbrMetallicRoughness": {
        "baseColorFactor": [
          0.6173110604286194, 0.13562729954719543, 0.327754408121109, 1
        ],
        "metallicFactor": 0
      }
    }
  ],
  "meshes": [
    {
      "name": "LogoSass",
      "primitives": [
        {
          "attributes": {
            "POSITION": 0,
            "NORMAL": 1
          },
          "indices": 2,
          "material": 0
        }
      ]
    }
  ],
  "accessors": [
    {
      "bufferView": 0,
      "componentType": 5126,
      "count": 3906,
      "max": [1.3331786394119263, 1.0059046745300293, 0.20098665356636047],
      "min": [-1.3344671726226807, -0.9940975308418274, -0.20098601281642914],
      "type": "VEC3"
    },
    {
      "bufferView": 1,
      "componentType": 5126,
      "count": 3906,
      "type": "VEC3"
    },
    {
      "bufferView": 2,
      "componentType": 5123,
      "count": 7866,
      "type": "SCALAR"
    }
  ],
  "bufferViews": [
    {
      "buffer": 0,
      "byteLength": 46872,
      "byteOffset": 0,
      "target": 34962
    },
    {
      "buffer": 0,
      "byteLength": 46872,
      "byteOffset": 46872,
      "target": 34962
    },
    {
      "buffer": 0,
      "byteLength": 15732,
      "byteOffset": 93744,
      "target": 34963
    }
  ],
  "buffers": [
    {
      "byteLength": 109476,
      "uri": "LogoSass.bin"
    }
  ]
}
