{
  "asset": {
    "generator": "Khronos glTF Blender I/O v4.0.44",
    "version": "2.0"
  },
  "scene": 0,
  "scenes": [
    {
      "name": "Scene",
      "nodes": [0]
    }
  ],
  "nodes": [
    {
      "mesh": 0,
      "name": "LogoRedux"
    }
  ],
  "meshes": [
    {
      "name": "LogoRedux",
      "primitives": [
        {
          "attributes": {
            "POSITION": 0,
            "NORMAL": 1,
            "TEXCOORD_0": 2
          },
          "indices": 3
        }
      ]
    }
  ],
  "accessors": [
    {
      "bufferView": 0,
      "componentType": 5126,
      "count": 6072,
      "max": [0.7840821743011475, 0.986859917640686, 0.19400128722190857],
      "min": [-0.7840825915336609, -0.9841521978378296, -0.1940004974603653],
      "type": "VEC3"
    },
    {
      "bufferView": 1,
      "componentType": 5126,
      "count": 6072,
      "type": "VEC3"
    },
    {
      "bufferView": 2,
      "componentType": 5126,
      "count": 6072,
      "type": "VEC2"
    },
    {
      "bufferView": 3,
      "componentType": 5123,
      "count": 15330,
      "type": "SCALAR"
    }
  ],
  "bufferViews": [
    {
      "buffer": 0,
      "byteLength": 72864,
      "byteOffset": 0,
      "target": 34962
    },
    {
      "buffer": 0,
      "byteLength": 72864,
      "byteOffset": 72864,
      "target": 34962
    },
    {
      "buffer": 0,
      "byteLength": 48576,
      "byteOffset": 145728,
      "target": 34962
    },
    {
      "buffer": 0,
      "byteLength": 30660,
      "byteOffset": 194304,
      "target": 34963
    }
  ],
  "buffers": [
    {
      "byteLength": 224964,
      "uri": "LogoRedux.bin"
    }
  ]
}
