{
  "asset": {
    "generator": "Khronos glTF Blender I/O v4.1.62",
    "version": "2.0"
  },
  "extensionsUsed": ["KHR_materials_specular", "KHR_materials_ior"],
  "scene": 0,
  "scenes": [
    {
      "name": "Scene",
      "nodes": [0]
    }
  ],
  "nodes": [
    {
      "mesh": 0,
      "name": "LogoJava"
    }
  ],
  "materials": [
    {
      "doubleSided": true,
      "extensions": {
        "KHR_materials_specular": {
          "specularFactor": 0
        },
        "KHR_materials_ior": {
          "ior": 1.4500000476837158
        }
      },
      "name": "logo_java_#5382a1",
      "pbrMetallicRoughness": {
        "baseColorFactor": [
          0.08650043606758118, 0.22322799265384674, 0.35640019178390503, 1
        ],
        "metallicFactor": 0
      }
    },
    {
      "doubleSided": true,
      "extensions": {
        "KHR_materials_specular": {
          "specularFactor": 0
        },
        "KHR_materials_ior": {
          "ior": 1.4500000476837158
        }
      },
      "name": "logo_java_#e76f01",
      "pbrMetallicRoughness": {
        "baseColorFactor": [
          0.7991032004356384, 0.1589607149362564, 0.0003035515546798706, 1
        ],
        "metallicFactor": 0
      }
    }
  ],
  "meshes": [
    {
      "name": "LogoJava",
      "primitives": [
        {
          "attributes": {
            "POSITION": 0,
            "NORMAL": 1,
            "TEXCOORD_0": 2
          },
          "indices": 3,
          "material": 0
        },
        {
          "attributes": {
            "POSITION": 4,
            "NORMAL": 5,
            "TEXCOORD_0": 6
          },
          "indices": 7,
          "material": 1
        }
      ]
    }
  ],
  "accessors": [
    {
      "bufferView": 0,
      "componentType": 5126,
      "count": 1934,
      "max": [0.7519153952598572, -0.06970040500164032, 0.20000043511390686],
      "min": [-0.7517781853675842, -0.999688446521759, -0.20000046491622925],
      "type": "VEC3"
    },
    {
      "bufferView": 1,
      "componentType": 5126,
      "count": 1934,
      "type": "VEC3"
    },
    {
      "bufferView": 2,
      "componentType": 5126,
      "count": 1934,
      "type": "VEC2"
    },
    {
      "bufferView": 3,
      "componentType": 5123,
      "count": 3798,
      "type": "SCALAR"
    },
    {
      "bufferView": 4,
      "componentType": 5126,
      "count": 516,
      "max": [0.4431699216365814, 1.000304937362671, 0.20000046491622925],
      "min": [-0.27927854657173157, -0.1682470738887787, -0.20000046491622925],
      "type": "VEC3"
    },
    {
      "bufferView": 5,
      "componentType": 5126,
      "count": 516,
      "type": "VEC3"
    },
    {
      "bufferView": 6,
      "componentType": 5126,
      "count": 516,
      "type": "VEC2"
    },
    {
      "bufferView": 7,
      "componentType": 5123,
      "count": 1008,
      "type": "SCALAR"
    }
  ],
  "bufferViews": [
    {
      "buffer": 0,
      "byteLength": 23208,
      "byteOffset": 0,
      "target": 34962
    },
    {
      "buffer": 0,
      "byteLength": 23208,
      "byteOffset": 23208,
      "target": 34962
    },
    {
      "buffer": 0,
      "byteLength": 15472,
      "byteOffset": 46416,
      "target": 34962
    },
    {
      "buffer": 0,
      "byteLength": 7596,
      "byteOffset": 61888,
      "target": 34963
    },
    {
      "buffer": 0,
      "byteLength": 6192,
      "byteOffset": 69484,
      "target": 34962
    },
    {
      "buffer": 0,
      "byteLength": 6192,
      "byteOffset": 75676,
      "target": 34962
    },
    {
      "buffer": 0,
      "byteLength": 4128,
      "byteOffset": 81868,
      "target": 34962
    },
    {
      "buffer": 0,
      "byteLength": 2016,
      "byteOffset": 85996,
      "target": 34963
    }
  ],
  "buffers": [
    {
      "byteLength": 88012,
      "uri": "LogoJava.bin"
    }
  ]
}
