{
  "asset": {
    "generator": "Khronos glTF Blender I/O v4.0.44",
    "version": "2.0"
  },
  "scene": 0,
  "scenes": [
    {
      "name": "Scene",
      "nodes": [0]
    }
  ],
  "nodes": [
    {
      "mesh": 0,
      "name": "LogoHtml"
    }
  ],
  "meshes": [
    {
      "name": "LogoHtml",
      "primitives": [
        {
          "attributes": {
            "POSITION": 0,
            "NORMAL": 1,
            "TEXCOORD_0": 2
          },
          "indices": 3
        }
      ]
    }
  ],
  "accessors": [
    {
      "bufferView": 0,
      "componentType": 5126,
      "count": 394,
      "max": [0.715999960899353, 1, 0.1974286437034607],
      "min": [-0.715999960899353, -1, -0.20000000298023224],
      "type": "VEC3"
    },
    {
      "bufferView": 1,
      "componentType": 5126,
      "count": 394,
      "type": "VEC3"
    },
    {
      "bufferView": 2,
      "componentType": 5126,
      "count": 394,
      "type": "VEC2"
    },
    {
      "bufferView": 3,
      "componentType": 5123,
      "count": 714,
      "type": "SCALAR"
    }
  ],
  "bufferViews": [
    {
      "buffer": 0,
      "byteLength": 4728,
      "byteOffset": 0,
      "target": 34962
    },
    {
      "buffer": 0,
      "byteLength": 4728,
      "byteOffset": 4728,
      "target": 34962
    },
    {
      "buffer": 0,
      "byteLength": 3152,
      "byteOffset": 9456,
      "target": 34962
    },
    {
      "buffer": 0,
      "byteLength": 1428,
      "byteOffset": 12608,
      "target": 34963
    }
  ],
  "buffers": [
    {
      "byteLength": 14036,
      "uri": "LogoHtml.bin"
    }
  ]
}
