{
  "asset": {
    "generator": "Khronos glTF Blender I/O v4.1.62",
    "version": "2.0"
  },
  "scene": 0,
  "scenes": [
    {
      "name": "Scene",
      "nodes": [0]
    }
  ],
  "nodes": [
    {
      "mesh": 0,
      "name": "LogoMoco",
      "scale": [1.1112500429153442, 1.1112500429153442, 1.1112500429153442]
    }
  ],
  "materials": [
    {
      "doubleSided": true,
      "name": "a.001",
      "pbrMetallicRoughness": {
        "metallicFactor": 0
      }
    }
  ],
  "meshes": [
    {
      "name": "LogoMoco",
      "primitives": [
        {
          "attributes": {
            "POSITION": 0,
            "NORMAL": 1,
            "TEXCOORD_0": 2
          },
          "indices": 3,
          "material": 0
        }
      ]
    }
  ],
  "accessors": [
    {
      "bufferView": 0,
      "componentType": 5126,
      "count": 7552,
      "max": [1.2912031412124634, 0.9498326778411865, 0.7174447774887085],
      "min": [-1.5077238082885742, -0.8499436974525452, -0.7939382791519165],
      "type": "VEC3"
    },
    {
      "bufferView": 1,
      "componentType": 5126,
      "count": 7552,
      "type": "VEC3"
    },
    {
      "bufferView": 2,
      "componentType": 5126,
      "count": 7552,
      "type": "VEC2"
    },
    {
      "bufferView": 3,
      "componentType": 5123,
      "count": 44124,
      "type": "SCALAR"
    }
  ],
  "bufferViews": [
    {
      "buffer": 0,
      "byteLength": 90624,
      "byteOffset": 0,
      "target": 34962
    },
    {
      "buffer": 0,
      "byteLength": 90624,
      "byteOffset": 90624,
      "target": 34962
    },
    {
      "buffer": 0,
      "byteLength": 60416,
      "byteOffset": 181248,
      "target": 34962
    },
    {
      "buffer": 0,
      "byteLength": 88248,
      "byteOffset": 241664,
      "target": 34963
    }
  ],
  "buffers": [
    {
      "byteLength": 329912,
      "uri": "LogoMoco.bin"
    }
  ]
}
