{
  "asset": {
    "generator": "Khronos glTF Blender I/O v4.1.62",
    "version": "2.0"
  },
  "scene": 0,
  "scenes": [
    {
      "name": "Scene",
      "nodes": [0]
    }
  ],
  "nodes": [
    {
      "mesh": 0,
      "name": "LogoMoco"
    }
  ],
  "materials": [
    {
      "doubleSided": true,
      "name": "logo_moco_normal_texture_diffuse",
      "pbrMetallicRoughness": {
        "baseColorTexture": {
          "index": 0
        },
        "metallicFactor": 0
      }
    }
  ],
  "meshes": [
    {
      "name": "LogoMoco",
      "primitives": [
        {
          "attributes": {
            "POSITION": 0,
            "NORMAL": 1,
            "TEXCOORD_0": 2
          },
          "indices": 3,
          "material": 0
        }
      ]
    }
  ],
  "textures": [
    {
      "sampler": 0,
      "source": 0
    }
  ],
  "images": [
    {
      "mimeType": "image/png",
      "name": "logo_moco_normal_texture_diffuse",
      "uri": "logo_moco_normal_texture_diffuse.png"
    }
  ],
  "accessors": [
    {
      "bufferView": 0,
      "componentType": 5126,
      "count": 426716,
      "max": [1.3577930927276611, 0.9976564645767212, 0.7326676249504089],
      "min": [-1.4334404468536377, -0.799653172492981, -0.8827728033065796],
      "type": "VEC3"
    },
    {
      "bufferView": 1,
      "componentType": 5126,
      "count": 426716,
      "type": "VEC3"
    },
    {
      "bufferView": 2,
      "componentType": 5126,
      "count": 426716,
      "type": "VEC2"
    },
    {
      "bufferView": 3,
      "componentType": 5125,
      "count": 705600,
      "type": "SCALAR"
    }
  ],
  "bufferViews": [
    {
      "buffer": 0,
      "byteLength": 5120592,
      "byteOffset": 0,
      "target": 34962
    },
    {
      "buffer": 0,
      "byteLength": 5120592,
      "byteOffset": 5120592,
      "target": 34962
    },
    {
      "buffer": 0,
      "byteLength": 3413728,
      "byteOffset": 10241184,
      "target": 34962
    },
    {
      "buffer": 0,
      "byteLength": 2822400,
      "byteOffset": 13654912,
      "target": 34963
    }
  ],
  "samplers": [
    {
      "magFilter": 9729,
      "minFilter": 9987
    }
  ],
  "buffers": [
    {
      "byteLength": 16477312,
      "uri": "LogoMoco.bin"
    }
  ]
}
