{
  "asset": {
    "generator": "Khronos glTF Blender I/O v4.1.62",
    "version": "2.0"
  },
  "scene": 0,
  "scenes": [
    {
      "name": "Scene",
      "nodes": [0]
    }
  ],
  "nodes": [
    {
      "mesh": 0,
      "name": "LogoReact"
    }
  ],
  "materials": [
    {
      "doubleSided": true,
      "name": "logo_react_#61d9fb",
      "pbrMetallicRoughness": {
        "baseColorFactor": [
          0.11953665316104889, 0.6938724517822266, 0.9646866321563721, 1
        ],
        "metallicFactor": 0
      }
    }
  ],
  "meshes": [
    {
      "name": "LogoReact",
      "primitives": [
        {
          "attributes": {
            "POSITION": 0,
            "NORMAL": 1,
            "TEXCOORD_0": 2
          },
          "indices": 3,
          "material": 0
        }
      ]
    }
  ],
  "accessors": [
    {
      "bufferView": 0,
      "componentType": 5126,
      "count": 5166,
      "max": [1.1252835988998413, 1.0000028610229492, 0.20067209005355835],
      "min": [-1.1252833604812622, -1.000003457069397, -0.20071841776371002],
      "type": "VEC3"
    },
    {
      "bufferView": 1,
      "componentType": 5126,
      "count": 5166,
      "type": "VEC3"
    },
    {
      "bufferView": 2,
      "componentType": 5126,
      "count": 5166,
      "type": "VEC2"
    },
    {
      "bufferView": 3,
      "componentType": 5123,
      "count": 10308,
      "type": "SCALAR"
    }
  ],
  "bufferViews": [
    {
      "buffer": 0,
      "byteLength": 61992,
      "byteOffset": 0,
      "target": 34962
    },
    {
      "buffer": 0,
      "byteLength": 61992,
      "byteOffset": 61992,
      "target": 34962
    },
    {
      "buffer": 0,
      "byteLength": 41328,
      "byteOffset": 123984,
      "target": 34962
    },
    {
      "buffer": 0,
      "byteLength": 20616,
      "byteOffset": 165312,
      "target": 34963
    }
  ],
  "buffers": [
    {
      "byteLength": 185928,
      "uri": "LogoReact.bin"
    }
  ]
}
