{
	"asset":{
		"generator":"Khronos glTF Blender I/O v4.1.62",
		"version":"2.0"
	},
	"extensionsUsed":[
		"KHR_texture_transform"
	],
	"extensionsRequired":[
		"KHR_texture_transform"
	],
	"scene":0,
	"scenes":[
		{
			"name":"Scene",
			"nodes":[
				0
			]
		}
	],
	"nodes":[
		{
			"mesh":0,
			"name":"LogoMoco"
		}
	],
	"materials":[
		{
			"doubleSided":true,
			"name":"normal_map",
			"pbrMetallicRoughness":{
				"baseColorTexture":{
					"extensions":{
						"KHR_texture_transform":{
							"offset":[
								0.5,
								0.009999990463256836
							],
							"scale":[
								0.49000000953674316,
								0.49000000953674316
							]
						}
					},
					"index":0
				},
				"metallicFactor":0,
				"roughnessFactor":0.5
			}
		}
	],
	"meshes":[
		{
			"name":"LogoMoco",
			"primitives":[
				{
					"attributes":{
						"POSITION":0,
						"NORMAL":1,
						"TEXCOORD_0":2
					},
					"indices":3,
					"material":0
				}
			]
		}
	],
	"textures":[
		{
			"sampler":0,
			"source":0
		}
	],
	"images":[
		{
			"mimeType":"image/png",
			"name":"normal_colours",
			"uri":"normal_colours.png"
		}
	],
	"accessors":[
		{
			"bufferView":0,
			"componentType":5126,
			"count":15267,
			"max":[
				1.4643337726593018,
				1.0568926334381104,
				1.4613380432128906
			],
			"min":[
				-1.4637067317962646,
				-1.0172696113586426,
				-0.4633001685142517
			],
			"type":"VEC3"
		},
		{
			"bufferView":1,
			"componentType":5126,
			"count":15267,
			"type":"VEC3"
		},
		{
			"bufferView":2,
			"componentType":5126,
			"count":15267,
			"type":"VEC2"
		},
		{
			"bufferView":3,
			"componentType":5123,
			"count":85032,
			"type":"SCALAR"
		}
	],
	"bufferViews":[
		{
			"buffer":0,
			"byteLength":183204,
			"byteOffset":0,
			"target":34962
		},
		{
			"buffer":0,
			"byteLength":183204,
			"byteOffset":183204,
			"target":34962
		},
		{
			"buffer":0,
			"byteLength":122136,
			"byteOffset":366408,
			"target":34962
		},
		{
			"buffer":0,
			"byteLength":170064,
			"byteOffset":488544,
			"target":34963
		}
	],
	"samplers":[
		{
			"magFilter":9729,
			"minFilter":9987
		}
	],
	"buffers":[
		{
			"byteLength":658608,
			"uri":"LogoMoco.bin"
		}
	]
}
