{
  "asset": {
    "generator": "Khronos glTF Blender I/O v4.1.62",
    "version": "2.0"
  },
  "extensionsUsed": ["KHR_materials_specular", "KHR_materials_ior"],
  "scene": 0,
  "scenes": [
    {
      "name": "Scene",
      "nodes": [0]
    }
  ],
  "nodes": [
    {
      "mesh": 0,
      "name": "LogoPostgresql"
    }
  ],
  "materials": [
    {
      "doubleSided": true,
      "extensions": {
        "KHR_materials_specular": {
          "specularFactor": 0
        },
        "KHR_materials_ior": {
          "ior": 1.4500000476837158
        }
      },
      "name": "logo_postgresql_#000000",
      "pbrMetallicRoughness": {
        "baseColorFactor": [0, 0, 0, 1],
        "metallicFactor": 0
      }
    },
    {
      "doubleSided": true,
      "extensions": {
        "KHR_materials_specular": {
          "specularFactor": 0
        },
        "KHR_materials_ior": {
          "ior": 1.4500000476837158
        }
      },
      "name": "logo_postgresql_#ffffff",
      "pbrMetallicRoughness": {
        "metallicFactor": 0
      }
    },
    {
      "doubleSided": true,
      "extensions": {
        "KHR_materials_specular": {
          "specularFactor": 0
        },
        "KHR_materials_ior": {
          "ior": 1.4500000476837158
        }
      },
      "name": "logo_postgresql_#336791",
      "pbrMetallicRoughness": {
        "baseColorFactor": [0.033110082149505615, 0.1356273889541626, 0.2831282913684845, 1],
        "metallicFactor": 0
      }
    }
  ],
  "meshes": [
    {
      "name": "LogoPostgresql",
      "primitives": [
        {
          "attributes": {
            "POSITION": 0,
            "NORMAL": 1,
            "TEXCOORD_0": 2
          },
          "indices": 3,
          "material": 0
        },
        {
          "attributes": {
            "POSITION": 4,
            "NORMAL": 5,
            "TEXCOORD_0": 6
          },
          "indices": 7,
          "material": 1
        },
        {
          "attributes": {
            "POSITION": 8,
            "NORMAL": 9,
            "TEXCOORD_0": 10
          },
          "indices": 11,
          "material": 2
        }
      ]
    }
  ],
  "accessors": [
    {
      "bufferView": 0,
      "componentType": 5126,
      "count": 616,
      "max": [0.9660320281982422, 1.003185510635376, 0.050382357090711594],
      "min": [-0.9699999690055847, -0.9968088269233704, -0.20152857899665833],
      "type": "VEC3"
    },
    {
      "bufferView": 1,
      "componentType": 5126,
      "count": 616,
      "type": "VEC3"
    },
    {
      "bufferView": 2,
      "componentType": 5126,
      "count": 616,
      "type": "VEC2"
    },
    {
      "bufferView": 3,
      "componentType": 5123,
      "count": 1230,
      "type": "SCALAR"
    },
    {
      "bufferView": 4,
      "componentType": 5126,
      "count": 2466,
      "max": [0.9110346436500549, 0.9473251104354858, 0.20152989029884338],
      "min": [-0.9141466617584229, -0.9411094784736633, -9.159153933069319e-7],
      "type": "VEC3"
    },
    {
      "bufferView": 5,
      "componentType": 5126,
      "count": 2466,
      "type": "VEC3"
    },
    {
      "bufferView": 6,
      "componentType": 5126,
      "count": 2466,
      "type": "VEC2"
    },
    {
      "bufferView": 7,
      "componentType": 5123,
      "count": 4254,
      "type": "SCALAR"
    },
    {
      "bufferView": 8,
      "componentType": 5126,
      "count": 1744,
      "max": [0.8430585265159607, 0.8914632201194763, 0.15114711225032806],
      "min": [-0.8543057441711426, -0.8854175209999084, -5.480477511810022e-7],
      "type": "VEC3"
    },
    {
      "bufferView": 9,
      "componentType": 5126,
      "count": 1744,
      "type": "VEC3"
    },
    {
      "bufferView": 10,
      "componentType": 5126,
      "count": 1744,
      "type": "VEC2"
    },
    {
      "bufferView": 11,
      "componentType": 5123,
      "count": 3054,
      "type": "SCALAR"
    }
  ],
  "bufferViews": [
    {
      "buffer": 0,
      "byteLength": 7392,
      "byteOffset": 0,
      "target": 34962
    },
    {
      "buffer": 0,
      "byteLength": 7392,
      "byteOffset": 7392,
      "target": 34962
    },
    {
      "buffer": 0,
      "byteLength": 4928,
      "byteOffset": 14784,
      "target": 34962
    },
    {
      "buffer": 0,
      "byteLength": 2460,
      "byteOffset": 19712,
      "target": 34963
    },
    {
      "buffer": 0,
      "byteLength": 29592,
      "byteOffset": 22172,
      "target": 34962
    },
    {
      "buffer": 0,
      "byteLength": 29592,
      "byteOffset": 51764,
      "target": 34962
    },
    {
      "buffer": 0,
      "byteLength": 19728,
      "byteOffset": 81356,
      "target": 34962
    },
    {
      "buffer": 0,
      "byteLength": 8508,
      "byteOffset": 101084,
      "target": 34963
    },
    {
      "buffer": 0,
      "byteLength": 20928,
      "byteOffset": 109592,
      "target": 34962
    },
    {
      "buffer": 0,
      "byteLength": 20928,
      "byteOffset": 130520,
      "target": 34962
    },
    {
      "buffer": 0,
      "byteLength": 13952,
      "byteOffset": 151448,
      "target": 34962
    },
    {
      "buffer": 0,
      "byteLength": 6108,
      "byteOffset": 165400,
      "target": 34963
    }
  ],
  "buffers": [
    {
      "byteLength": 171508,
      "uri": "LogoPostgresql.bin"
    }
  ]
}
