{
  "asset": {
    "generator": "Khronos glTF Blender I/O v4.1.62",
    "version": "2.0"
  },
  "scene": 0,
  "scenes": [
    {
      "name": "Scene",
      "nodes": [0]
    }
  ],
  "nodes": [
    {
      "mesh": 0,
      "name": "LogoHostinger"
    }
  ],
  "materials": [
    {
      "doubleSided": true,
      "name": "logo_hostinger_#6746c7",
      "pbrMetallicRoughness": {
        "baseColorFactor": [0.13563226163387299, 0.06124590337276459, 0.5711250901222229, 1],
        "metallicFactor": 0
      }
    }
  ],
  "meshes": [
    {
      "name": "LogoHostinger",
      "primitives": [
        {
          "attributes": {
            "POSITION": 0,
            "NORMAL": 1
          },
          "indices": 2,
          "material": 0
        }
      ]
    }
  ],
  "accessors": [
    {
      "bufferView": 0,
      "componentType": 5126,
      "count": 240,
      "max": [0.8447994589805603, 0.9999994039535522, 0.20000001788139343],
      "min": [-0.8447994589805603, -0.9999994039535522, -0.20000004768371582],
      "type": "VEC3"
    },
    {
      "bufferView": 1,
      "componentType": 5126,
      "count": 240,
      "type": "VEC3"
    },
    {
      "bufferView": 2,
      "componentType": 5123,
      "count": 432,
      "type": "SCALAR"
    }
  ],
  "bufferViews": [
    {
      "buffer": 0,
      "byteLength": 2880,
      "byteOffset": 0,
      "target": 34962
    },
    {
      "buffer": 0,
      "byteLength": 2880,
      "byteOffset": 2880,
      "target": 34962
    },
    {
      "buffer": 0,
      "byteLength": 864,
      "byteOffset": 5760,
      "target": 34963
    }
  ],
  "buffers": [
    {
      "byteLength": 6624,
      "uri": "LogoHostinger.bin"
    }
  ]
}
