{
  "asset": {
    "generator": "Khronos glTF Blender I/O v4.1.62",
    "version": "2.0"
  },
  "scene": 0,
  "scenes": [
    {
      "name": "Scene",
      "nodes": [0]
    }
  ],
  "nodes": [
    {
      "mesh": 0,
      "name": "LogoGitHub"
    }
  ],
  "meshes": [
    {
      "name": "LogoGitHub",
      "primitives": [
        {
          "attributes": {
            "POSITION": 0,
            "NORMAL": 1,
            "TEXCOORD_0": 2
          },
          "indices": 3
        }
      ]
    }
  ],
  "accessors": [
    {
      "bufferView": 0,
      "componentType": 5126,
      "count": 701,
      "max": [1.0253161191940308, 1.0000004768371582, 0.20000006258487701],
      "min": [-1.0253161191940308, -1.0000004768371582, -0.20000004768371582],
      "type": "VEC3"
    },
    {
      "bufferView": 1,
      "componentType": 5126,
      "count": 701,
      "type": "VEC3"
    },
    {
      "bufferView": 2,
      "componentType": 5126,
      "count": 701,
      "type": "VEC2"
    },
    {
      "bufferView": 3,
      "componentType": 5123,
      "count": 1944,
      "type": "SCALAR"
    }
  ],
  "bufferViews": [
    {
      "buffer": 0,
      "byteLength": 8412,
      "byteOffset": 0,
      "target": 34962
    },
    {
      "buffer": 0,
      "byteLength": 8412,
      "byteOffset": 8412,
      "target": 34962
    },
    {
      "buffer": 0,
      "byteLength": 5608,
      "byteOffset": 16824,
      "target": 34962
    },
    {
      "buffer": 0,
      "byteLength": 3888,
      "byteOffset": 22432,
      "target": 34963
    }
  ],
  "buffers": [
    {
      "byteLength": 26320,
      "uri": "LogoGitHub.bin"
    }
  ]
}
