{
  "asset": {
    "generator": "Khronos glTF Blender I/O v4.1.62",
    "version": "2.0"
  },
  "extensionsUsed": ["KHR_materials_specular", "KHR_materials_ior"],
  "scene": 0,
  "scenes": [
    {
      "name": "Scene",
      "nodes": [0]
    }
  ],
  "nodes": [
    {
      "mesh": 0,
      "name": "LogoHtml"
    }
  ],
  "materials": [
    {
      "doubleSided": true,
      "extensions": {
        "KHR_materials_specular": {
          "specularFactor": 0
        },
        "KHR_materials_ior": {
          "ior": 1.4500000476837158
        }
      },
      "name": "logo_html_#f16529",
      "pbrMetallicRoughness": {
        "baseColorFactor": [0.8796226382255554, 0.1301364302635193, 0.02217390388250351, 1],
        "metallicFactor": 0
      }
    },
    {
      "doubleSided": true,
      "extensions": {
        "KHR_materials_specular": {
          "specularFactor": 0
        },
        "KHR_materials_ior": {
          "ior": 1.4500000476837158
        }
      },
      "name": "logo_html_#e44d26",
      "pbrMetallicRoughness": {
        "baseColorFactor": [0.7758225798606873, 0.07421348243951797, 0.019382381811738014, 1],
        "metallicFactor": 0
      }
    },
    {
      "doubleSided": true,
      "extensions": {
        "KHR_materials_specular": {
          "specularFactor": 0
        },
        "KHR_materials_ior": {
          "ior": 1.4500000476837158
        }
      },
      "name": "logo_html_#ffffff",
      "pbrMetallicRoughness": {
        "metallicFactor": 0
      }
    },
    {
      "doubleSided": true,
      "extensions": {
        "KHR_materials_specular": {
          "specularFactor": 0
        },
        "KHR_materials_ior": {
          "ior": 1.4500000476837158
        }
      },
      "name": "logo_html_#ebebeb",
      "pbrMetallicRoughness": {
        "baseColorFactor": [0.8307700157165527, 0.8307698369026184, 0.8307698965072632, 1],
        "metallicFactor": 0
      }
    }
  ],
  "meshes": [
    {
      "name": "LogoHtml",
      "primitives": [
        {
          "attributes": {
            "POSITION": 0,
            "NORMAL": 1,
            "TEXCOORD_0": 2
          },
          "indices": 3,
          "material": 0
        },
        {
          "attributes": {
            "POSITION": 4,
            "NORMAL": 5,
            "TEXCOORD_0": 6
          },
          "indices": 7,
          "material": 1
        },
        {
          "attributes": {
            "POSITION": 8,
            "NORMAL": 9,
            "TEXCOORD_0": 10
          },
          "indices": 11,
          "material": 2
        },
        {
          "attributes": {
            "POSITION": 12,
            "NORMAL": 13,
            "TEXCOORD_0": 14
          },
          "indices": 15,
          "material": 3
        }
      ]
    }
  ],
  "accessors": [
    {
      "bufferView": 0,
      "componentType": 5126,
      "count": 18,
      "max": [0.5789476037025452, 0.4880000352859497, 0.19142860174179077],
      "min": [0, -0.876643180847168, 0.03630000352859497],
      "type": "VEC3"
    },
    {
      "bufferView": 1,
      "componentType": 5126,
      "count": 18,
      "type": "VEC3"
    },
    {
      "bufferView": 2,
      "componentType": 5126,
      "count": 18,
      "type": "VEC2"
    },
    {
      "bufferView": 3,
      "componentType": 5123,
      "count": 42,
      "type": "SCALAR"
    },
    {
      "bufferView": 4,
      "componentType": 5126,
      "count": 67,
      "max": [0.715999960899353, 0.6080000400543213, 0.19142860174179077],
      "min": [-0.715999960899353, -1, -0.20000000298023224],
      "type": "VEC3"
    },
    {
      "bufferView": 5,
      "componentType": 5126,
      "count": 67,
      "type": "VEC3"
    },
    {
      "bufferView": 6,
      "componentType": 5126,
      "count": 67,
      "type": "VEC2"
    },
    {
      "bufferView": 7,
      "componentType": 5123,
      "count": 153,
      "type": "SCALAR"
    },
    {
      "bufferView": 8,
      "componentType": 5126,
      "count": 278,
      "max": [0.5840001106262207, 1, 0.27142858505249023],
      "min": [-0.5800000429153442, -0.6960000991821289, -0.06599999219179153],
      "type": "VEC3"
    },
    {
      "bufferView": 9,
      "componentType": 5126,
      "count": 278,
      "type": "VEC3"
    },
    {
      "bufferView": 10,
      "componentType": 5126,
      "count": 278,
      "type": "VEC2"
    },
    {
      "bufferView": 11,
      "componentType": 5123,
      "count": 492,
      "type": "SCALAR"
    },
    {
      "bufferView": 12,
      "componentType": 5126,
      "count": 61,
      "max": [3.5762788286319847e-8, 0.312000036239624, 0.27142858505249023],
      "min": [-0.4440000057220459, -0.6960000991821289, 0.07245910167694092],
      "type": "VEC3"
    },
    {
      "bufferView": 13,
      "componentType": 5126,
      "count": 61,
      "type": "VEC3"
    },
    {
      "bufferView": 14,
      "componentType": 5126,
      "count": 61,
      "type": "VEC2"
    },
    {
      "bufferView": 15,
      "componentType": 5123,
      "count": 105,
      "type": "SCALAR"
    }
  ],
  "bufferViews": [
    {
      "buffer": 0,
      "byteLength": 216,
      "byteOffset": 0,
      "target": 34962
    },
    {
      "buffer": 0,
      "byteLength": 216,
      "byteOffset": 216,
      "target": 34962
    },
    {
      "buffer": 0,
      "byteLength": 144,
      "byteOffset": 432,
      "target": 34962
    },
    {
      "buffer": 0,
      "byteLength": 84,
      "byteOffset": 576,
      "target": 34963
    },
    {
      "buffer": 0,
      "byteLength": 804,
      "byteOffset": 660,
      "target": 34962
    },
    {
      "buffer": 0,
      "byteLength": 804,
      "byteOffset": 1464,
      "target": 34962
    },
    {
      "buffer": 0,
      "byteLength": 536,
      "byteOffset": 2268,
      "target": 34962
    },
    {
      "buffer": 0,
      "byteLength": 306,
      "byteOffset": 2804,
      "target": 34963
    },
    {
      "buffer": 0,
      "byteLength": 3336,
      "byteOffset": 3112,
      "target": 34962
    },
    {
      "buffer": 0,
      "byteLength": 3336,
      "byteOffset": 6448,
      "target": 34962
    },
    {
      "buffer": 0,
      "byteLength": 2224,
      "byteOffset": 9784,
      "target": 34962
    },
    {
      "buffer": 0,
      "byteLength": 984,
      "byteOffset": 12008,
      "target": 34963
    },
    {
      "buffer": 0,
      "byteLength": 732,
      "byteOffset": 12992,
      "target": 34962
    },
    {
      "buffer": 0,
      "byteLength": 732,
      "byteOffset": 13724,
      "target": 34962
    },
    {
      "buffer": 0,
      "byteLength": 488,
      "byteOffset": 14456,
      "target": 34962
    },
    {
      "buffer": 0,
      "byteLength": 210,
      "byteOffset": 14944,
      "target": 34963
    }
  ],
  "buffers": [
    {
      "byteLength": 15156,
      "uri": "LogoHtml.bin"
    }
  ]
}
