{
  "asset": {
    "generator": "Khronos glTF Blender I/O v4.1.62",
    "version": "2.0"
  },
  "scene": 0,
  "scenes": [
    {
      "name": "Scene",
      "nodes": [0]
    }
  ],
  "nodes": [
    {
      "mesh": 0,
      "name": "LogoGoogleAnalytics"
    }
  ],
  "materials": [
    {
      "doubleSided": true,
      "name": "logo_google_analytics_#f9aa00",
      "pbrMetallicRoughness": {
        "baseColorFactor": [0.9473012685775757, 0.40197816491127014, 0, 1],
        "metallicFactor": 0
      }
    },
    {
      "doubleSided": true,
      "name": "logo_google_analytics_#e37401",
      "pbrMetallicRoughness": {
        "baseColorFactor": [0.7681471705436707, 0.17464762926101685, 0.0003035817644558847, 1],
        "metallicFactor": 0
      }
    }
  ],
  "meshes": [
    {
      "name": "LogoGoogleAnalytics",
      "primitives": [
        {
          "attributes": {
            "POSITION": 0,
            "NORMAL": 1
          },
          "indices": 2,
          "material": 0
        },
        {
          "attributes": {
            "POSITION": 3,
            "NORMAL": 4
          },
          "indices": 5,
          "material": 1
        }
      ]
    }
  ],
  "accessors": [
    {
      "bufferView": 0,
      "componentType": 5126,
      "count": 396,
      "max": [0.89000004529953, 1.0099999904632568, 0.20000001788139343],
      "min": [0.39000004529953003, -1.0099999904632568, -0.20000001788139343],
      "type": "VEC3"
    },
    {
      "bufferView": 1,
      "componentType": 5126,
      "count": 396,
      "type": "VEC3"
    },
    {
      "bufferView": 2,
      "componentType": 5123,
      "count": 780,
      "type": "SCALAR"
    },
    {
      "bufferView": 3,
      "componentType": 5126,
      "count": 780,
      "max": [0.2499999850988388, 0.25, 0.20000001788139343],
      "min": [-0.89000004529953, -1.0099999904632568, -0.20000001788139343],
      "type": "VEC3"
    },
    {
      "bufferView": 4,
      "componentType": 5126,
      "count": 780,
      "type": "VEC3"
    },
    {
      "bufferView": 5,
      "componentType": 5123,
      "count": 1536,
      "type": "SCALAR"
    }
  ],
  "bufferViews": [
    {
      "buffer": 0,
      "byteLength": 4752,
      "byteOffset": 0,
      "target": 34962
    },
    {
      "buffer": 0,
      "byteLength": 4752,
      "byteOffset": 4752,
      "target": 34962
    },
    {
      "buffer": 0,
      "byteLength": 1560,
      "byteOffset": 9504,
      "target": 34963
    },
    {
      "buffer": 0,
      "byteLength": 9360,
      "byteOffset": 11064,
      "target": 34962
    },
    {
      "buffer": 0,
      "byteLength": 9360,
      "byteOffset": 20424,
      "target": 34962
    },
    {
      "buffer": 0,
      "byteLength": 3072,
      "byteOffset": 29784,
      "target": 34963
    }
  ],
  "buffers": [
    {
      "byteLength": 32856,
      "uri": "LogoGoogleAnalytics.bin"
    }
  ]
}
