{
	"asset":{
		"generator":"Khronos glTF Blender I/O v4.0.44",
		"version":"2.0"
	},
	"scene":0,
	"scenes":[
		{
			"name":"Scene",
			"nodes":[
				0
			]
		}
	],
	"nodes":[
		{
			"mesh":0,
			"name":"LogoReactThreeDrei"
		}
	],
	"meshes":[
		{
			"name":"LogoReactThreeDrei",
			"primitives":[
				{
					"attributes":{
						"POSITION":0,
						"NORMAL":1,
						"TEXCOORD_0":2
					},
					"indices":3
				}
			]
		}
	],
	"accessors":[
		{
			"bufferView":0,
			"componentType":5126,
			"count":2450,
			"max":[
				2.862736463546753,
				0.9900125861167908,
				0.20000001788139343
			],
			"min":[
				-2.84214448928833,
				-0.9895875453948975,
				-0.20000003278255463
			],
			"type":"VEC3"
		},
		{
			"bufferView":1,
			"componentType":5126,
			"count":2450,
			"type":"VEC3"
		},
		{
			"bufferView":2,
			"componentType":5126,
			"count":2450,
			"type":"VEC2"
		},
		{
			"bufferView":3,
			"componentType":5123,
			"count":3816,
			"type":"SCALAR"
		}
	],
	"bufferViews":[
		{
			"buffer":0,
			"byteLength":29400,
			"byteOffset":0,
			"target":34962
		},
		{
			"buffer":0,
			"byteLength":29400,
			"byteOffset":29400,
			"target":34962
		},
		{
			"buffer":0,
			"byteLength":19600,
			"byteOffset":58800,
			"target":34962
		},
		{
			"buffer":0,
			"byteLength":7632,
			"byteOffset":78400,
			"target":34963
		}
	],
	"buffers":[
		{
			"byteLength":86032,
			"uri":"LogoReactThreeDrei.bin"
		}
	]
}
