{
  "asset": {
    "generator": "Khronos glTF Blender I/O v4.1.62",
    "version": "2.0"
  },
  "scene": 0,
  "scenes": [
    {
      "name": "Scene",
      "nodes": [0]
    }
  ],
  "nodes": [
    {
      "mesh": 0,
      "name": "LogoMui"
    }
  ],
  "materials": [
    {
      "doubleSided": true,
      "name": "logo_mui_#147dfe",
      "pbrMetallicRoughness": {
        "baseColorFactor": [
          0.006994578987360001, 0.20507864654064178, 0.9911024570465088, 1
        ],
        "metallicFactor": 0
      }
    }
  ],
  "meshes": [
    {
      "name": "LogoMui",
      "primitives": [
        {
          "attributes": {
            "POSITION": 0,
            "NORMAL": 1
          },
          "indices": 2,
          "material": 0
        }
      ]
    }
  ],
  "accessors": [
    {
      "bufferView": 0,
      "componentType": 5126,
      "count": 732,
      "max": [1.157334804534912, 1.0002059936523438, 0.20000006258487701],
      "min": [-1.1557115316390991, -0.9997953772544861, -0.20000006258487701],
      "type": "VEC3"
    },
    {
      "bufferView": 1,
      "componentType": 5126,
      "count": 732,
      "type": "VEC3"
    },
    {
      "bufferView": 2,
      "componentType": 5123,
      "count": 1440,
      "type": "SCALAR"
    }
  ],
  "bufferViews": [
    {
      "buffer": 0,
      "byteLength": 8784,
      "byteOffset": 0,
      "target": 34962
    },
    {
      "buffer": 0,
      "byteLength": 8784,
      "byteOffset": 8784,
      "target": 34962
    },
    {
      "buffer": 0,
      "byteLength": 2880,
      "byteOffset": 17568,
      "target": 34963
    }
  ],
  "buffers": [
    {
      "byteLength": 20448,
      "uri": "LogoMui.bin"
    }
  ]
}
