{
  "asset": {
    "generator": "Khronos glTF Blender I/O v4.1.62",
    "version": "2.0"
  },
  "scene": 0,
  "scenes": [
    {
      "name": "Scene",
      "nodes": [0, 1]
    }
  ],
  "nodes": [
    {
      "name": "tailwind-svgrepo-com.svg"
    },
    {
      "mesh": 0,
      "name": "LogoTailwind"
    }
  ],
  "materials": [
    {
      "doubleSided": true,
      "name": "logo_tailwind_#1cA4bc",
      "pbrMetallicRoughness": {
        "baseColorFactor": [0.01161155290901661, 0.3712380826473236, 0.5028865933418274, 1],
        "metallicFactor": 0
      }
    }
  ],
  "meshes": [
    {
      "name": "LogoTailwind",
      "primitives": [
        {
          "attributes": {
            "POSITION": 0,
            "NORMAL": 1,
            "TEXCOORD_0": 2
          },
          "indices": 3,
          "material": 0
        }
      ]
    }
  ],
  "accessors": [
    {
      "bufferView": 0,
      "componentType": 5126,
      "count": 912,
      "max": [1.6652891635894775, 1.000000238418579, 0.20000003278255463],
      "min": [-1.6670602560043335, -0.9999988079071045, -0.20000003278255463],
      "type": "VEC3"
    },
    {
      "bufferView": 1,
      "componentType": 5126,
      "count": 912,
      "type": "VEC3"
    },
    {
      "bufferView": 2,
      "componentType": 5126,
      "count": 912,
      "type": "VEC2"
    },
    {
      "bufferView": 3,
      "componentType": 5123,
      "count": 1800,
      "type": "SCALAR"
    }
  ],
  "bufferViews": [
    {
      "buffer": 0,
      "byteLength": 10944,
      "byteOffset": 0,
      "target": 34962
    },
    {
      "buffer": 0,
      "byteLength": 10944,
      "byteOffset": 10944,
      "target": 34962
    },
    {
      "buffer": 0,
      "byteLength": 7296,
      "byteOffset": 21888,
      "target": 34962
    },
    {
      "buffer": 0,
      "byteLength": 3600,
      "byteOffset": 29184,
      "target": 34963
    }
  ],
  "buffers": [
    {
      "byteLength": 32784,
      "uri": "LogoTailwind.bin"
    }
  ]
}
