{
  "asset": {
    "generator": "Khronos glTF Blender I/O v4.0.44",
    "version": "2.0"
  },
  "scene": 0,
  "scenes": [
    {
      "name": "Scene",
      "nodes": [0]
    }
  ],
  "nodes": [
    {
      "mesh": 0,
      "name": "LogoSass"
    }
  ],
  "meshes": [
    {
      "name": "LogoSass",
      "primitives": [
        {
          "attributes": {
            "POSITION": 0,
            "NORMAL": 1
          },
          "indices": 2
        }
      ]
    }
  ],
  "accessors": [
    {
      "bufferView": 0,
      "componentType": 5126,
      "count": 3906,
      "max": [1.3266383409500122, 1.0009698867797852, 0.20000064373016357],
      "min": [-1.3279205560684204, -0.9892206788063049, -0.20000000298023224],
      "type": "VEC3"
    },
    {
      "bufferView": 1,
      "componentType": 5126,
      "count": 3906,
      "type": "VEC3"
    },
    {
      "bufferView": 2,
      "componentType": 5123,
      "count": 7866,
      "type": "SCALAR"
    }
  ],
  "bufferViews": [
    {
      "buffer": 0,
      "byteLength": 46872,
      "byteOffset": 0,
      "target": 34962
    },
    {
      "buffer": 0,
      "byteLength": 46872,
      "byteOffset": 46872,
      "target": 34962
    },
    {
      "buffer": 0,
      "byteLength": 15732,
      "byteOffset": 93744,
      "target": 34963
    }
  ],
  "buffers": [
    {
      "byteLength": 109476,
      "uri": "LogoSass.bin"
    }
  ]
}
