{
  "asset": {
    "generator": "Khronos glTF Blender I/O v4.1.62",
    "version": "2.0"
  },
  "scene": 0,
  "scenes": [
    {
      "name": "Scene",
      "nodes": [0]
    }
  ],
  "nodes": [
    {
      "mesh": 0,
      "name": "LogoPostman"
    }
  ],
  "materials": [
    {
      "doubleSided": true,
      "name": "logo_postman_#000000",
      "pbrMetallicRoughness": {
        "baseColorFactor": [
          0.800000011920929, 0.800000011920929, 0.800000011920929, 1
        ],
        "metallicFactor": 0
      }
    },
    {
      "doubleSided": true,
      "name": "logo_postman_#fe6c37",
      "pbrMetallicRoughness": {
        "baseColorFactor": [
          0.991097092628479, 0.14995990693569183, 0.03820443153381348, 1
        ],
        "metallicFactor": 0
      }
    }
  ],
  "meshes": [
    {
      "name": "LogoPostman",
      "primitives": [
        {
          "attributes": {
            "POSITION": 0,
            "NORMAL": 1
          },
          "indices": 2,
          "material": 0
        },
        {
          "attributes": {
            "POSITION": 3,
            "NORMAL": 4
          },
          "indices": 5,
          "material": 1
        }
      ]
    }
  ],
  "accessors": [
    {
      "bufferView": 0,
      "componentType": 5126,
      "count": 960,
      "max": [0.6103643774986267, 0.6218593716621399, 0.20000003278255463],
      "min": [-0.5872095823287964, -0.560606837272644, 0.09999997913837433],
      "type": "VEC3"
    },
    {
      "bufferView": 1,
      "componentType": 5126,
      "count": 960,
      "type": "VEC3"
    },
    {
      "bufferView": 2,
      "componentType": 5123,
      "count": 1677,
      "type": "SCALAR"
    },
    {
      "bufferView": 3,
      "componentType": 5126,
      "count": 384,
      "max": [0.9999999403953552, 1, 0.1000000610947609],
      "min": [-0.9999999403953552, -1, -0.20000006258487701],
      "type": "VEC3"
    },
    {
      "bufferView": 4,
      "componentType": 5126,
      "count": 384,
      "type": "VEC3"
    },
    {
      "bufferView": 5,
      "componentType": 5123,
      "count": 756,
      "type": "SCALAR"
    }
  ],
  "bufferViews": [
    {
      "buffer": 0,
      "byteLength": 11520,
      "byteOffset": 0,
      "target": 34962
    },
    {
      "buffer": 0,
      "byteLength": 11520,
      "byteOffset": 11520,
      "target": 34962
    },
    {
      "buffer": 0,
      "byteLength": 3354,
      "byteOffset": 23040,
      "target": 34963
    },
    {
      "buffer": 0,
      "byteLength": 4608,
      "byteOffset": 26396,
      "target": 34962
    },
    {
      "buffer": 0,
      "byteLength": 4608,
      "byteOffset": 31004,
      "target": 34962
    },
    {
      "buffer": 0,
      "byteLength": 1512,
      "byteOffset": 35612,
      "target": 34963
    }
  ],
  "buffers": [
    {
      "byteLength": 37124,
      "uri": "LogoPostman.bin"
    }
  ]
}
