{
  "asset": {
    "generator": "Khronos glTF Blender I/O v4.1.62",
    "version": "2.0"
  },
  "scene": 0,
  "scenes": [
    {
      "name": "Scene",
      "nodes": [0]
    }
  ],
  "nodes": [
    {
      "mesh": 0,
      "name": "LogoNextjs"
    }
  ],
  "materials": [
    {
      "doubleSided": true,
      "name": "logo_nextjs_simple_#000000",
      "pbrMetallicRoughness": {
        "baseColorFactor": [0, 0, 0, 1],
        "metallicFactor": 0
      }
    },
    {
      "doubleSided": true,
      "name": "logo_nextjs_simple_#ffffff",
      "pbrMetallicRoughness": {
        "metallicFactor": 0
      }
    }
  ],
  "meshes": [
    {
      "name": "LogoNextjs",
      "primitives": [
        {
          "attributes": {
            "POSITION": 0,
            "NORMAL": 1,
            "TEXCOORD_0": 2
          },
          "indices": 3,
          "material": 0
        },
        {
          "attributes": {
            "POSITION": 4,
            "NORMAL": 5,
            "TEXCOORD_0": 6
          },
          "indices": 7,
          "material": 1
        }
      ]
    }
  ],
  "accessors": [
    {
      "bufferView": 0,
      "componentType": 5126,
      "count": 256,
      "max": [0.9999999403953552, 0.9999999403953552, 0.10000023990869522],
      "min": [-0.9999999403953552, -1, -0.20000025629997253],
      "type": "VEC3"
    },
    {
      "bufferView": 1,
      "componentType": 5126,
      "count": 256,
      "type": "VEC3"
    },
    {
      "bufferView": 2,
      "componentType": 5126,
      "count": 256,
      "type": "VEC2"
    },
    {
      "bufferView": 3,
      "componentType": 5123,
      "count": 756,
      "type": "SCALAR"
    },
    {
      "bufferView": 4,
      "componentType": 5126,
      "count": 337,
      "max": [0.5412793159484863, 0.3986559510231018, 0.20000004768371582],
      "min": [-0.37600773572921753, -0.8796659708023071, 0.09999998658895493],
      "type": "VEC3"
    },
    {
      "bufferView": 5,
      "componentType": 5126,
      "count": 337,
      "type": "VEC3"
    },
    {
      "bufferView": 6,
      "componentType": 5126,
      "count": 337,
      "type": "VEC2"
    },
    {
      "bufferView": 7,
      "componentType": 5123,
      "count": 969,
      "type": "SCALAR"
    }
  ],
  "bufferViews": [
    {
      "buffer": 0,
      "byteLength": 3072,
      "byteOffset": 0,
      "target": 34962
    },
    {
      "buffer": 0,
      "byteLength": 3072,
      "byteOffset": 3072,
      "target": 34962
    },
    {
      "buffer": 0,
      "byteLength": 2048,
      "byteOffset": 6144,
      "target": 34962
    },
    {
      "buffer": 0,
      "byteLength": 1512,
      "byteOffset": 8192,
      "target": 34963
    },
    {
      "buffer": 0,
      "byteLength": 4044,
      "byteOffset": 9704,
      "target": 34962
    },
    {
      "buffer": 0,
      "byteLength": 4044,
      "byteOffset": 13748,
      "target": 34962
    },
    {
      "buffer": 0,
      "byteLength": 2696,
      "byteOffset": 17792,
      "target": 34962
    },
    {
      "buffer": 0,
      "byteLength": 1938,
      "byteOffset": 20488,
      "target": 34963
    }
  ],
  "buffers": [
    {
      "byteLength": 22428,
      "uri": "LogoNextjs.bin"
    }
  ]
}
