{
	"asset":{
		"generator":"Khronos glTF Blender I/O v4.0.44",
		"version":"2.0"
	},
	"scene":0,
	"scenes":[
		{
			"name":"Scene",
			"nodes":[
				0
			]
		}
	],
	"nodes":[
		{
			"mesh":0,
			"name":"LogoOpenclassrooms"
		}
	],
	"materials":[
		{
			"doubleSided":true,
			"name":"logo_openclassrooms_#7450ea",
			"pbrMetallicRoughness":{
				"baseColorFactor":[
					0.17467649281024933,
					0.08021604269742966,
					0.822726309299469,
					1
				],
				"metallicFactor":0
			}
		}
	],
	"meshes":[
		{
			"name":"LogoOpenclassrooms",
			"primitives":[
				{
					"attributes":{
						"POSITION":0,
						"NORMAL":1,
						"TEXCOORD_0":2
					},
					"indices":3,
					"material":0
				}
			]
		}
	],
	"accessors":[
		{
			"bufferView":0,
			"componentType":5126,
			"count":5394,
			"max":[
				13.991087913513184,
				1.031744360923767,
				0.2000000774860382
			],
			"min":[
				-13.545835494995117,
				-1.0163662433624268,
				-0.20000001788139343
			],
			"type":"VEC3"
		},
		{
			"bufferView":1,
			"componentType":5126,
			"count":5394,
			"type":"VEC3"
		},
		{
			"bufferView":2,
			"componentType":5126,
			"count":5394,
			"type":"VEC2"
		},
		{
			"bufferView":3,
			"componentType":5123,
			"count":10800,
			"type":"SCALAR"
		}
	],
	"bufferViews":[
		{
			"buffer":0,
			"byteLength":64728,
			"byteOffset":0,
			"target":34962
		},
		{
			"buffer":0,
			"byteLength":64728,
			"byteOffset":64728,
			"target":34962
		},
		{
			"buffer":0,
			"byteLength":43152,
			"byteOffset":129456,
			"target":34962
		},
		{
			"buffer":0,
			"byteLength":21600,
			"byteOffset":172608,
			"target":34963
		}
	],
	"buffers":[
		{
			"byteLength":194208,
			"uri":"LogoOpenclassrooms.bin"
		}
	]
}
