{
  "asset": {
    "generator": "Khronos glTF Blender I/O v4.0.44",
    "version": "2.0"
  },
  "scene": 0,
  "scenes": [
    {
      "name": "Scene",
      "nodes": [0]
    }
  ],
  "nodes": [
    {
      "mesh": 0,
      "name": "LogoABWerkt"
    }
  ],
  "meshes": [
    {
      "name": "LogoABWerkt",
      "primitives": [
        {
          "attributes": {
            "POSITION": 0,
            "NORMAL": 1,
            "TEXCOORD_0": 2
          },
          "indices": 3
        }
      ]
    }
  ],
  "accessors": [
    {
      "bufferView": 0,
      "componentType": 5126,
      "count": 2532,
      "max": [1.1516766548156738, 1.0018346309661865, 0.20000006258487701],
      "min": [-1.1216422319412231, -1, -0.20000000298023224],
      "type": "VEC3"
    },
    {
      "bufferView": 1,
      "componentType": 5126,
      "count": 2532,
      "type": "VEC3"
    },
    {
      "bufferView": 2,
      "componentType": 5126,
      "count": 2532,
      "type": "VEC2"
    },
    {
      "bufferView": 3,
      "componentType": 5123,
      "count": 5550,
      "type": "SCALAR"
    }
  ],
  "bufferViews": [
    {
      "buffer": 0,
      "byteLength": 30384,
      "byteOffset": 0,
      "target": 34962
    },
    {
      "buffer": 0,
      "byteLength": 30384,
      "byteOffset": 30384,
      "target": 34962
    },
    {
      "buffer": 0,
      "byteLength": 20256,
      "byteOffset": 60768,
      "target": 34962
    },
    {
      "buffer": 0,
      "byteLength": 11100,
      "byteOffset": 81024,
      "target": 34963
    }
  ],
  "buffers": [
    {
      "byteLength": 92124,
      "uri": "LogoABWerkt.bin"
    }
  ]
}
