{
  "asset": {
    "generator": "Khronos glTF Blender I/O v4.1.62",
    "version": "2.0"
  },
  "scene": 0,
  "scenes": [
    {
      "name": "Scene",
      "nodes": [0]
    }
  ],
  "nodes": [
    {
      "mesh": 0,
      "name": "LogoRedux"
    }
  ],
  "materials": [
    {
      "doubleSided": true,
      "name": "icon_redux_#764abc",
      "pbrMetallicRoughness": {
        "baseColorFactor": [0.18119458854198456, 0.06847501546144485, 0.5028499960899353, 1],
        "metallicFactor": 0,
        "roughnessFactor": 0.5
      }
    }
  ],
  "meshes": [
    {
      "name": "LogoRedux",
      "primitives": [
        {
          "attributes": {
            "POSITION": 0,
            "NORMAL": 1,
            "TEXCOORD_0": 2
          },
          "indices": 3,
          "material": 0
        }
      ]
    }
  ],
  "accessors": [
    {
      "bufferView": 0,
      "componentType": 5126,
      "count": 3378,
      "max": [1.0714640617370605, 1.000003457069397, 0.20000170171260834],
      "min": [-1.0714645385742188, -0.9999986886978149, -0.2000018209218979],
      "type": "VEC3"
    },
    {
      "bufferView": 1,
      "componentType": 5126,
      "count": 3378,
      "type": "VEC3"
    },
    {
      "bufferView": 2,
      "componentType": 5126,
      "count": 3378,
      "type": "VEC2"
    },
    {
      "bufferView": 3,
      "componentType": 5123,
      "count": 9882,
      "type": "SCALAR"
    }
  ],
  "bufferViews": [
    {
      "buffer": 0,
      "byteLength": 40536,
      "byteOffset": 0,
      "target": 34962
    },
    {
      "buffer": 0,
      "byteLength": 40536,
      "byteOffset": 40536,
      "target": 34962
    },
    {
      "buffer": 0,
      "byteLength": 27024,
      "byteOffset": 81072,
      "target": 34962
    },
    {
      "buffer": 0,
      "byteLength": 19764,
      "byteOffset": 108096,
      "target": 34963
    }
  ],
  "buffers": [
    {
      "byteLength": 127860,
      "uri": "LogoRedux.bin"
    }
  ]
}
