{
  "asset": {
    "generator": "Khronos glTF Blender I/O v4.1.62",
    "version": "2.0"
  },
  "scene": 0,
  "scenes": [
    {
      "name": "Scene",
      "nodes": [0]
    }
  ],
  "nodes": [
    {
      "mesh": 0,
      "name": "LogoABWerkt"
    }
  ],
  "materials": [
    {
      "doubleSided": true,
      "name": "logo_abwerkt_#e32017",
      "pbrMetallicRoughness": {
        "baseColorFactor": [
          0.768147349357605, 0.014443760737776756, 0.008568146266043186, 1
        ],
        "metallicFactor": 0
      }
    },
    {
      "doubleSided": true,
      "name": "logo_abwerkt_#b0c500",
      "pbrMetallicRoughness": {
        "baseColorFactor": [0.4341510832309723, 0.5583412051200867, 0, 1],
        "metallicFactor": 0,
        "roughnessFactor": 0.5
      }
    },
    {
      "doubleSided": true,
      "name": "logo_abwerkt_#036361",
      "pbrMetallicRoughness": {
        "baseColorFactor": [
          0.0009103940683417022, 0.12477193772792816, 0.11953850835561752, 1
        ],
        "metallicFactor": 0
      }
    }
  ],
  "meshes": [
    {
      "name": "LogoABWerkt",
      "primitives": [
        {
          "attributes": {
            "POSITION": 0,
            "NORMAL": 1,
            "TEXCOORD_0": 2
          },
          "indices": 3,
          "material": 0
        },
        {
          "attributes": {
            "POSITION": 4,
            "NORMAL": 5,
            "TEXCOORD_0": 6
          },
          "indices": 7,
          "material": 1
        },
        {
          "attributes": {
            "POSITION": 8,
            "NORMAL": 9,
            "TEXCOORD_0": 10
          },
          "indices": 11,
          "material": 2
        }
      ]
    }
  ],
  "accessors": [
    {
      "bufferView": 0,
      "componentType": 5126,
      "count": 225,
      "max": [0.21953260898590088, 1.0018346309661865, 0.20000006258487701],
      "min": [-1.115568995475769, -0.27839988470077515, -0.20000000298023224],
      "type": "VEC3"
    },
    {
      "bufferView": 1,
      "componentType": 5126,
      "count": 225,
      "type": "VEC3"
    },
    {
      "bufferView": 2,
      "componentType": 5126,
      "count": 225,
      "type": "VEC2"
    },
    {
      "bufferView": 3,
      "componentType": 5123,
      "count": 447,
      "type": "SCALAR"
    },
    {
      "bufferView": 4,
      "componentType": 5126,
      "count": 1313,
      "max": [1.1400740146636963, 1.0018346309661865, 0.20000006258487701],
      "min": [0.11039972305297852, -0.296688973903656, -0.20000000298023224],
      "type": "VEC3"
    },
    {
      "bufferView": 5,
      "componentType": 5126,
      "count": 1313,
      "type": "VEC3"
    },
    {
      "bufferView": 6,
      "componentType": 5126,
      "count": 1313,
      "type": "VEC2"
    },
    {
      "bufferView": 7,
      "componentType": 5123,
      "count": 2517,
      "type": "SCALAR"
    },
    {
      "bufferView": 8,
      "componentType": 5126,
      "count": 618,
      "max": [1.1516766548156738, -0.4239477515220642, 0.20000003278255463],
      "min": [-1.1216422319412231, -1, -0.20000000298023224],
      "type": "VEC3"
    },
    {
      "bufferView": 9,
      "componentType": 5126,
      "count": 618,
      "type": "VEC3"
    },
    {
      "bufferView": 10,
      "componentType": 5126,
      "count": 618,
      "type": "VEC2"
    },
    {
      "bufferView": 11,
      "componentType": 5123,
      "count": 1176,
      "type": "SCALAR"
    }
  ],
  "bufferViews": [
    {
      "buffer": 0,
      "byteLength": 2700,
      "byteOffset": 0,
      "target": 34962
    },
    {
      "buffer": 0,
      "byteLength": 2700,
      "byteOffset": 2700,
      "target": 34962
    },
    {
      "buffer": 0,
      "byteLength": 1800,
      "byteOffset": 5400,
      "target": 34962
    },
    {
      "buffer": 0,
      "byteLength": 894,
      "byteOffset": 7200,
      "target": 34963
    },
    {
      "buffer": 0,
      "byteLength": 15756,
      "byteOffset": 8096,
      "target": 34962
    },
    {
      "buffer": 0,
      "byteLength": 15756,
      "byteOffset": 23852,
      "target": 34962
    },
    {
      "buffer": 0,
      "byteLength": 10504,
      "byteOffset": 39608,
      "target": 34962
    },
    {
      "buffer": 0,
      "byteLength": 5034,
      "byteOffset": 50112,
      "target": 34963
    },
    {
      "buffer": 0,
      "byteLength": 7416,
      "byteOffset": 55148,
      "target": 34962
    },
    {
      "buffer": 0,
      "byteLength": 7416,
      "byteOffset": 62564,
      "target": 34962
    },
    {
      "buffer": 0,
      "byteLength": 4944,
      "byteOffset": 69980,
      "target": 34962
    },
    {
      "buffer": 0,
      "byteLength": 2352,
      "byteOffset": 74924,
      "target": 34963
    }
  ],
  "buffers": [
    {
      "byteLength": 77276,
      "uri": "LogoABWerkt.bin"
    }
  ]
}
