{
	"asset":{
		"generator":"Khronos glTF Blender I/O v4.0.44",
		"version":"2.0"
	},
	"scene":0,
	"scenes":[
		{
			"name":"Scene",
			"nodes":[
				0
			]
		}
	],
	"nodes":[
		{
			"mesh":0,
			"name":"LogoChatGpt"
		}
	],
	"meshes":[
		{
			"name":"LogoChatGpt",
			"primitives":[
				{
					"attributes":{
						"POSITION":0,
						"NORMAL":1,
						"TEXCOORD_0":2
					},
					"indices":3
				}
			]
		}
	],
	"accessors":[
		{
			"bufferView":0,
			"componentType":5126,
			"count":5894,
			"max":[
				1.0886377096176147,
				0.9955915212631226,
				0.19999969005584717
			],
			"min":[
				-1.0840243101119995,
				-1.0041407346725464,
				-0.199998676776886
			],
			"type":"VEC3"
		},
		{
			"bufferView":1,
			"componentType":5126,
			"count":5894,
			"type":"VEC3"
		},
		{
			"bufferView":2,
			"componentType":5126,
			"count":5894,
			"type":"VEC2"
		},
		{
			"bufferView":3,
			"componentType":5123,
			"count":13176,
			"type":"SCALAR"
		}
	],
	"bufferViews":[
		{
			"buffer":0,
			"byteLength":70728,
			"byteOffset":0,
			"target":34962
		},
		{
			"buffer":0,
			"byteLength":70728,
			"byteOffset":70728,
			"target":34962
		},
		{
			"buffer":0,
			"byteLength":47152,
			"byteOffset":141456,
			"target":34962
		},
		{
			"buffer":0,
			"byteLength":26352,
			"byteOffset":188608,
			"target":34963
		}
	],
	"buffers":[
		{
			"byteLength":214960,
			"uri":"LogoChatGpt.bin"
		}
	]
}
