{
  "asset": {
    "generator": "Khronos glTF Blender I/O v4.1.62",
    "version": "2.0"
  },
  "scene": 0,
  "scenes": [
    {
      "name": "Scene",
      "nodes": [0]
    }
  ],
  "nodes": [
    {
      "mesh": 0,
      "name": "LogoLento"
    }
  ],
  "materials": [
    {
      "doubleSided": true,
      "name": "logo_lento_#303435",
      "pbrMetallicRoughness": {
        "baseColorFactor": [0.0295566413551569, 0.034339845180511475, 0.03560134023427963, 1],
        "metallicFactor": 0
      }
    },
    {
      "doubleSided": true,
      "name": "logo_lento_#eab39b",
      "pbrMetallicRoughness": {
        "baseColorFactor": [0.8227812051773071, 0.4507862627506256, 0.32777827978134155, 1],
        "metallicFactor": 0
      }
    }
  ],
  "meshes": [
    {
      "name": "LogoLento",
      "primitives": [
        {
          "attributes": {
            "POSITION": 0,
            "NORMAL": 1,
            "TEXCOORD_0": 2
          },
          "indices": 3,
          "material": 0
        },
        {
          "attributes": {
            "POSITION": 4,
            "NORMAL": 5,
            "TEXCOORD_0": 6
          },
          "indices": 7,
          "material": 1
        }
      ]
    }
  ],
  "accessors": [
    {
      "bufferView": 0,
      "componentType": 5126,
      "count": 4434,
      "max": [0.7759370803833008, 1.0000029802322388, 0.20000004768371582],
      "min": [-0.7930662631988525, -1.0000001192092896, -0.20000094175338745],
      "type": "VEC3"
    },
    {
      "bufferView": 1,
      "componentType": 5126,
      "count": 4434,
      "type": "VEC3"
    },
    {
      "bufferView": 2,
      "componentType": 5126,
      "count": 4434,
      "type": "VEC2"
    },
    {
      "bufferView": 3,
      "componentType": 5123,
      "count": 9276,
      "type": "SCALAR"
    },
    {
      "bufferView": 4,
      "componentType": 5126,
      "count": 786,
      "max": [0.1637655645608902, 0.590528666973114, 0.20000004768371582],
      "min": [-0.387556254863739, -0.990342378616333, -0.20000094175338745],
      "type": "VEC3"
    },
    {
      "bufferView": 5,
      "componentType": 5126,
      "count": 786,
      "type": "VEC3"
    },
    {
      "bufferView": 6,
      "componentType": 5126,
      "count": 786,
      "type": "VEC2"
    },
    {
      "bufferView": 7,
      "componentType": 5123,
      "count": 1464,
      "type": "SCALAR"
    }
  ],
  "bufferViews": [
    {
      "buffer": 0,
      "byteLength": 53208,
      "byteOffset": 0,
      "target": 34962
    },
    {
      "buffer": 0,
      "byteLength": 53208,
      "byteOffset": 53208,
      "target": 34962
    },
    {
      "buffer": 0,
      "byteLength": 35472,
      "byteOffset": 106416,
      "target": 34962
    },
    {
      "buffer": 0,
      "byteLength": 18552,
      "byteOffset": 141888,
      "target": 34963
    },
    {
      "buffer": 0,
      "byteLength": 9432,
      "byteOffset": 160440,
      "target": 34962
    },
    {
      "buffer": 0,
      "byteLength": 9432,
      "byteOffset": 169872,
      "target": 34962
    },
    {
      "buffer": 0,
      "byteLength": 6288,
      "byteOffset": 179304,
      "target": 34962
    },
    {
      "buffer": 0,
      "byteLength": 2928,
      "byteOffset": 185592,
      "target": 34963
    }
  ],
  "buffers": [
    {
      "byteLength": 188520,
      "uri": "LogoLento.bin"
    }
  ]
}
