{
  "asset": {
    "generator": "Khronos glTF Blender I/O v4.1.62",
    "version": "2.0"
  },
  "scene": 0,
  "scenes": [
    {
      "name": "Scene",
      "nodes": [0]
    }
  ],
  "nodes": [
    {
      "mesh": 0,
      "name": "LogoAws",
      "scale": [1.5872999429702759, 1.5872999429702759, 1.5872999429702759]
    }
  ],
  "materials": [
    {
      "doubleSided": true,
      "name": "logo_aws_#252f3e",
      "pbrMetallicRoughness": {
        "baseColorFactor": [0.0185000728815794, 0.02842606045305729, 0.04817185178399086, 1],
        "metallicFactor": 0
      }
    },
    {
      "doubleSided": true,
      "name": "logo_aws_#ff9900",
      "pbrMetallicRoughness": {
        "baseColorFactor": [1, 0.31854715943336487, 0, 1],
        "metallicFactor": 0
      }
    }
  ],
  "meshes": [
    {
      "name": "LogoAws",
      "primitives": [
        {
          "attributes": {
            "POSITION": 0,
            "NORMAL": 1
          },
          "indices": 2,
          "material": 0
        },
        {
          "attributes": {
            "POSITION": 3,
            "NORMAL": 4
          },
          "indices": 5,
          "material": 1
        }
      ]
    }
  ],
  "accessors": [
    {
      "bufferView": 0,
      "componentType": 5126,
      "count": 3608,
      "max": [0.9664655327796936, 0.6299858093261719, 0.12600159645080566],
      "min": [-0.9665424227714539, -0.028736114501953125, -0.12600162625312805],
      "type": "VEC3"
    },
    {
      "bufferView": 1,
      "componentType": 5126,
      "count": 3608,
      "type": "VEC3"
    },
    {
      "bufferView": 2,
      "componentType": 5123,
      "count": 7200,
      "type": "SCALAR"
    },
    {
      "bufferView": 3,
      "componentType": 5126,
      "count": 732,
      "max": [1.0535387992858887, -0.15591396391391754, 0.12600162625312805],
      "min": [-1.053580403327942, -0.6300192475318909, -0.12600159645080566],
      "type": "VEC3"
    },
    {
      "bufferView": 4,
      "componentType": 5126,
      "count": 732,
      "type": "VEC3"
    },
    {
      "bufferView": 5,
      "componentType": 5123,
      "count": 1440,
      "type": "SCALAR"
    }
  ],
  "bufferViews": [
    {
      "buffer": 0,
      "byteLength": 43296,
      "byteOffset": 0,
      "target": 34962
    },
    {
      "buffer": 0,
      "byteLength": 43296,
      "byteOffset": 43296,
      "target": 34962
    },
    {
      "buffer": 0,
      "byteLength": 14400,
      "byteOffset": 86592,
      "target": 34963
    },
    {
      "buffer": 0,
      "byteLength": 8784,
      "byteOffset": 100992,
      "target": 34962
    },
    {
      "buffer": 0,
      "byteLength": 8784,
      "byteOffset": 109776,
      "target": 34962
    },
    {
      "buffer": 0,
      "byteLength": 2880,
      "byteOffset": 118560,
      "target": 34963
    }
  ],
  "buffers": [
    {
      "byteLength": 121440,
      "uri": "LogoAws.bin"
    }
  ]
}
