{
  "asset": {
    "generator": "Khronos glTF Blender I/O v4.1.62",
    "version": "2.0"
  },
  "scene": 0,
  "scenes": [
    {
      "name": "Scene",
      "nodes": [0]
    }
  ],
  "nodes": [
    {
      "mesh": 0,
      "name": "LogoNginx"
    }
  ],
  "materials": [
    {
      "doubleSided": true,
      "name": "logo_nginx_#0a974d",
      "pbrMetallicRoughness": {
        "baseColorFactor": [0.0030349413864314556, 0.30946940183639526, 0.07421363890171051, 1],
        "metallicFactor": 0
      }
    }
  ],
  "meshes": [
    {
      "name": "LogoNginx",
      "primitives": [
        {
          "attributes": {
            "POSITION": 0,
            "NORMAL": 1
          },
          "indices": 2,
          "material": 0
        }
      ]
    }
  ],
  "accessors": [
    {
      "bufferView": 0,
      "componentType": 5126,
      "count": 130190,
      "max": [4.727633953094482, 1.0401129722595215, 0.19993330538272858],
      "min": [-4.703442573547363, -0.9598867893218994, -0.200066938996315],
      "type": "VEC3"
    },
    {
      "bufferView": 1,
      "componentType": 5126,
      "count": 130190,
      "type": "VEC3"
    },
    {
      "bufferView": 2,
      "componentType": 5125,
      "count": 292800,
      "type": "SCALAR"
    }
  ],
  "bufferViews": [
    {
      "buffer": 0,
      "byteLength": 1562280,
      "byteOffset": 0,
      "target": 34962
    },
    {
      "buffer": 0,
      "byteLength": 1562280,
      "byteOffset": 1562280,
      "target": 34962
    },
    {
      "buffer": 0,
      "byteLength": 1171200,
      "byteOffset": 3124560,
      "target": 34963
    }
  ],
  "buffers": [
    {
      "byteLength": 4295760,
      "uri": "LogoNginx.bin"
    }
  ]
}
