{
  "asset": {
    "generator": "Khronos glTF Blender I/O v4.1.62",
    "version": "2.0"
  },
  "scene": 0,
  "scenes": [
    {
      "name": "Scene",
      "nodes": [0]
    }
  ],
  "nodes": [
    {
      "mesh": 0,
      "name": "LogoFigma"
    }
  ],
  "materials": [
    {
      "doubleSided": true,
      "name": "logo_figma_#f24d1d",
      "pbrMetallicRoughness": {
        "baseColorFactor": [0.8880735635757446, 0.07421021908521652, 0.012285638600587845, 1],
        "metallicFactor": 0
      }
    },
    {
      "doubleSided": true,
      "name": "logo_figma_#ff7162",
      "pbrMetallicRoughness": {
        "baseColorFactor": [1, 0.16512487828731537, 0.12212999910116196, 1],
        "metallicFactor": 0
      }
    },
    {
      "doubleSided": true,
      "name": "logo_figma_#19bcfe",
      "pbrMetallicRoughness": {
        "baseColorFactor": [0.009721769951283932, 0.5028643012046814, 0.9910305142402649, 1],
        "metallicFactor": 0
      }
    },
    {
      "doubleSided": true,
      "name": "logo_figma_#a259ff",
      "pbrMetallicRoughness": {
        "baseColorFactor": [0.3613673448562622, 0.09989400207996368, 0.9999274015426636, 1],
        "metallicFactor": 0
      }
    },
    {
      "doubleSided": true,
      "name": "logo_figma_#0dcf82",
      "pbrMetallicRoughness": {
        "baseColorFactor": [0.004024668131023645, 0.6239334940910339, 0.22321194410324097, 1],
        "metallicFactor": 0
      }
    }
  ],
  "meshes": [
    {
      "name": "LogoFigma",
      "primitives": [
        {
          "attributes": {
            "POSITION": 0
          },
          "indices": 1,
          "material": 0
        },
        {
          "attributes": {
            "POSITION": 2
          },
          "indices": 3,
          "material": 1
        },
        {
          "attributes": {
            "POSITION": 4
          },
          "indices": 5,
          "material": 2
        },
        {
          "attributes": {
            "POSITION": 6
          },
          "indices": 7,
          "material": 3
        },
        {
          "attributes": {
            "POSITION": 8
          },
          "indices": 9,
          "material": 4
        }
      ]
    }
  ],
  "accessors": [
    {
      "bufferView": 0,
      "componentType": 5126,
      "count": 75,
      "max": [0, 0.9995098114013672, 0.20012196898460388],
      "min": [-0.6665033102035522, -0.33510148525238037, -0.19987812638282776],
      "type": "VEC3"
    },
    {
      "bufferView": 1,
      "componentType": 5123,
      "count": 309,
      "type": "SCALAR"
    },
    {
      "bufferView": 2,
      "componentType": 5126,
      "count": 70,
      "max": [0.6665033102035522, 0.9995098114013672, 0.20012196898460388],
      "min": [0, 0.3330066204071045, -0.19987809658050537],
      "type": "VEC3"
    },
    {
      "bufferView": 3,
      "componentType": 5123,
      "count": 303,
      "type": "SCALAR"
    },
    {
      "bufferView": 4,
      "componentType": 5126,
      "count": 128,
      "max": [0.6665033102035522, 0.3330066204071045, 0.19971247017383575],
      "min": [0, -0.33349668979644775, -0.2002876251935959],
      "type": "VEC3"
    },
    {
      "bufferView": 5,
      "componentType": 5123,
      "count": 570,
      "type": "SCALAR"
    },
    {
      "bufferView": 6,
      "componentType": 5126,
      "count": 73,
      "max": [0, 0.3330066204071045, 0.2001219540834427],
      "min": [-0.6665033102035522, -0.33349668979644775, -0.19987812638282776],
      "type": "VEC3"
    },
    {
      "bufferView": 7,
      "componentType": 5123,
      "count": 306,
      "type": "SCALAR"
    },
    {
      "bufferView": 8,
      "componentType": 5126,
      "count": 101,
      "max": [0, -0.33349668979644775, 0.2001219242811203],
      "min": [-0.6665033102035522, -1, -0.19987814128398895],
      "type": "VEC3"
    },
    {
      "bufferView": 9,
      "componentType": 5123,
      "count": 438,
      "type": "SCALAR"
    }
  ],
  "bufferViews": [
    {
      "buffer": 0,
      "byteLength": 900,
      "byteOffset": 0,
      "target": 34962
    },
    {
      "buffer": 0,
      "byteLength": 618,
      "byteOffset": 900,
      "target": 34963
    },
    {
      "buffer": 0,
      "byteLength": 840,
      "byteOffset": 1520,
      "target": 34962
    },
    {
      "buffer": 0,
      "byteLength": 606,
      "byteOffset": 2360,
      "target": 34963
    },
    {
      "buffer": 0,
      "byteLength": 1536,
      "byteOffset": 2968,
      "target": 34962
    },
    {
      "buffer": 0,
      "byteLength": 1140,
      "byteOffset": 4504,
      "target": 34963
    },
    {
      "buffer": 0,
      "byteLength": 876,
      "byteOffset": 5644,
      "target": 34962
    },
    {
      "buffer": 0,
      "byteLength": 612,
      "byteOffset": 6520,
      "target": 34963
    },
    {
      "buffer": 0,
      "byteLength": 1212,
      "byteOffset": 7132,
      "target": 34962
    },
    {
      "buffer": 0,
      "byteLength": 876,
      "byteOffset": 8344,
      "target": 34963
    }
  ],
  "buffers": [
    {
      "byteLength": 9220,
      "uri": "LogoFigma.bin"
    }
  ]
}
