{
  "asset": {
    "generator": "Khronos glTF Blender I/O v4.1.62",
    "version": "2.0"
  },
  "extensionsUsed": ["KHR_materials_specular", "KHR_materials_ior"],
  "scene": 0,
  "scenes": [
    {
      "name": "Scene",
      "nodes": [0]
    }
  ],
  "nodes": [
    {
      "mesh": 0,
      "name": "LogoIllustrator"
    }
  ],
  "materials": [
    {
      "doubleSided": true,
      "name": "icon_illustrator_#320000",
      "pbrMetallicRoughness": {
        "baseColorFactor": [0.03190144896507263, 0, 0, 1],
        "metallicFactor": 0
      }
    },
    {
      "doubleSided": true,
      "extensions": {
        "KHR_materials_specular": {
          "specularFactor": 0
        },
        "KHR_materials_ior": {
          "ior": 1.4500000476837158
        }
      },
      "name": "icon_illustrator_#f89a01",
      "pbrMetallicRoughness": {
        "baseColorFactor": [0.9386860132217407, 0.32314324378967285, 0.00030355527997016907, 1],
        "metallicFactor": 0
      }
    }
  ],
  "meshes": [
    {
      "name": "LogoIllustrator",
      "primitives": [
        {
          "attributes": {
            "POSITION": 0,
            "NORMAL": 1,
            "TEXCOORD_0": 2
          },
          "indices": 3,
          "material": 0
        },
        {
          "attributes": {
            "POSITION": 4,
            "NORMAL": 5,
            "TEXCOORD_0": 6
          },
          "indices": 7,
          "material": 1
        }
      ]
    }
  ],
  "accessors": [
    {
      "bufferView": 0,
      "componentType": 5126,
      "count": 264,
      "max": [1, 1, 0.09999996423721313],
      "min": [-1, -1, -0.19999998807907104],
      "type": "VEC3"
    },
    {
      "bufferView": 1,
      "componentType": 5126,
      "count": 264,
      "type": "VEC3"
    },
    {
      "bufferView": 2,
      "componentType": 5126,
      "count": 264,
      "type": "VEC2"
    },
    {
      "bufferView": 3,
      "componentType": 5123,
      "count": 516,
      "type": "SCALAR"
    },
    {
      "bufferView": 4,
      "componentType": 5126,
      "count": 271,
      "max": [0.5279998779296875, 0.5499999523162842, 0.19999980926513672],
      "min": [-0.6000003218650818, -0.408000111579895, 0.09999984502792358],
      "type": "VEC3"
    },
    {
      "bufferView": 5,
      "componentType": 5126,
      "count": 271,
      "type": "VEC3"
    },
    {
      "bufferView": 6,
      "componentType": 5126,
      "count": 271,
      "type": "VEC2"
    },
    {
      "bufferView": 7,
      "componentType": 5123,
      "count": 507,
      "type": "SCALAR"
    }
  ],
  "bufferViews": [
    {
      "buffer": 0,
      "byteLength": 3168,
      "byteOffset": 0,
      "target": 34962
    },
    {
      "buffer": 0,
      "byteLength": 3168,
      "byteOffset": 3168,
      "target": 34962
    },
    {
      "buffer": 0,
      "byteLength": 2112,
      "byteOffset": 6336,
      "target": 34962
    },
    {
      "buffer": 0,
      "byteLength": 1032,
      "byteOffset": 8448,
      "target": 34963
    },
    {
      "buffer": 0,
      "byteLength": 3252,
      "byteOffset": 9480,
      "target": 34962
    },
    {
      "buffer": 0,
      "byteLength": 3252,
      "byteOffset": 12732,
      "target": 34962
    },
    {
      "buffer": 0,
      "byteLength": 2168,
      "byteOffset": 15984,
      "target": 34962
    },
    {
      "buffer": 0,
      "byteLength": 1014,
      "byteOffset": 18152,
      "target": 34963
    }
  ],
  "buffers": [
    {
      "byteLength": 19168,
      "uri": "LogoIllustrator.bin"
    }
  ]
}
