{
  "asset": {
    "generator": "Khronos glTF Blender I/O v4.0.44",
    "version": "2.0"
  },
  "scene": 0,
  "scenes": [
    {
      "name": "Scene",
      "nodes": [0]
    }
  ],
  "nodes": [
    {
      "mesh": 0,
      "name": "LogoPonthus"
    }
  ],
  "materials": [
    {
      "doubleSided": true,
      "name": "logo_ponthus_#2b2460",
      "pbrMetallicRoughness": {
        "baseColorFactor": [
          0.02416163496673107, 0.01764114573597908, 0.11696220934391022, 1
        ],
        "metallicFactor": 0
      }
    }
  ],
  "meshes": [
    {
      "name": "LogoPonthus",
      "primitives": [
        {
          "attributes": {
            "POSITION": 0,
            "NORMAL": 1
          },
          "indices": 2,
          "material": 0
        }
      ]
    }
  ],
  "accessors": [
    {
      "bufferView": 0,
      "componentType": 5126,
      "count": 3846,
      "max": [1.388084888458252, 1.002615213394165, 0.20000001788139343],
      "min": [-1.377662181854248, -0.9976932406425476, -0.20000001788139343],
      "type": "VEC3"
    },
    {
      "bufferView": 1,
      "componentType": 5126,
      "count": 3846,
      "type": "VEC3"
    },
    {
      "bufferView": 2,
      "componentType": 5123,
      "count": 7782,
      "type": "SCALAR"
    }
  ],
  "bufferViews": [
    {
      "buffer": 0,
      "byteLength": 46152,
      "byteOffset": 0,
      "target": 34962
    },
    {
      "buffer": 0,
      "byteLength": 46152,
      "byteOffset": 46152,
      "target": 34962
    },
    {
      "buffer": 0,
      "byteLength": 15564,
      "byteOffset": 92304,
      "target": 34963
    }
  ],
  "buffers": [
    {
      "byteLength": 107868,
      "uri": "LogoPonthus.bin"
    }
  ]
}
