{
  "asset": {
    "generator": "Khronos glTF Blender I/O v4.1.62",
    "version": "2.0"
  },
  "scene": 0,
  "scenes": [
    {
      "name": "Scene",
      "nodes": [0]
    }
  ],
  "nodes": [
    {
      "mesh": 0,
      "name": "LogoMoco2"
    }
  ],
  "meshes": [
    {
      "name": "LogoMoco2",
      "primitives": [
        {
          "attributes": {
            "POSITION": 0,
            "NORMAL": 1,
            "TEXCOORD_0": 2
          },
          "indices": 3
        }
      ]
    }
  ],
  "accessors": [
    {
      "bufferView": 0,
      "componentType": 5126,
      "count": 55811,
      "max": [1.109991192817688, 0.9899411201477051, 0.7268087267875671],
      "min": [-1.1345844268798828, -0.9737064838409424, -0.6629400849342346],
      "type": "VEC3"
    },
    {
      "bufferView": 1,
      "componentType": 5126,
      "count": 55811,
      "type": "VEC3"
    },
    {
      "bufferView": 2,
      "componentType": 5126,
      "count": 55811,
      "type": "VEC2"
    },
    {
      "bufferView": 3,
      "componentType": 5123,
      "count": 319674,
      "type": "SCALAR"
    }
  ],
  "bufferViews": [
    {
      "buffer": 0,
      "byteLength": 669732,
      "byteOffset": 0,
      "target": 34962
    },
    {
      "buffer": 0,
      "byteLength": 669732,
      "byteOffset": 669732,
      "target": 34962
    },
    {
      "buffer": 0,
      "byteLength": 446488,
      "byteOffset": 1339464,
      "target": 34962
    },
    {
      "buffer": 0,
      "byteLength": 639348,
      "byteOffset": 1785952,
      "target": 34963
    }
  ],
  "buffers": [
    {
      "byteLength": 2425300,
      "uri": "LogoMoco2.bin"
    }
  ]
}
