{
	"asset":{
		"generator":"Khronos glTF Blender I/O v4.0.44",
		"version":"2.0"
	},
	"scene":0,
	"scenes":[
		{
			"name":"Scene",
			"nodes":[
				0
			]
		}
	],
	"nodes":[
		{
			"mesh":0,
			"name":"IconPhotoshop"
		}
	],
	"meshes":[
		{
			"name":"IconPhotoshop",
			"primitives":[
				{
					"attributes":{
						"POSITION":0,
						"NORMAL":1,
						"TEXCOORD_0":2
					},
					"indices":3
				},
				{
					"attributes":{
						"POSITION":4,
						"NORMAL":5,
						"TEXCOORD_0":6
					},
					"indices":7
				}
			]
		}
	],
	"accessors":[
		{
			"bufferView":0,
			"componentType":5126,
			"count":144,
			"max":[
				1,
				1,
				0.10000008344650269
			],
			"min":[
				-1,
				-1,
				-0.20000000298023224
			],
			"type":"VEC3"
		},
		{
			"bufferView":1,
			"componentType":5126,
			"count":144,
			"type":"VEC3"
		},
		{
			"bufferView":2,
			"componentType":5126,
			"count":144,
			"type":"VEC2"
		},
		{
			"bufferView":3,
			"componentType":5123,
			"count":276,
			"type":"SCALAR"
		},
		{
			"bufferView":4,
			"componentType":5126,
			"count":415,
			"max":[
				0.6620892286300659,
				0.4800003170967102,
				0.2000008225440979
			],
			"min":[
				-0.5640745162963867,
				-0.42543721199035645,
				0.10000008344650269
			],
			"type":"VEC3"
		},
		{
			"bufferView":5,
			"componentType":5126,
			"count":415,
			"type":"VEC3"
		},
		{
			"bufferView":6,
			"componentType":5126,
			"count":415,
			"type":"VEC2"
		},
		{
			"bufferView":7,
			"componentType":5123,
			"count":741,
			"type":"SCALAR"
		}
	],
	"bufferViews":[
		{
			"buffer":0,
			"byteLength":1728,
			"byteOffset":0,
			"target":34962
		},
		{
			"buffer":0,
			"byteLength":1728,
			"byteOffset":1728,
			"target":34962
		},
		{
			"buffer":0,
			"byteLength":1152,
			"byteOffset":3456,
			"target":34962
		},
		{
			"buffer":0,
			"byteLength":552,
			"byteOffset":4608,
			"target":34963
		},
		{
			"buffer":0,
			"byteLength":4980,
			"byteOffset":5160,
			"target":34962
		},
		{
			"buffer":0,
			"byteLength":4980,
			"byteOffset":10140,
			"target":34962
		},
		{
			"buffer":0,
			"byteLength":3320,
			"byteOffset":15120,
			"target":34962
		},
		{
			"buffer":0,
			"byteLength":1482,
			"byteOffset":18440,
			"target":34963
		}
	],
	"buffers":[
		{
			"byteLength":19924,
			"uri":"LogoPhotoshopColored.bin"
		}
	]
}
