{
	"asset":{
		"generator":"Khronos glTF Blender I/O v4.0.44",
		"version":"2.0"
	},
	"scene":0,
	"scenes":[
		{
			"name":"Scene",
			"nodes":[
				0
			]
		}
	],
	"nodes":[
		{
			"mesh":0,
			"name":"LogoTypescript"
		}
	],
	"materials":[
		{
			"doubleSided":true,
			"name":"logo_typescript_#ffffff",
			"pbrMetallicRoughness":{
				"metallicFactor":0
			}
		},
		{
			"doubleSided":true,
			"name":"logo_typescript_#3178c6",
			"pbrMetallicRoughness":{
				"baseColorFactor":[
					0.030713438987731934,
					0.18782085180282593,
					0.5647117495536804,
					1
				],
				"metallicFactor":0
			}
		}
	],
	"meshes":[
		{
			"name":"LogoTypescript",
			"primitives":[
				{
					"attributes":{
						"POSITION":0,
						"NORMAL":1,
						"TEXCOORD_0":2
					},
					"indices":3,
					"material":0
				},
				{
					"attributes":{
						"POSITION":4,
						"NORMAL":5,
						"TEXCOORD_0":6
					},
					"indices":7,
					"material":1
				}
			]
		}
	],
	"accessors":[
		{
			"bufferView":0,
			"componentType":5126,
			"count":479,
			"max":[
				0.8361598253250122,
				0.07211780548095703,
				0.20000003278255463
			],
			"min":[
				-0.5411521196365356,
				-0.8368905782699585,
				0.09999967366456985
			],
			"type":"VEC3"
		},
		{
			"bufferView":1,
			"componentType":5126,
			"count":479,
			"type":"VEC3"
		},
		{
			"bufferView":2,
			"componentType":5126,
			"count":479,
			"type":"VEC2"
		},
		{
			"bufferView":3,
			"componentType":5123,
			"count":849,
			"type":"SCALAR"
		},
		{
			"bufferView":4,
			"componentType":5126,
			"count":144,
			"max":[
				0.9999996423721313,
				0.9999995231628418,
				0.09999985992908478
			],
			"min":[
				-1,
				-1,
				-0.19999995827674866
			],
			"type":"VEC3"
		},
		{
			"bufferView":5,
			"componentType":5126,
			"count":144,
			"type":"VEC3"
		},
		{
			"bufferView":6,
			"componentType":5126,
			"count":144,
			"type":"VEC2"
		},
		{
			"bufferView":7,
			"componentType":5123,
			"count":276,
			"type":"SCALAR"
		}
	],
	"bufferViews":[
		{
			"buffer":0,
			"byteLength":5748,
			"byteOffset":0,
			"target":34962
		},
		{
			"buffer":0,
			"byteLength":5748,
			"byteOffset":5748,
			"target":34962
		},
		{
			"buffer":0,
			"byteLength":3832,
			"byteOffset":11496,
			"target":34962
		},
		{
			"buffer":0,
			"byteLength":1698,
			"byteOffset":15328,
			"target":34963
		},
		{
			"buffer":0,
			"byteLength":1728,
			"byteOffset":17028,
			"target":34962
		},
		{
			"buffer":0,
			"byteLength":1728,
			"byteOffset":18756,
			"target":34962
		},
		{
			"buffer":0,
			"byteLength":1152,
			"byteOffset":20484,
			"target":34962
		},
		{
			"buffer":0,
			"byteLength":552,
			"byteOffset":21636,
			"target":34963
		}
	],
	"buffers":[
		{
			"byteLength":22188,
			"uri":"LogoTypescript.bin"
		}
	]
}
