{
  "asset": {
    "generator": "Khronos glTF Blender I/O v4.1.62",
    "version": "2.0"
  },
  "scene": 0,
  "scenes": [
    {
      "name": "Scene",
      "nodes": [0]
    }
  ],
  "nodes": [
    {
      "mesh": 0,
      "name": "Brain",
      "translation": [-19.059999465942383, 10, -16]
    }
  ],
  "materials": [
    {
      "doubleSided": true,
      "name": "brain_frame",
      "pbrMetallicRoughness": {
        "baseColorFactor": [0.800000011920929, 0.800000011920929, 0.800000011920929, 1],
        "metallicFactor": 0,
        "roughnessFactor": 0.5
      }
    },
    {
      "doubleSided": true,
      "name": "brain",
      "pbrMetallicRoughness": {
        "baseColorFactor": [0.800000011920929, 0.800000011920929, 0.800000011920929, 1],
        "metallicFactor": 0,
        "roughnessFactor": 0.5
      }
    }
  ],
  "meshes": [
    {
      "name": "Brain",
      "primitives": [
        {
          "attributes": {
            "POSITION": 0,
            "NORMAL": 1,
            "TEXCOORD_0": 2,
            "TEXCOORD_1": 3
          },
          "indices": 4,
          "material": 0
        },
        {
          "attributes": {
            "POSITION": 5,
            "NORMAL": 6,
            "TEXCOORD_0": 7,
            "TEXCOORD_1": 8
          },
          "indices": 9,
          "material": 1
        }
      ]
    }
  ],
  "accessors": [
    {
      "bufferView": 0,
      "componentType": 5126,
      "count": 1784,
      "max": [3.276001214981079, 8.484001159667969, 0.2559475004673004],
      "min": [-3.2760009765625, -4.3917934817727655e-6, 5.204608532949351e-5],
      "type": "VEC3"
    },
    {
      "bufferView": 1,
      "componentType": 5126,
      "count": 1784,
      "type": "VEC3"
    },
    {
      "bufferView": 2,
      "componentType": 5126,
      "count": 1784,
      "type": "VEC2"
    },
    {
      "bufferView": 3,
      "componentType": 5126,
      "count": 1784,
      "type": "VEC2"
    },
    {
      "bufferView": 4,
      "componentType": 5123,
      "count": 2712,
      "type": "SCALAR"
    },
    {
      "bufferView": 5,
      "componentType": 5126,
      "count": 4,
      "max": [2.678767442703247, 7.886767864227295, 0.10013104230165482],
      "min": [-2.678767681121826, 0.5972323417663574, 0.10012691468000412],
      "type": "VEC3"
    },
    {
      "bufferView": 6,
      "componentType": 5126,
      "count": 4,
      "type": "VEC3"
    },
    {
      "bufferView": 7,
      "componentType": 5126,
      "count": 4,
      "type": "VEC2"
    },
    {
      "bufferView": 8,
      "componentType": 5126,
      "count": 4,
      "type": "VEC2"
    },
    {
      "bufferView": 9,
      "componentType": 5123,
      "count": 6,
      "type": "SCALAR"
    }
  ],
  "bufferViews": [
    {
      "buffer": 0,
      "byteLength": 21408,
      "byteOffset": 0,
      "target": 34962
    },
    {
      "buffer": 0,
      "byteLength": 21408,
      "byteOffset": 21408,
      "target": 34962
    },
    {
      "buffer": 0,
      "byteLength": 14272,
      "byteOffset": 42816,
      "target": 34962
    },
    {
      "buffer": 0,
      "byteLength": 14272,
      "byteOffset": 57088,
      "target": 34962
    },
    {
      "buffer": 0,
      "byteLength": 5424,
      "byteOffset": 71360,
      "target": 34963
    },
    {
      "buffer": 0,
      "byteLength": 48,
      "byteOffset": 76784,
      "target": 34962
    },
    {
      "buffer": 0,
      "byteLength": 48,
      "byteOffset": 76832,
      "target": 34962
    },
    {
      "buffer": 0,
      "byteLength": 32,
      "byteOffset": 76880,
      "target": 34962
    },
    {
      "buffer": 0,
      "byteLength": 32,
      "byteOffset": 76912,
      "target": 34962
    },
    {
      "buffer": 0,
      "byteLength": 12,
      "byteOffset": 76944,
      "target": 34963
    }
  ],
  "buffers": [
    {
      "byteLength": 76956,
      "uri": "Brain.bin"
    }
  ]
}
