{
  "asset": {
    "generator": "Khronos glTF Blender I/O v4.1.62",
    "version": "2.0"
  },
  "scene": 0,
  "scenes": [
    {
      "name": "Scene",
      "nodes": [0]
    }
  ],
  "nodes": [
    {
      "mesh": 0,
      "name": "FrameGlasses"
    }
  ],
  "meshes": [
    {
      "name": "FrameGlasses.002",
      "primitives": [
        {
          "attributes": {
            "POSITION": 0,
            "NORMAL": 1,
            "TEXCOORD_0": 2,
            "TEXCOORD_1": 3
          },
          "indices": 4
        }
      ]
    }
  ],
  "accessors": [
    {
      "bufferView": 0,
      "componentType": 5126,
      "count": 12674,
      "max": [12.595197677612305, 22.531999588012695, -15.720000267028809],
      "min": [-21.738765716552734, 7.094626426696777, -15.920000076293945],
      "type": "VEC3"
    },
    {
      "bufferView": 1,
      "componentType": 5126,
      "count": 12674,
      "type": "VEC3"
    },
    {
      "bufferView": 2,
      "componentType": 5126,
      "count": 12674,
      "type": "VEC2"
    },
    {
      "bufferView": 3,
      "componentType": 5126,
      "count": 12674,
      "type": "VEC2"
    },
    {
      "bufferView": 4,
      "componentType": 5123,
      "count": 18846,
      "type": "SCALAR"
    }
  ],
  "bufferViews": [
    {
      "buffer": 0,
      "byteLength": 152088,
      "byteOffset": 0,
      "target": 34962
    },
    {
      "buffer": 0,
      "byteLength": 152088,
      "byteOffset": 152088,
      "target": 34962
    },
    {
      "buffer": 0,
      "byteLength": 101392,
      "byteOffset": 304176,
      "target": 34962
    },
    {
      "buffer": 0,
      "byteLength": 101392,
      "byteOffset": 405568,
      "target": 34962
    },
    {
      "buffer": 0,
      "byteLength": 37692,
      "byteOffset": 506960,
      "target": 34963
    }
  ],
  "buffers": [
    {
      "byteLength": 544652,
      "uri": "FrameGlasses.bin"
    }
  ]
}
