{
	"asset":{
		"generator":"Khronos glTF Blender I/O v4.1.62",
		"version":"2.0"
	},
	"scene":0,
	"scenes":[
		{
			"name":"Scene",
			"nodes":[
				0
			]
		}
	],
	"nodes":[
		{
			"mesh":0,
			"name":"LogoTwitter"
		}
	],
	"meshes":[
		{
			"name":"LogoTwitter",
			"primitives":[
				{
					"attributes":{
						"POSITION":0,
						"NORMAL":1,
						"TEXCOORD_0":2
					},
					"indices":3
				}
			]
		}
	],
	"accessors":[
		{
			"bufferView":0,
			"componentType":5126,
			"count":428,
			"max":[
				1.231131911277771,
				1.0000004768371582,
				0.20000004768371582
			],
			"min":[
				-1.231131911277771,
				-1.0000003576278687,
				-0.20000004768371582
			],
			"type":"VEC3"
		},
		{
			"bufferView":1,
			"componentType":5126,
			"count":428,
			"type":"VEC3"
		},
		{
			"bufferView":2,
			"componentType":5126,
			"count":428,
			"type":"VEC2"
		},
		{
			"bufferView":3,
			"componentType":5123,
			"count":1164,
			"type":"SCALAR"
		}
	],
	"bufferViews":[
		{
			"buffer":0,
			"byteLength":5136,
			"byteOffset":0,
			"target":34962
		},
		{
			"buffer":0,
			"byteLength":5136,
			"byteOffset":5136,
			"target":34962
		},
		{
			"buffer":0,
			"byteLength":3424,
			"byteOffset":10272,
			"target":34962
		},
		{
			"buffer":0,
			"byteLength":2328,
			"byteOffset":13696,
			"target":34963
		}
	],
	"buffers":[
		{
			"byteLength":16024,
			"uri":"LogoTwitter.bin"
		}
	]
}
