{
	"asset":{
		"generator":"Khronos glTF Blender I/O v4.1.62",
		"version":"2.0"
	},
	"scene":0,
	"scenes":[
		{
			"name":"Scene",
			"nodes":[
				0
			]
		}
	],
	"nodes":[
		{
			"mesh":0,
			"name":"LogoMoco3"
		}
	],
	"meshes":[
		{
			"name":"LogoMoco3",
			"primitives":[
				{
					"attributes":{
						"POSITION":0,
						"NORMAL":1,
						"TEXCOORD_0":2
					},
					"indices":3
				}
			]
		}
	],
	"accessors":[
		{
			"bufferView":0,
			"componentType":5126,
			"count":14631,
			"max":[
				1.4098726511001587,
				1.003312349319458,
				1.4005794525146484
			],
			"min":[
				-1.409654974937439,
				-0.996854841709137,
				-0.4492623805999756
			],
			"type":"VEC3"
		},
		{
			"bufferView":1,
			"componentType":5126,
			"count":14631,
			"type":"VEC3"
		},
		{
			"bufferView":2,
			"componentType":5126,
			"count":14631,
			"type":"VEC2"
		},
		{
			"bufferView":3,
			"componentType":5123,
			"count":79944,
			"type":"SCALAR"
		}
	],
	"bufferViews":[
		{
			"buffer":0,
			"byteLength":175572,
			"byteOffset":0,
			"target":34962
		},
		{
			"buffer":0,
			"byteLength":175572,
			"byteOffset":175572,
			"target":34962
		},
		{
			"buffer":0,
			"byteLength":117048,
			"byteOffset":351144,
			"target":34962
		},
		{
			"buffer":0,
			"byteLength":159888,
			"byteOffset":468192,
			"target":34963
		}
	],
	"buffers":[
		{
			"byteLength":628080,
			"uri":"LogoMoco3.bin"
		}
	]
}
