{
  "asset": {
    "generator": "Khronos glTF Blender I/O v4.1.62",
    "version": "2.0"
  },
  "scene": 0,
  "scenes": [
    {
      "name": "Scene",
      "nodes": [0]
    }
  ],
  "nodes": [
    {
      "mesh": 0,
      "name": "HeartThreeD"
    }
  ],
  "materials": [
    {
      "doubleSided": true,
      "name": "background",
      "pbrMetallicRoughness": {
        "metallicFactor": 0
      }
    },
    {
      "doubleSided": true,
      "name": "image",
      "pbrMetallicRoughness": {
        "baseColorTexture": {
          "index": 0
        },
        "metallicFactor": 0
      }
    }
  ],
  "meshes": [
    {
      "name": "HeartThreeD",
      "primitives": [
        {
          "attributes": {
            "POSITION": 0,
            "NORMAL": 1,
            "TEXCOORD_0": 2
          },
          "indices": 3,
          "material": 0
        },
        {
          "attributes": {
            "POSITION": 4,
            "NORMAL": 5,
            "TEXCOORD_0": 6
          },
          "indices": 7,
          "material": 1
        }
      ]
    }
  ],
  "textures": [
    {
      "sampler": 0,
      "source": 0
    }
  ],
  "images": [
    {
      "mimeType": "image/png",
      "name": "heart_three_d",
      "uri": "heart_three_d.png"
    }
  ],
  "accessors": [
    {
      "bufferView": 0,
      "componentType": 5126,
      "count": 5051,
      "max": [1.7534147500991821, 1.7863001823425293, 7.808228730254996e-8],
      "min": [-1.7507370710372925, -1.7863142490386963, -0.10000007599592209],
      "type": "VEC3"
    },
    {
      "bufferView": 1,
      "componentType": 5126,
      "count": 5051,
      "type": "VEC3"
    },
    {
      "bufferView": 2,
      "componentType": 5126,
      "count": 5051,
      "type": "VEC2"
    },
    {
      "bufferView": 3,
      "componentType": 5123,
      "count": 9093,
      "type": "SCALAR"
    },
    {
      "bufferView": 4,
      "componentType": 5126,
      "count": 1011,
      "max": [1.7534147500991821, 1.7863001823425293, 7.808228730254996e-8],
      "min": [-1.7507370710372925, -1.7863142490386963, -7.808166202494249e-8],
      "type": "VEC3"
    },
    {
      "bufferView": 5,
      "componentType": 5126,
      "count": 1011,
      "type": "VEC3"
    },
    {
      "bufferView": 6,
      "componentType": 5126,
      "count": 1011,
      "type": "VEC2"
    },
    {
      "bufferView": 7,
      "componentType": 5123,
      "count": 3027,
      "type": "SCALAR"
    }
  ],
  "bufferViews": [
    {
      "buffer": 0,
      "byteLength": 60612,
      "byteOffset": 0,
      "target": 34962
    },
    {
      "buffer": 0,
      "byteLength": 60612,
      "byteOffset": 60612,
      "target": 34962
    },
    {
      "buffer": 0,
      "byteLength": 40408,
      "byteOffset": 121224,
      "target": 34962
    },
    {
      "buffer": 0,
      "byteLength": 18186,
      "byteOffset": 161632,
      "target": 34963
    },
    {
      "buffer": 0,
      "byteLength": 12132,
      "byteOffset": 179820,
      "target": 34962
    },
    {
      "buffer": 0,
      "byteLength": 12132,
      "byteOffset": 191952,
      "target": 34962
    },
    {
      "buffer": 0,
      "byteLength": 8088,
      "byteOffset": 204084,
      "target": 34962
    },
    {
      "buffer": 0,
      "byteLength": 6054,
      "byteOffset": 212172,
      "target": 34963
    }
  ],
  "samplers": [
    {
      "magFilter": 9729,
      "minFilter": 9987
    }
  ],
  "buffers": [
    {
      "byteLength": 218228,
      "uri": "HeartThreeD.bin"
    }
  ]
}
