{
  "asset": {
    "generator": "Khronos glTF Blender I/O v4.2.70",
    "version": "2.0"
  },
  "scene": 0,
  "scenes": [
    {
      "name": "Scene",
      "nodes": [0]
    }
  ],
  "nodes": [
    {
      "mesh": 0,
      "name": "ColorPadChatGpt",
      "translation": [-38, 0, 0]
    }
  ],
  "meshes": [
    {
      "name": "ColorPadChatGpt",
      "primitives": [
        {
          "attributes": {
            "POSITION": 0,
            "NORMAL": 1,
            "TEXCOORD_0": 2
          },
          "indices": 3
        }
      ]
    }
  ],
  "accessors": [
    {
      "bufferView": 0,
      "componentType": 5126,
      "count": 3686,
      "max": [0.7937999963760376, 1.0290000438690186, 0.7937999963760376],
      "min": [-0.7937999963760376, 0.9799998998641968, -0.7937999963760376],
      "type": "VEC3"
    },
    {
      "bufferView": 1,
      "componentType": 5126,
      "count": 3686,
      "type": "VEC3"
    },
    {
      "bufferView": 2,
      "componentType": 5126,
      "count": 3686,
      "type": "VEC2"
    },
    {
      "bufferView": 3,
      "componentType": 5123,
      "count": 7668,
      "type": "SCALAR"
    }
  ],
  "bufferViews": [
    {
      "buffer": 0,
      "byteLength": 44232,
      "byteOffset": 0,
      "target": 34962
    },
    {
      "buffer": 0,
      "byteLength": 44232,
      "byteOffset": 44232,
      "target": 34962
    },
    {
      "buffer": 0,
      "byteLength": 29488,
      "byteOffset": 88464,
      "target": 34962
    },
    {
      "buffer": 0,
      "byteLength": 15336,
      "byteOffset": 117952,
      "target": 34963
    }
  ],
  "buffers": [
    {
      "byteLength": 133288,
      "uri": "ColorPadChatGpt.bin"
    }
  ]
}
