{
  "asset": {
    "generator": "Khronos glTF Blender I/O v4.1.62",
    "version": "2.0"
  },
  "scene": 0,
  "scenes": [
    {
      "name": "Scene",
      "nodes": [0]
    }
  ],
  "nodes": [
    {
      "mesh": 0,
      "name": "WorldMap",
      "rotation": [-0.022665631026029587, -0.17216256260871887, 0.1285432130098343, 0.9763826131820679],
      "translation": [-12.188427925109863, 12.684538841247559, -14.09578800201416]
    }
  ],
  "meshes": [
    {
      "name": "WorldMap",
      "primitives": [
        {
          "attributes": {
            "POSITION": 0,
            "NORMAL": 1,
            "TEXCOORD_0": 2
          },
          "indices": 3
        }
      ]
    }
  ],
  "accessors": [
    {
      "bufferView": 0,
      "componentType": 5126,
      "count": 2141,
      "max": [1.579569697380066, 1.596123456954956, 1.5795692205429077],
      "min": [-1.5795689821243286, -1.5961235761642456, -1.579569697380066],
      "type": "VEC3"
    },
    {
      "bufferView": 1,
      "componentType": 5126,
      "count": 2141,
      "type": "VEC3"
    },
    {
      "bufferView": 2,
      "componentType": 5126,
      "count": 2141,
      "type": "VEC2"
    },
    {
      "bufferView": 3,
      "componentType": 5123,
      "count": 11904,
      "type": "SCALAR"
    }
  ],
  "bufferViews": [
    {
      "buffer": 0,
      "byteLength": 25692,
      "byteOffset": 0,
      "target": 34962
    },
    {
      "buffer": 0,
      "byteLength": 25692,
      "byteOffset": 25692,
      "target": 34962
    },
    {
      "buffer": 0,
      "byteLength": 17128,
      "byteOffset": 51384,
      "target": 34962
    },
    {
      "buffer": 0,
      "byteLength": 23808,
      "byteOffset": 68512,
      "target": 34963
    }
  ],
  "buffers": [
    {
      "byteLength": 92320,
      "uri": "WorldMap.bin"
    }
  ]
}
