<?xml version="1.0" encoding="UTF-8" standalone="no"?>
<!-- Created with Inkscape (http://www.inkscape.org/) -->

<svg
   viewBox="0 0 5.6552264 5.2916503"
   version="1.1"
   id="svg1"
   xml:space="preserve"
   xmlns="http://www.w3.org/2000/svg"
   xmlns:svg="http://www.w3.org/2000/svg"><defs
     id="defs1" /><g
     id="layer1"
     transform="translate(-22.935745,-13.497721)"><path
       id="path2"
       style="fill:#000000;stroke-width:0.0920506"
       d="m 27.527788,13.50103 c -0.615439,0.0424 -1.132154,0.489337 -1.393371,1.02905 -0.148104,0.234128 -0.249354,0.501701 -0.375447,0.729192 -0.137068,-0.263619 -0.238921,-0.558097 -0.411896,-0.811181 -0.252133,-0.445591 -0.661605,-0.83145 -1.180751,-0.922783 -0.297198,-0.07361 -0.682365,-0.0037 -0.898596,0.255534 -0.257056,0.268246 -0.357612,0.652092 -0.326513,1.016532 -0.01862,0.47936 0.235443,0.935934 0.587611,1.247453 h 0.844542 c -0.206098,-0.372619 -0.461926,-0.764486 -0.43773,-1.207826 0.02161,-0.174935 0.236643,-0.211244 0.362179,-0.118835 0.429576,0.2476 0.593265,0.756812 0.720348,1.206244 0.233191,0.924189 0.287858,1.913221 0.357272,2.85996 0.415712,0.0074 0.02322,0.0044 0.782209,0.0044 0.07639,-1.001632 0.1078,-2.019468 0.380776,-2.992104 0.127467,-0.42224 0.316998,-0.887581 0.730635,-1.100834 0.137318,-0.08204 0.338144,0.01142 0.320975,0.183066 -0.0041,0.427665 -0.238294,0.803016 -0.43773,1.165924 h 0.847796 c 0.395777,-0.350912 0.635213,-0.879796 0.584015,-1.412104 0.0017,-0.461959 -0.262355,-0.965053 -0.726805,-1.101182 -0.107114,-0.02877 -0.218969,-0.03816 -0.329519,-0.03051 z" /></g></svg>
