<svg
   viewBox="0 0 9.0810833 13.229166"
   version="1.1"
   xmlns="http://www.w3.org/2000/svg"><g><path
       style="fill:#000000;stroke-width:0.119929"
       d="m 6.1475651,13.219993 c 0,-0.0061 0.06649,-0.07367 0.147741,-0.150329 0.572406,-0.539976 0.85961,-1.379468 0.785083,-2.294773 -0.04479,-0.550218 -0.172734,-1.05538 -0.430739,-1.700749 -0.11381,-0.284699 -0.117476,-0.28339 -0.105224,0.03768 0.0069,0.181281 0.0013,0.350627 -0.01509,0.45368 -0.04946,0.311952 -0.204319,0.613513 -0.416139,0.810312 -0.10201,0.09478 -0.257323,0.201747 -0.271276,0.186828 -0.0039,-0.0041 0.0057,-0.06959 0.02131,-0.145213 0.05761,-0.277862 0.09621,-0.633223 0.107988,-0.994247 C 6.0046591,8.397574 5.7430781,7.555155 5.1819081,6.881238 5.0077431,6.672074 4.6226161,6.34137 4.5822541,6.366316 c -0.0086,0.0055 -9.59e-4,0.06947 0.01725,0.142449 0.05179,0.2078 0.04485,0.741477 -0.01235,0.94983 -0.1271,0.463038 -0.395361,0.804371 -1.094494,1.392609 -0.867431,0.729842 -1.176212,1.152613 -1.344798,1.841237 -0.04297,0.175537 -0.04918,0.253171 -0.04908,0.61347 9.6e-5,0.379654 0.0045,0.429006 0.05612,0.619692 0.105518,0.390343 0.31715,0.787409 0.562028,1.054453 0.06018,0.06563 0.109419,0.125199 0.109419,0.132412 0,0.02348 -0.419329,-0.196662 -0.629971,-0.330739 -0.72441,-0.461102 -1.27589397,-1.068743 -1.65578597,-1.824385 -0.25211,-0.501481 -0.395476,-0.961172 -0.488353,-1.56588 -0.06967,-0.45364 -0.06965,-1.254963 4.7e-5,-1.776952 0.111399,-0.834238 0.329269,-1.6385 0.690551,-2.549075 0.140018,-0.352877 0.28101197,-0.676934 0.29454997,-0.676934 0.0027,0 -0.0092,0.08805 -0.02705,0.195669 -0.04773,0.290086 -0.04557,1.00234 0.0037,1.262553 0.113653,0.598688 0.363531,1.076891 0.759055,1.452599 0.151799,0.144193 0.471782,0.364147 0.4954,0.34053 0.0065,-0.0065 -0.0029,-0.0767 -0.02095,-0.156072 -0.01803,-0.07935 -0.05659,-0.291832 -0.08576,-0.472172 -0.28677,-1.774239 -0.155504,-3.289836 0.398436,-4.600482 0.339276,-0.802733 0.871536,-1.53381496 1.500713,-2.06129496 0.199212,-0.16701 0.480807,-0.362645 0.502604,-0.34917399812 0.0082,0.005099998 0.0067,0.0401199981 -0.0035,0.0778399981 -0.123984,0.460659 -0.156072,1.26208396 -0.06802,1.69795696 0.06196,0.306693 0.146525,0.551951 0.287418,0.833645 0.29284,0.585472 0.692748,1.026859 1.695087,1.870905 0.780543,0.657278 1.277159,1.131487 1.575718,1.504627 0.473829,0.592192 0.789744,1.266058 0.929852,1.983429 0.249238,1.276127 0.03538,2.47831 -0.621816,3.495501 -0.242964,0.376053 -0.668007,0.842903 -0.994512,1.092332 -0.329519,0.251734 -0.782052,0.512966 -1.093984,0.631525 -0.124572,0.04734 -0.122376,0.04677 -0.122376,0.03156 z"
       id="path1" /></g></svg>
