{
  "asset": {
    "generator": "Khronos glTF Blender I/O v4.0.44",
    "version": "2.0"
  },
  "scene": 0,
  "scenes": [
    {
      "name": "Scene",
      "nodes": [0, 1, 2, 3, 4, 5, 6]
    }
  ],
  "nodes": [
    {
      "mesh": 0,
      "name": "AmsterdamPointer",
      "translation": [-1.5200002193450928, 0, 0.5200000405311584]
    },
    {
      "mesh": 1,
      "name": "AmsterdamText",
      "rotation": [0.7071068286895752, 0, 0, 0.7071068286895752],
      "scale": [0.10000002384185791, 0.10000002384185791, 0.10000002384185791],
      "translation": [-1.7850408554077148, 0.06000000238418579, 0.5200000405311584]
    },
    {
      "mesh": 2,
      "name": "MaastrichtPointer",
      "translation": [-1.386000156402588, 0, 0.862000048160553]
    },
    {
      "mesh": 3,
      "name": "MaastrichtTextMesh",
      "rotation": [0.7071068286895752, 0, 0, 0.7071068286895752],
      "scale": [0.10000002384185791, 0.10000002384185791, 0.10000002384185791],
      "translation": [-1.6439143419265747, 0.06000000238418579, 0.862000048160553]
    },
    {
      "mesh": 4,
      "name": "MapOfEurope"
    },
    {
      "mesh": 5,
      "name": "ParisPointer",
      "translation": [-2.010000228881836, 0, 1.3700001239776611]
    },
    {
      "mesh": 6,
      "name": "ParisText",
      "rotation": [0.7071068286895752, 0, 0, 0.7071068286895752],
      "scale": [0.10000002384185791, 0.10000002384185791, 0.10000002384185791],
      "translation": [-2.1392409801483154, 0.06000000238418579, 1.3700001239776611]
    }
  ],
  "materials": [
    {
      "doubleSided": true,
      "emissiveFactor": [1, 1, 1],
      "name": "Material.001",
      "pbrMetallicRoughness": {
        "baseColorFactor": [0.800000011920929, 0.800000011920929, 0.800000011920929, 1],
        "metallicFactor": 0
      }
    },
    {
      "doubleSided": true,
      "emissiveFactor": [1, 1, 1],
      "name": "Material.002",
      "pbrMetallicRoughness": {
        "baseColorFactor": [0.800000011920929, 0.800000011920929, 0.800000011920929, 1],
        "metallicFactor": 0
      }
    }
  ],
  "meshes": [
    {
      "name": "AmsterdamPointer",
      "primitives": [
        {
          "attributes": {
            "POSITION": 0,
            "NORMAL": 1,
            "TEXCOORD_0": 2
          },
          "indices": 3,
          "material": 0
        }
      ]
    },
    {
      "name": "AmsterdamText",
      "primitives": [
        {
          "attributes": {
            "POSITION": 4,
            "NORMAL": 5,
            "TEXCOORD_0": 6
          },
          "indices": 7,
          "material": 0
        }
      ]
    },
    {
      "name": "MaastrichtPointer",
      "primitives": [
        {
          "attributes": {
            "POSITION": 8,
            "NORMAL": 9,
            "TEXCOORD_0": 10
          },
          "indices": 3,
          "material": 0
        }
      ]
    },
    {
      "name": "MaastrichtTextMesh",
      "primitives": [
        {
          "attributes": {
            "POSITION": 11,
            "NORMAL": 12,
            "TEXCOORD_0": 13
          },
          "indices": 14,
          "material": 0
        }
      ]
    },
    {
      "name": "MapOfEurope",
      "primitives": [
        {
          "attributes": {
            "POSITION": 15,
            "NORMAL": 16,
            "TEXCOORD_0": 17
          },
          "indices": 18,
          "material": 1
        }
      ]
    },
    {
      "name": "ParisPointer",
      "primitives": [
        {
          "attributes": {
            "POSITION": 19,
            "NORMAL": 20,
            "TEXCOORD_0": 21
          },
          "indices": 3,
          "material": 0
        }
      ]
    },
    {
      "name": "ParisText",
      "primitives": [
        {
          "attributes": {
            "POSITION": 22,
            "NORMAL": 23,
            "TEXCOORD_0": 24
          },
          "indices": 25,
          "material": 0
        }
      ]
    }
  ],
  "accessors": [
    {
      "bufferView": 0,
      "componentType": 5126,
      "count": 128,
      "max": [0.020000003278255463, 0.04000000283122063, 0.020000003278255463],
      "min": [-0.020000003278255463, 0, -0.020000003278255463],
      "type": "VEC3"
    },
    {
      "bufferView": 1,
      "componentType": 5126,
      "count": 128,
      "type": "VEC3"
    },
    {
      "bufferView": 2,
      "componentType": 5126,
      "count": 128,
      "type": "VEC2"
    },
    {
      "bufferView": 3,
      "componentType": 5123,
      "count": 186,
      "type": "SCALAR"
    },
    {
      "bufferView": 4,
      "componentType": 5126,
      "count": 1245,
      "max": [5.100290775299072, 0.05000000074505806, 0.011627906933426857],
      "min": [-0.013808139599859715, -0.05000000074505806, -0.520348846912384],
      "type": "VEC3"
    },
    {
      "bufferView": 5,
      "componentType": 5126,
      "count": 1245,
      "type": "VEC3"
    },
    {
      "bufferView": 6,
      "componentType": 5126,
      "count": 1245,
      "type": "VEC2"
    },
    {
      "bufferView": 7,
      "componentType": 5123,
      "count": 3576,
      "type": "SCALAR"
    },
    {
      "bufferView": 8,
      "componentType": 5126,
      "count": 128,
      "max": [0.020000003278255463, 0.04000000283122063, 0.020000003278255463],
      "min": [-0.020000003278255463, 0, -0.020000003278255463],
      "type": "VEC3"
    },
    {
      "bufferView": 9,
      "componentType": 5126,
      "count": 128,
      "type": "VEC3"
    },
    {
      "bufferView": 10,
      "componentType": 5126,
      "count": 128,
      "type": "VEC2"
    },
    {
      "bufferView": 11,
      "componentType": 5126,
      "count": 1418,
      "max": [5.210755825042725, 0.05000000074505806, 0.011627906933426857],
      "min": [0.04142441973090172, -0.05000000074505806, -0.520348846912384],
      "type": "VEC3"
    },
    {
      "bufferView": 12,
      "componentType": 5126,
      "count": 1418,
      "type": "VEC3"
    },
    {
      "bufferView": 13,
      "componentType": 5126,
      "count": 1418,
      "type": "VEC2"
    },
    {
      "bufferView": 14,
      "componentType": 5123,
      "count": 4068,
      "type": "SCALAR"
    },
    {
      "bufferView": 15,
      "componentType": 5126,
      "count": 85008,
      "max": [2.5867273807525635, 0.0020002068486064672, 4.30354642868042],
      "min": [-4.48013973236084, -0.12125156074762344, -4.346799373626709],
      "type": "VEC3"
    },
    {
      "bufferView": 16,
      "componentType": 5126,
      "count": 85008,
      "type": "VEC3"
    },
    {
      "bufferView": 17,
      "componentType": 5126,
      "count": 85008,
      "type": "VEC2"
    },
    {
      "bufferView": 18,
      "componentType": 5125,
      "count": 127512,
      "type": "SCALAR"
    },
    {
      "bufferView": 19,
      "componentType": 5126,
      "count": 128,
      "max": [0.020000003278255463, 0.04000000283122063, 0.020000003278255463],
      "min": [-0.020000003278255463, 0, -0.020000003278255463],
      "type": "VEC3"
    },
    {
      "bufferView": 20,
      "componentType": 5126,
      "count": 128,
      "type": "VEC3"
    },
    {
      "bufferView": 21,
      "componentType": 5126,
      "count": 128,
      "type": "VEC2"
    },
    {
      "bufferView": 22,
      "componentType": 5126,
      "count": 1024,
      "max": [2.3895347118377686, 0.05000000074505806, 0.011627906933426857],
      "min": [0.04142441973090172, -0.05000000074505806, -0.520348846912384],
      "type": "VEC3"
    },
    {
      "bufferView": 23,
      "componentType": 5126,
      "count": 1024,
      "type": "VEC3"
    },
    {
      "bufferView": 24,
      "componentType": 5126,
      "count": 1024,
      "type": "VEC2"
    },
    {
      "bufferView": 25,
      "componentType": 5123,
      "count": 3000,
      "type": "SCALAR"
    }
  ],
  "bufferViews": [
    {
      "buffer": 0,
      "byteLength": 1536,
      "byteOffset": 0,
      "target": 34962
    },
    {
      "buffer": 0,
      "byteLength": 1536,
      "byteOffset": 1536,
      "target": 34962
    },
    {
      "buffer": 0,
      "byteLength": 1024,
      "byteOffset": 3072,
      "target": 34962
    },
    {
      "buffer": 0,
      "byteLength": 372,
      "byteOffset": 4096,
      "target": 34963
    },
    {
      "buffer": 0,
      "byteLength": 14940,
      "byteOffset": 4468,
      "target": 34962
    },
    {
      "buffer": 0,
      "byteLength": 14940,
      "byteOffset": 19408,
      "target": 34962
    },
    {
      "buffer": 0,
      "byteLength": 9960,
      "byteOffset": 34348,
      "target": 34962
    },
    {
      "buffer": 0,
      "byteLength": 7152,
      "byteOffset": 44308,
      "target": 34963
    },
    {
      "buffer": 0,
      "byteLength": 1536,
      "byteOffset": 51460,
      "target": 34962
    },
    {
      "buffer": 0,
      "byteLength": 1536,
      "byteOffset": 52996,
      "target": 34962
    },
    {
      "buffer": 0,
      "byteLength": 1024,
      "byteOffset": 54532,
      "target": 34962
    },
    {
      "buffer": 0,
      "byteLength": 17016,
      "byteOffset": 55556,
      "target": 34962
    },
    {
      "buffer": 0,
      "byteLength": 17016,
      "byteOffset": 72572,
      "target": 34962
    },
    {
      "buffer": 0,
      "byteLength": 11344,
      "byteOffset": 89588,
      "target": 34962
    },
    {
      "buffer": 0,
      "byteLength": 8136,
      "byteOffset": 100932,
      "target": 34963
    },
    {
      "buffer": 0,
      "byteLength": 1020096,
      "byteOffset": 109068,
      "target": 34962
    },
    {
      "buffer": 0,
      "byteLength": 1020096,
      "byteOffset": 1129164,
      "target": 34962
    },
    {
      "buffer": 0,
      "byteLength": 680064,
      "byteOffset": 2149260,
      "target": 34962
    },
    {
      "buffer": 0,
      "byteLength": 510048,
      "byteOffset": 2829324,
      "target": 34963
    },
    {
      "buffer": 0,
      "byteLength": 1536,
      "byteOffset": 3339372,
      "target": 34962
    },
    {
      "buffer": 0,
      "byteLength": 1536,
      "byteOffset": 3340908,
      "target": 34962
    },
    {
      "buffer": 0,
      "byteLength": 1024,
      "byteOffset": 3342444,
      "target": 34962
    },
    {
      "buffer": 0,
      "byteLength": 12288,
      "byteOffset": 3343468,
      "target": 34962
    },
    {
      "buffer": 0,
      "byteLength": 12288,
      "byteOffset": 3355756,
      "target": 34962
    },
    {
      "buffer": 0,
      "byteLength": 8192,
      "byteOffset": 3368044,
      "target": 34962
    },
    {
      "buffer": 0,
      "byteLength": 6000,
      "byteOffset": 3376236,
      "target": 34963
    }
  ],
  "buffers": [
    {
      "byteLength": 3382236,
      "uri": "ProjectsMap.bin"
    }
  ]
}
