{
  "asset": {
    "generator": "Khronos glTF Blender I/O v4.1.62",
    "version": "2.0"
  },
  "scene": 0,
  "scenes": [
    {
      "name": "Scene",
      "nodes": [0]
    }
  ],
  "nodes": [
    {
      "mesh": 0,
      "name": "Angular"
    }
  ],
  "materials": [
    {
      "doubleSided": true,
      "name": "background",
      "pbrMetallicRoughness": {
        "metallicFactor": 0
      }
    },
    {
      "doubleSided": true,
      "name": "image",
      "pbrMetallicRoughness": {
        "baseColorTexture": {
          "index": 0
        },
        "metallicFactor": 0
      }
    }
  ],
  "meshes": [
    {
      "name": "Angular",
      "primitives": [
        {
          "attributes": {
            "POSITION": 0,
            "NORMAL": 1,
            "TEXCOORD_0": 2
          },
          "indices": 3,
          "material": 0
        },
        {
          "attributes": {
            "POSITION": 4,
            "NORMAL": 5,
            "TEXCOORD_0": 6
          },
          "indices": 7,
          "material": 1
        }
      ]
    }
  ],
  "textures": [
    {
      "sampler": 0,
      "source": 0
    }
  ],
  "images": [
    {
      "mimeType": "image/png",
      "name": "angular",
      "uri": "angular.png"
    }
  ],
  "accessors": [
    {
      "bufferView": 0,
      "componentType": 5126,
      "count": 473,
      "max": [1.623293399810791, 1.931287169456482, 8.442012244813668e-8],
      "min": [-1.6232826709747314, -1.9313071966171265, -0.10000008344650269],
      "type": "VEC3"
    },
    {
      "bufferView": 1,
      "componentType": 5126,
      "count": 473,
      "type": "VEC3"
    },
    {
      "bufferView": 2,
      "componentType": 5126,
      "count": 473,
      "type": "VEC2"
    },
    {
      "bufferView": 3,
      "componentType": 5123,
      "count": 885,
      "type": "SCALAR"
    },
    {
      "bufferView": 4,
      "componentType": 5126,
      "count": 99,
      "max": [1.623293399810791, 1.931287169456482, 8.442012244813668e-8],
      "min": [-1.6232826709747314, -1.9313071966171265, -8.441924137514434e-8],
      "type": "VEC3"
    },
    {
      "bufferView": 5,
      "componentType": 5126,
      "count": 99,
      "type": "VEC3"
    },
    {
      "bufferView": 6,
      "componentType": 5126,
      "count": 99,
      "type": "VEC2"
    },
    {
      "bufferView": 7,
      "componentType": 5123,
      "count": 291,
      "type": "SCALAR"
    }
  ],
  "bufferViews": [
    {
      "buffer": 0,
      "byteLength": 5676,
      "byteOffset": 0,
      "target": 34962
    },
    {
      "buffer": 0,
      "byteLength": 5676,
      "byteOffset": 5676,
      "target": 34962
    },
    {
      "buffer": 0,
      "byteLength": 3784,
      "byteOffset": 11352,
      "target": 34962
    },
    {
      "buffer": 0,
      "byteLength": 1770,
      "byteOffset": 15136,
      "target": 34963
    },
    {
      "buffer": 0,
      "byteLength": 1188,
      "byteOffset": 16908,
      "target": 34962
    },
    {
      "buffer": 0,
      "byteLength": 1188,
      "byteOffset": 18096,
      "target": 34962
    },
    {
      "buffer": 0,
      "byteLength": 792,
      "byteOffset": 19284,
      "target": 34962
    },
    {
      "buffer": 0,
      "byteLength": 582,
      "byteOffset": 20076,
      "target": 34963
    }
  ],
  "samplers": [
    {
      "magFilter": 9729,
      "minFilter": 9987
    }
  ],
  "buffers": [
    {
      "byteLength": 20660,
      "uri": "Angular.bin"
    }
  ]
}
