{
  "asset": {
    "generator": "Khronos glTF Blender I/O v4.1.62",
    "version": "2.0"
  },
  "scene": 0,
  "scenes": [
    {
      "name": "Scene",
      "nodes": [0]
    }
  ],
  "nodes": [
    {
      "mesh": 0,
      "name": "Nextjs"
    }
  ],
  "materials": [
    {
      "doubleSided": true,
      "name": "background",
      "pbrMetallicRoughness": {
        "metallicFactor": 0
      }
    },
    {
      "doubleSided": true,
      "name": "image",
      "pbrMetallicRoughness": {
        "baseColorTexture": {
          "index": 0
        },
        "metallicFactor": 0
      }
    }
  ],
  "meshes": [
    {
      "name": "Nextjs",
      "primitives": [
        {
          "attributes": {
            "POSITION": 0,
            "NORMAL": 1,
            "TEXCOORD_0": 2
          },
          "indices": 3,
          "material": 0
        },
        {
          "attributes": {
            "POSITION": 4,
            "NORMAL": 5,
            "TEXCOORD_0": 6
          },
          "indices": 7,
          "material": 1
        }
      ]
    }
  ],
  "textures": [
    {
      "sampler": 0,
      "source": 0
    }
  ],
  "images": [
    {
      "mimeType": "image/png",
      "name": "nextjs",
      "uri": "nextjs.png"
    }
  ],
  "accessors": [
    {
      "bufferView": 0,
      "componentType": 5126,
      "count": 568,
      "max": [1.661072015762329, 1.8616608381271362, 8.137521234630185e-8],
      "min": [-1.6611573696136475, -1.8616478443145752, -0.10000008344650269],
      "type": "VEC3"
    },
    {
      "bufferView": 1,
      "componentType": 5126,
      "count": 568,
      "type": "VEC3"
    },
    {
      "bufferView": 2,
      "componentType": 5126,
      "count": 568,
      "type": "VEC2"
    },
    {
      "bufferView": 3,
      "componentType": 5123,
      "count": 1020,
      "type": "SCALAR"
    },
    {
      "bufferView": 4,
      "componentType": 5126,
      "count": 114,
      "max": [1.661072015762329, 1.8616608381271362, 8.137521234630185e-8],
      "min": [-1.6611573696136475, -1.8616478443145752, -8.13757736750631e-8],
      "type": "VEC3"
    },
    {
      "bufferView": 5,
      "componentType": 5126,
      "count": 114,
      "type": "VEC3"
    },
    {
      "bufferView": 6,
      "componentType": 5126,
      "count": 114,
      "type": "VEC2"
    },
    {
      "bufferView": 7,
      "componentType": 5123,
      "count": 336,
      "type": "SCALAR"
    }
  ],
  "bufferViews": [
    {
      "buffer": 0,
      "byteLength": 6816,
      "byteOffset": 0,
      "target": 34962
    },
    {
      "buffer": 0,
      "byteLength": 6816,
      "byteOffset": 6816,
      "target": 34962
    },
    {
      "buffer": 0,
      "byteLength": 4544,
      "byteOffset": 13632,
      "target": 34962
    },
    {
      "buffer": 0,
      "byteLength": 2040,
      "byteOffset": 18176,
      "target": 34963
    },
    {
      "buffer": 0,
      "byteLength": 1368,
      "byteOffset": 20216,
      "target": 34962
    },
    {
      "buffer": 0,
      "byteLength": 1368,
      "byteOffset": 21584,
      "target": 34962
    },
    {
      "buffer": 0,
      "byteLength": 912,
      "byteOffset": 22952,
      "target": 34962
    },
    {
      "buffer": 0,
      "byteLength": 672,
      "byteOffset": 23864,
      "target": 34963
    }
  ],
  "samplers": [
    {
      "magFilter": 9729,
      "minFilter": 9987
    }
  ],
  "buffers": [
    {
      "byteLength": 24536,
      "uri": "Nextjs.bin"
    }
  ]
}
