{
	"asset":{
		"generator":"Khronos glTF Blender I/O v4.1.62",
		"version":"2.0"
	},
	"scene":0,
	"scenes":[
		{
			"name":"Scene",
			"nodes":[
				0
			]
		}
	],
	"nodes":[
		{
			"mesh":0,
			"name":"Spring"
		}
	],
	"materials":[
		{
			"doubleSided":true,
			"name":"background",
			"pbrMetallicRoughness":{
				"metallicFactor":0
			}
		},
		{
			"doubleSided":true,
			"name":"image",
			"pbrMetallicRoughness":{
				"baseColorTexture":{
					"index":0
				},
				"metallicFactor":0
			}
		}
	],
	"meshes":[
		{
			"name":"Spring",
			"primitives":[
				{
					"attributes":{
						"POSITION":0,
						"NORMAL":1,
						"TEXCOORD_0":2
					},
					"indices":3,
					"material":0
				},
				{
					"attributes":{
						"POSITION":4,
						"NORMAL":5,
						"TEXCOORD_0":6
					},
					"indices":7,
					"material":1
				}
			]
		}
	],
	"textures":[
		{
			"sampler":0,
			"source":0
		}
	],
	"images":[
		{
			"mimeType":"image/png",
			"name":"spring",
			"uri":"spring.png"
		}
	],
	"accessors":[
		{
			"bufferView":0,
			"componentType":5126,
			"count":853,
			"max":[
				1.6623538732528687,
				1.8631260395050049,
				8.145962482331015e-08
			],
			"min":[
				-1.6629303693771362,
				-1.8635787963867188,
				-0.10000008344650269
			],
			"type":"VEC3"
		},
		{
			"bufferView":1,
			"componentType":5126,
			"count":853,
			"type":"VEC3"
		},
		{
			"bufferView":2,
			"componentType":5126,
			"count":853,
			"type":"VEC2"
		},
		{
			"bufferView":3,
			"componentType":5123,
			"count":1533,
			"type":"SCALAR"
		},
		{
			"bufferView":4,
			"componentType":5126,
			"count":171,
			"max":[
				1.6623538732528687,
				1.8631260395050049,
				8.145962482331015e-08
			],
			"min":[
				-1.6629303693771362,
				-1.8635787963867188,
				-8.143982199726452e-08
			],
			"type":"VEC3"
		},
		{
			"bufferView":5,
			"componentType":5126,
			"count":171,
			"type":"VEC3"
		},
		{
			"bufferView":6,
			"componentType":5126,
			"count":171,
			"type":"VEC2"
		},
		{
			"bufferView":7,
			"componentType":5123,
			"count":507,
			"type":"SCALAR"
		}
	],
	"bufferViews":[
		{
			"buffer":0,
			"byteLength":10236,
			"byteOffset":0,
			"target":34962
		},
		{
			"buffer":0,
			"byteLength":10236,
			"byteOffset":10236,
			"target":34962
		},
		{
			"buffer":0,
			"byteLength":6824,
			"byteOffset":20472,
			"target":34962
		},
		{
			"buffer":0,
			"byteLength":3066,
			"byteOffset":27296,
			"target":34963
		},
		{
			"buffer":0,
			"byteLength":2052,
			"byteOffset":30364,
			"target":34962
		},
		{
			"buffer":0,
			"byteLength":2052,
			"byteOffset":32416,
			"target":34962
		},
		{
			"buffer":0,
			"byteLength":1368,
			"byteOffset":34468,
			"target":34962
		},
		{
			"buffer":0,
			"byteLength":1014,
			"byteOffset":35836,
			"target":34963
		}
	],
	"samplers":[
		{
			"magFilter":9729,
			"minFilter":9987
		}
	],
	"buffers":[
		{
			"byteLength":36852,
			"uri":"Spring.bin"
		}
	]
}
