{
  "asset": {
    "generator": "Khronos glTF Blender I/O v4.1.62",
    "version": "2.0"
  },
  "scene": 0,
  "scenes": [
    {
      "name": "Scene",
      "nodes": [0]
    }
  ],
  "nodes": [
    {
      "mesh": 0,
      "name": "ColorPadNginx"
    }
  ],
  "meshes": [
    {
      "name": "ColorPadNginx",
      "primitives": [
        {
          "attributes": {
            "POSITION": 0,
            "NORMAL": 1,
            "TEXCOORD_0": 2
          },
          "indices": 3
        }
      ]
    }
  ],
  "accessors": [
    {
      "bufferView": 0,
      "componentType": 5126,
      "count": 132226,
      "max": [0.7937999963760376, 1.0290000438690186, 0.7926937341690063],
      "min": [-0.7937999963760376, 0.9800000190734863, -0.7949062585830688],
      "type": "VEC3"
    },
    {
      "bufferView": 1,
      "componentType": 5126,
      "count": 132226,
      "type": "VEC3"
    },
    {
      "bufferView": 2,
      "componentType": 5126,
      "count": 132226,
      "type": "VEC2"
    },
    {
      "bufferView": 3,
      "componentType": 5125,
      "count": 293358,
      "type": "SCALAR"
    }
  ],
  "bufferViews": [
    {
      "buffer": 0,
      "byteLength": 1586712,
      "byteOffset": 0,
      "target": 34962
    },
    {
      "buffer": 0,
      "byteLength": 1586712,
      "byteOffset": 1586712,
      "target": 34962
    },
    {
      "buffer": 0,
      "byteLength": 1057808,
      "byteOffset": 3173424,
      "target": 34962
    },
    {
      "buffer": 0,
      "byteLength": 1173432,
      "byteOffset": 4231232,
      "target": 34963
    }
  ],
  "buffers": [
    {
      "byteLength": 5404664,
      "uri": "ColorPadNginx.bin"
    }
  ]
}
