{
  "asset": {
    "generator": "Khronos glTF Blender I/O v4.1.62",
    "version": "2.0"
  },
  "scene": 0,
  "scenes": [
    {
      "name": "Scene",
      "nodes": [0]
    }
  ],
  "nodes": [
    {
      "mesh": 0,
      "name": "ColorPadNextIntl"
    }
  ],
  "meshes": [
    {
      "name": "ColorPadNextIntl",
      "primitives": [
        {
          "attributes": {
            "POSITION": 0,
            "NORMAL": 1,
            "TEXCOORD_0": 2
          },
          "indices": 3
        }
      ]
    }
  ],
  "accessors": [
    {
      "bufferView": 0,
      "componentType": 5126,
      "count": 1888,
      "max": [0.7937999963760376, 1.0290000438690186, 0.7937999963760376],
      "min": [-0.7937999963760376, 0.9800000190734863, -0.7937999963760376],
      "type": "VEC3"
    },
    {
      "bufferView": 1,
      "componentType": 5126,
      "count": 1888,
      "type": "VEC3"
    },
    {
      "bufferView": 2,
      "componentType": 5126,
      "count": 1888,
      "type": "VEC2"
    },
    {
      "bufferView": 3,
      "componentType": 5123,
      "count": 3648,
      "type": "SCALAR"
    }
  ],
  "bufferViews": [
    {
      "buffer": 0,
      "byteLength": 22656,
      "byteOffset": 0,
      "target": 34962
    },
    {
      "buffer": 0,
      "byteLength": 22656,
      "byteOffset": 22656,
      "target": 34962
    },
    {
      "buffer": 0,
      "byteLength": 15104,
      "byteOffset": 45312,
      "target": 34962
    },
    {
      "buffer": 0,
      "byteLength": 7296,
      "byteOffset": 60416,
      "target": 34963
    }
  ],
  "buffers": [
    {
      "byteLength": 67712,
      "uri": "ColorPadNextIntl.bin"
    }
  ]
}
