{
  "asset": {
    "generator": "Khronos glTF Blender I/O v4.1.62",
    "version": "2.0"
  },
  "scene": 0,
  "scenes": [
    {
      "name": "Scene",
      "nodes": [0]
    }
  ],
  "nodes": [
    {
      "mesh": 0,
      "name": "ButterflySquare"
    }
  ],
  "meshes": [
    {
      "name": "ButterflySquare",
      "primitives": [
        {
          "attributes": {
            "POSITION": 0,
            "NORMAL": 1,
            "TEXCOORD_0": 2,
            "TEXCOORD_1": 3
          },
          "indices": 4
        }
      ]
    }
  ],
  "accessors": [
    {
      "bufferView": 0,
      "componentType": 5126,
      "count": 28164,
      "max": [1.2000000476837158, 1.2000000476837158, 0.22799992561340332],
      "min": [-1.2000000476837158, -1.2000000476837158, -5.245366807571372e-8],
      "type": "VEC3"
    },
    {
      "bufferView": 1,
      "componentType": 5126,
      "count": 28164,
      "type": "VEC3"
    },
    {
      "bufferView": 2,
      "componentType": 5126,
      "count": 28164,
      "type": "VEC2"
    },
    {
      "bufferView": 3,
      "componentType": 5126,
      "count": 28164,
      "type": "VEC2"
    },
    {
      "bufferView": 4,
      "componentType": 5123,
      "count": 42234,
      "type": "SCALAR"
    }
  ],
  "bufferViews": [
    {
      "buffer": 0,
      "byteLength": 337968,
      "byteOffset": 0,
      "target": 34962
    },
    {
      "buffer": 0,
      "byteLength": 337968,
      "byteOffset": 337968,
      "target": 34962
    },
    {
      "buffer": 0,
      "byteLength": 225312,
      "byteOffset": 675936,
      "target": 34962
    },
    {
      "buffer": 0,
      "byteLength": 225312,
      "byteOffset": 901248,
      "target": 34962
    },
    {
      "buffer": 0,
      "byteLength": 84468,
      "byteOffset": 1126560,
      "target": 34963
    }
  ],
  "buffers": [
    {
      "byteLength": 1211028,
      "uri": "ButterflySquare.bin"
    }
  ]
}
