{
	"asset":{
		"generator":"Khronos glTF Blender I/O v4.1.62",
		"version":"2.0"
	},
	"scene":0,
	"scenes":[
		{
			"name":"Scene",
			"nodes":[
				0
			]
		}
	],
	"nodes":[
		{
			"mesh":0,
			"name":"CelestialMapSquare"
		}
	],
	"meshes":[
		{
			"name":"CelestialMapSquare",
			"primitives":[
				{
					"attributes":{
						"POSITION":0,
						"NORMAL":1,
						"TEXCOORD_0":2,
						"TEXCOORD_1":3
					},
					"indices":4
				}
			]
		}
	],
	"accessors":[
		{
			"bufferView":0,
			"componentType":5126,
			"count":532,
			"max":[
				2.735004425048828,
				2,
				0.15388871729373932
			],
			"min":[
				-2.7350053787231445,
				-2,
				-8.742277657347586e-08
			],
			"type":"VEC3"
		},
		{
			"bufferView":1,
			"componentType":5126,
			"count":532,
			"type":"VEC3"
		},
		{
			"bufferView":2,
			"componentType":5126,
			"count":532,
			"type":"VEC2"
		},
		{
			"bufferView":3,
			"componentType":5126,
			"count":532,
			"type":"VEC2"
		},
		{
			"bufferView":4,
			"componentType":5123,
			"count":810,
			"type":"SCALAR"
		}
	],
	"bufferViews":[
		{
			"buffer":0,
			"byteLength":6384,
			"byteOffset":0,
			"target":34962
		},
		{
			"buffer":0,
			"byteLength":6384,
			"byteOffset":6384,
			"target":34962
		},
		{
			"buffer":0,
			"byteLength":4256,
			"byteOffset":12768,
			"target":34962
		},
		{
			"buffer":0,
			"byteLength":4256,
			"byteOffset":17024,
			"target":34962
		},
		{
			"buffer":0,
			"byteLength":1620,
			"byteOffset":21280,
			"target":34963
		}
	],
	"buffers":[
		{
			"byteLength":22900,
			"uri":"CelestialMapSquare.bin"
		}
	]
}
