{
  "asset": {
    "generator": "Khronos glTF Blender I/O v4.1.62",
    "version": "2.0"
  },
  "extensionsUsed": ["KHR_materials_specular", "KHR_materials_ior"],
  "scene": 0,
  "scenes": [
    {
      "name": "Scene",
      "nodes": [0]
    }
  ],
  "nodes": [
    {
      "mesh": 0,
      "name": "MacBookPro"
    }
  ],
  "materials": [
    {
      "doubleSided": true,
      "extensions": {
        "KHR_materials_specular": {
          "specularFactor": 0.4000000059604645
        },
        "KHR_materials_ior": {
          "ior": 1.4500000476837158
        }
      },
      "name": "MacBookPro__Screen",
      "pbrMetallicRoughness": {
        "baseColorTexture": {
          "index": 0
        },
        "metallicFactor": 0,
        "roughnessFactor": 0.5
      }
    },
    {
      "doubleSided": true,
      "name": "MacBookPro__GrisSideral",
      "pbrMetallicRoughness": {
        "baseColorFactor": [0.11953767389059067, 0.1195385605096817, 0.11953850835561752, 1],
        "metallicFactor": 0.20000000298023224,
        "roughnessFactor": 0.5
      }
    },
    {
      "doubleSided": true,
      "name": "MacBookProp__Keyboard",
      "pbrMetallicRoughness": {
        "baseColorFactor": [0, 0, 0, 1],
        "metallicFactor": 0,
        "roughnessFactor": 0.5
      }
    }
  ],
  "meshes": [
    {
      "name": "MacBookPro",
      "primitives": [
        {
          "attributes": {
            "POSITION": 0,
            "NORMAL": 1,
            "TEXCOORD_0": 2
          },
          "indices": 3,
          "material": 0
        },
        {
          "attributes": {
            "POSITION": 4,
            "NORMAL": 5,
            "TEXCOORD_0": 6
          },
          "indices": 7,
          "material": 1
        },
        {
          "attributes": {
            "POSITION": 8,
            "NORMAL": 9,
            "TEXCOORD_0": 10
          },
          "indices": 11,
          "material": 2
        }
      ]
    }
  ],
  "textures": [
    {
      "sampler": 0,
      "source": 0
    }
  ],
  "images": [
    {
      "mimeType": "image/png",
      "name": "MacBookPro__Screen",
      "uri": "MacBookPro__Screen.png"
    }
  ],
  "accessors": [
    {
      "bufferView": 0,
      "componentType": 5126,
      "count": 14,
      "max": [1.7650530338287354, 2.4916892051696777, -1.2636113166809082],
      "min": [-1.7650530338287354, 0.1910707950592041, -1.6692721843719482],
      "type": "VEC3"
    },
    {
      "bufferView": 1,
      "componentType": 5126,
      "count": 14,
      "type": "VEC3"
    },
    {
      "bufferView": 2,
      "componentType": 5126,
      "count": 14,
      "type": "VEC2"
    },
    {
      "bufferView": 3,
      "componentType": 5123,
      "count": 36,
      "type": "SCALAR"
    },
    {
      "bufferView": 4,
      "componentType": 5126,
      "count": 1810,
      "max": [1.778499960899353, 2.5033082962036133, 1.2404999732971191],
      "min": [-1.778499960899353, 0, -1.6932743787765503],
      "type": "VEC3"
    },
    {
      "bufferView": 5,
      "componentType": 5126,
      "count": 1810,
      "type": "VEC3"
    },
    {
      "bufferView": 6,
      "componentType": 5126,
      "count": 1810,
      "type": "VEC2"
    },
    {
      "bufferView": 7,
      "componentType": 5123,
      "count": 3465,
      "type": "SCALAR"
    },
    {
      "bufferView": 8,
      "componentType": 5126,
      "count": 11364,
      "max": [1.3635165691375732, 0.07500000298023224, 0.15189999341964722],
      "min": [-1.3635165691375732, 0.04999995231628418, -1.0443000793457031],
      "type": "VEC3"
    },
    {
      "bufferView": 9,
      "componentType": 5126,
      "count": 11364,
      "type": "VEC3"
    },
    {
      "bufferView": 10,
      "componentType": 5126,
      "count": 11364,
      "type": "VEC2"
    },
    {
      "bufferView": 11,
      "componentType": 5123,
      "count": 21714,
      "type": "SCALAR"
    }
  ],
  "bufferViews": [
    {
      "buffer": 0,
      "byteLength": 168,
      "byteOffset": 0,
      "target": 34962
    },
    {
      "buffer": 0,
      "byteLength": 168,
      "byteOffset": 168,
      "target": 34962
    },
    {
      "buffer": 0,
      "byteLength": 112,
      "byteOffset": 336,
      "target": 34962
    },
    {
      "buffer": 0,
      "byteLength": 72,
      "byteOffset": 448,
      "target": 34963
    },
    {
      "buffer": 0,
      "byteLength": 21720,
      "byteOffset": 520,
      "target": 34962
    },
    {
      "buffer": 0,
      "byteLength": 21720,
      "byteOffset": 22240,
      "target": 34962
    },
    {
      "buffer": 0,
      "byteLength": 14480,
      "byteOffset": 43960,
      "target": 34962
    },
    {
      "buffer": 0,
      "byteLength": 6930,
      "byteOffset": 58440,
      "target": 34963
    },
    {
      "buffer": 0,
      "byteLength": 136368,
      "byteOffset": 65372,
      "target": 34962
    },
    {
      "buffer": 0,
      "byteLength": 136368,
      "byteOffset": 201740,
      "target": 34962
    },
    {
      "buffer": 0,
      "byteLength": 90912,
      "byteOffset": 338108,
      "target": 34962
    },
    {
      "buffer": 0,
      "byteLength": 43428,
      "byteOffset": 429020,
      "target": 34963
    }
  ],
  "samplers": [
    {
      "magFilter": 9729,
      "minFilter": 9987
    }
  ],
  "buffers": [
    {
      "byteLength": 472448,
      "uri": "MacBookPro.bin"
    }
  ]
}
