{
	"asset":{
		"generator":"Khronos glTF Blender I/O v4.1.62",
		"version":"2.0"
	},
	"scene":0,
	"scenes":[
		{
			"name":"Scene",
			"nodes":[
				0
			]
		}
	],
	"nodes":[
		{
			"mesh":0,
			"name":"SpeakerEnclosure"
		}
	],
	"meshes":[
		{
			"name":"SpeakerEnclosure",
			"primitives":[
				{
					"attributes":{
						"POSITION":0,
						"NORMAL":1,
						"TEXCOORD_0":2,
						"TEXCOORD_1":3
					},
					"indices":4
				}
			]
		}
	],
	"accessors":[
		{
			"bufferView":0,
			"componentType":5126,
			"count":5107,
			"max":[
				1,
				8.199999809265137,
				1
			],
			"min":[
				-1,
				5.9604641222676946e-08,
				-1
			],
			"type":"VEC3"
		},
		{
			"bufferView":1,
			"componentType":5126,
			"count":5107,
			"type":"VEC3"
		},
		{
			"bufferView":2,
			"componentType":5126,
			"count":5107,
			"type":"VEC2"
		},
		{
			"bufferView":3,
			"componentType":5126,
			"count":5107,
			"type":"VEC2"
		},
		{
			"bufferView":4,
			"componentType":5123,
			"count":8199,
			"type":"SCALAR"
		}
	],
	"bufferViews":[
		{
			"buffer":0,
			"byteLength":61284,
			"byteOffset":0,
			"target":34962
		},
		{
			"buffer":0,
			"byteLength":61284,
			"byteOffset":61284,
			"target":34962
		},
		{
			"buffer":0,
			"byteLength":40856,
			"byteOffset":122568,
			"target":34962
		},
		{
			"buffer":0,
			"byteLength":40856,
			"byteOffset":163424,
			"target":34962
		},
		{
			"buffer":0,
			"byteLength":16398,
			"byteOffset":204280,
			"target":34963
		}
	],
	"buffers":[
		{
			"byteLength":220680,
			"uri":"SpeakerEnclosure.bin"
		}
	]
}
