{
	"asset":{
		"generator":"Khronos glTF Blender I/O v4.1.62",
		"version":"2.0"
	},
	"scene":0,
	"scenes":[
		{
			"name":"Scene",
			"nodes":[
				0
			]
		}
	],
	"nodes":[
		{
			"mesh":0,
			"name":"Speaker"
		}
	],
	"meshes":[
		{
			"name":"Speaker",
			"primitives":[
				{
					"attributes":{
						"POSITION":0,
						"NORMAL":1,
						"TEXCOORD_0":2,
						"TEXCOORD_1":3
					},
					"indices":4
				}
			]
		}
	],
	"accessors":[
		{
			"bufferView":0,
			"componentType":5126,
			"count":7488,
			"max":[
				0.7780501246452332,
				7.566595077514648,
				1.0799999237060547
			],
			"min":[
				-0.7780500650405884,
				6.010494709014893,
				0.7301583290100098
			],
			"type":"VEC3"
		},
		{
			"bufferView":1,
			"componentType":5126,
			"count":7488,
			"type":"VEC3"
		},
		{
			"bufferView":2,
			"componentType":5126,
			"count":7488,
			"type":"VEC2"
		},
		{
			"bufferView":3,
			"componentType":5126,
			"count":7488,
			"type":"VEC2"
		},
		{
			"bufferView":4,
			"componentType":5123,
			"count":11706,
			"type":"SCALAR"
		}
	],
	"bufferViews":[
		{
			"buffer":0,
			"byteLength":89856,
			"byteOffset":0,
			"target":34962
		},
		{
			"buffer":0,
			"byteLength":89856,
			"byteOffset":89856,
			"target":34962
		},
		{
			"buffer":0,
			"byteLength":59904,
			"byteOffset":179712,
			"target":34962
		},
		{
			"buffer":0,
			"byteLength":59904,
			"byteOffset":239616,
			"target":34962
		},
		{
			"buffer":0,
			"byteLength":23412,
			"byteOffset":299520,
			"target":34963
		}
	],
	"buffers":[
		{
			"byteLength":322932,
			"uri":"Speaker.bin"
		}
	]
}
