{
  "asset": {
    "generator": "Khronos glTF Blender I/O v4.1.62",
    "version": "2.0"
  },
  "extensionsUsed": ["KHR_texture_transform", "EXT_texture_webp"],
  "extensionsRequired": ["KHR_texture_transform", "EXT_texture_webp"],
  "scene": 0,
  "scenes": [
    {
      "name": "Scene",
      "nodes": [0]
    }
  ],
  "nodes": [
    {
      "mesh": 0,
      "name": "Trinity"
    }
  ],
  "materials": [
    {
      "alphaMode": "BLEND",
      "doubleSided": true,
      "name": "gold",
      "normalTexture": {
        "extensions": {
          "KHR_texture_transform": {
            "offset": [0, 0.8999999985098839],
            "scale": [0.10000000149011612, 0.10000000149011612]
          }
        },
        "index": 0,
        "scale": 0.10000000149011612,
        "texCoord": 1
      },
      "pbrMetallicRoughness": {
        "baseColorTexture": {
          "extensions": {
            "KHR_texture_transform": {
              "offset": [0, 0.8999999985098839],
              "scale": [0.10000000149011612, 0.10000000149011612]
            }
          },
          "index": 1,
          "texCoord": 1
        },
        "metallicFactor": 0.40454545617103577,
        "metallicRoughnessTexture": {
          "extensions": {
            "KHR_texture_transform": {
              "offset": [0, 0.8999999985098839],
              "scale": [0.10000000149011612, 0.10000000149011612]
            }
          },
          "index": 2,
          "texCoord": 1
        }
      }
    },
    {
      "doubleSided": true,
      "name": "trinity",
      "pbrMetallicRoughness": {
        "baseColorTexture": {
          "index": 3,
          "texCoord": 1
        },
        "metallicFactor": 0,
        "roughnessFactor": 0.5
      }
    }
  ],
  "meshes": [
    {
      "name": "Trinity",
      "primitives": [
        {
          "attributes": {
            "POSITION": 0,
            "NORMAL": 1,
            "TEXCOORD_0": 2,
            "TEXCOORD_1": 3
          },
          "indices": 4,
          "material": 0
        },
        {
          "attributes": {
            "POSITION": 5,
            "NORMAL": 6,
            "TEXCOORD_0": 7,
            "TEXCOORD_1": 8
          },
          "indices": 9,
          "material": 1
        }
      ]
    }
  ],
  "textures": [
    {
      "sampler": 0,
      "source": 0
    },
    {
      "sampler": 0,
      "source": 1
    },
    {
      "sampler": 0,
      "source": 2
    },
    {
      "extensions": {
        "EXT_texture_webp": {
          "source": 3
        }
      },
      "sampler": 0
    }
  ],
  "images": [
    {
      "mimeType": "image/jpeg",
      "name": "Gold_normal",
      "uri": "Gold_normal.jpg"
    },
    {
      "mimeType": "image/jpeg",
      "name": "Gold_basecolor",
      "uri": "Gold_basecolor.jpg"
    },
    {
      "mimeType": "image/png",
      "name": "Gold_roughness",
      "uri": "Gold_roughness.png"
    },
    {
      "mimeType": "image/webp",
      "name": "Lienzo-de-la-Santisima-Trinidad.webp",
      "uri": "Lienzo-de-la-Santisima-Trinidad_webp.webp"
    }
  ],
  "accessors": [
    {
      "bufferView": 0,
      "componentType": 5126,
      "count": 424,
      "max": [-14.393999099731445, 22.659997940063477, -14.124220848083496],
      "min": [-16.96599769592285, 19.139997482299805, -14.500000953674316],
      "type": "VEC3"
    },
    {
      "bufferView": 1,
      "componentType": 5126,
      "count": 424,
      "type": "VEC3"
    },
    {
      "bufferView": 2,
      "componentType": 5126,
      "count": 424,
      "type": "VEC2"
    },
    {
      "bufferView": 3,
      "componentType": 5126,
      "count": 424,
      "type": "VEC2"
    },
    {
      "bufferView": 4,
      "componentType": 5123,
      "count": 648,
      "type": "SCALAR"
    },
    {
      "bufferView": 5,
      "componentType": 5126,
      "count": 4,
      "max": [-14.653998374938965, 22.39999771118164, -14.413399696350098],
      "min": [-16.705997467041016, 19.39999771118164, -14.413400650024414],
      "type": "VEC3"
    },
    {
      "bufferView": 6,
      "componentType": 5126,
      "count": 4,
      "type": "VEC3"
    },
    {
      "bufferView": 7,
      "componentType": 5126,
      "count": 4,
      "type": "VEC2"
    },
    {
      "bufferView": 8,
      "componentType": 5126,
      "count": 4,
      "type": "VEC2"
    },
    {
      "bufferView": 9,
      "componentType": 5123,
      "count": 6,
      "type": "SCALAR"
    }
  ],
  "bufferViews": [
    {
      "buffer": 0,
      "byteLength": 5088,
      "byteOffset": 0,
      "target": 34962
    },
    {
      "buffer": 0,
      "byteLength": 5088,
      "byteOffset": 5088,
      "target": 34962
    },
    {
      "buffer": 0,
      "byteLength": 3392,
      "byteOffset": 10176,
      "target": 34962
    },
    {
      "buffer": 0,
      "byteLength": 3392,
      "byteOffset": 13568,
      "target": 34962
    },
    {
      "buffer": 0,
      "byteLength": 1296,
      "byteOffset": 16960,
      "target": 34963
    },
    {
      "buffer": 0,
      "byteLength": 48,
      "byteOffset": 18256,
      "target": 34962
    },
    {
      "buffer": 0,
      "byteLength": 48,
      "byteOffset": 18304,
      "target": 34962
    },
    {
      "buffer": 0,
      "byteLength": 32,
      "byteOffset": 18352,
      "target": 34962
    },
    {
      "buffer": 0,
      "byteLength": 32,
      "byteOffset": 18384,
      "target": 34962
    },
    {
      "buffer": 0,
      "byteLength": 12,
      "byteOffset": 18416,
      "target": 34963
    }
  ],
  "samplers": [
    {
      "magFilter": 9729,
      "minFilter": 9987
    }
  ],
  "buffers": [
    {
      "byteLength": 18428,
      "uri": "Trinity.bin"
    }
  ]
}
