{
	"asset":{
		"generator":"Khronos glTF Blender I/O v4.1.62",
		"version":"2.0"
	},
	"scene":0,
	"scenes":[
		{
			"name":"Scene",
			"nodes":[
				0
			]
		}
	],
	"nodes":[
		{
			"mesh":0,
			"name":"WoodenShelf"
		}
	],
	"meshes":[
		{
			"name":"WoodenShelf",
			"primitives":[
				{
					"attributes":{
						"POSITION":0,
						"NORMAL":1,
						"TEXCOORD_0":2,
						"TEXCOORD_1":3
					},
					"indices":4
				}
			]
		}
	],
	"accessors":[
		{
			"bufferView":0,
			"componentType":5126,
			"count":2952,
			"max":[
				6,
				1.3200000524520874,
				1.8000000715255737
			],
			"min":[
				-6,
				-0.7200000286102295,
				-0.24000000953674316
			],
			"type":"VEC3"
		},
		{
			"bufferView":1,
			"componentType":5126,
			"count":2952,
			"type":"VEC3"
		},
		{
			"bufferView":2,
			"componentType":5126,
			"count":2952,
			"type":"VEC2"
		},
		{
			"bufferView":3,
			"componentType":5126,
			"count":2952,
			"type":"VEC2"
		},
		{
			"bufferView":4,
			"componentType":5123,
			"count":4692,
			"type":"SCALAR"
		}
	],
	"bufferViews":[
		{
			"buffer":0,
			"byteLength":35424,
			"byteOffset":0,
			"target":34962
		},
		{
			"buffer":0,
			"byteLength":35424,
			"byteOffset":35424,
			"target":34962
		},
		{
			"buffer":0,
			"byteLength":23616,
			"byteOffset":70848,
			"target":34962
		},
		{
			"buffer":0,
			"byteLength":23616,
			"byteOffset":94464,
			"target":34962
		},
		{
			"buffer":0,
			"byteLength":9384,
			"byteOffset":118080,
			"target":34963
		}
	],
	"buffers":[
		{
			"byteLength":127464,
			"uri":"WoodenShelf.bin"
		}
	]
}
