{
  "asset": {
    "generator": "Khronos glTF Blender I/O v4.1.62",
    "version": "2.0"
  },
  "scene": 0,
  "scenes": [
    {
      "name": "Scene",
      "nodes": [0]
    }
  ],
  "nodes": [
    {
      "mesh": 0,
      "name": "WorldMap"
    }
  ],
  "meshes": [
    {
      "name": "WorldMap",
      "primitives": [
        {
          "attributes": {
            "POSITION": 0,
            "NORMAL": 1,
            "TEXCOORD_0": 2,
            "TEXCOORD_1": 3
          },
          "indices": 4
        }
      ]
    }
  ],
  "accessors": [
    {
      "bufferView": 0,
      "componentType": 5126,
      "count": 38210,
      "max": [1.3346803188323975, 3.4159703254699707, 1.334977149963379],
      "min": [-1.3346812725067139, 0, -1.3349790573120117],
      "type": "VEC3"
    },
    {
      "bufferView": 1,
      "componentType": 5126,
      "count": 38210,
      "type": "VEC3"
    },
    {
      "bufferView": 2,
      "componentType": 5126,
      "count": 38210,
      "type": "VEC2"
    },
    {
      "bufferView": 3,
      "componentType": 5126,
      "count": 38210,
      "type": "VEC2"
    },
    {
      "bufferView": 4,
      "componentType": 5123,
      "count": 59142,
      "type": "SCALAR"
    }
  ],
  "bufferViews": [
    {
      "buffer": 0,
      "byteLength": 458520,
      "byteOffset": 0,
      "target": 34962
    },
    {
      "buffer": 0,
      "byteLength": 458520,
      "byteOffset": 458520,
      "target": 34962
    },
    {
      "buffer": 0,
      "byteLength": 305680,
      "byteOffset": 917040,
      "target": 34962
    },
    {
      "buffer": 0,
      "byteLength": 305680,
      "byteOffset": 1222720,
      "target": 34962
    },
    {
      "buffer": 0,
      "byteLength": 118284,
      "byteOffset": 1528400,
      "target": 34963
    }
  ],
  "buffers": [
    {
      "byteLength": 1646684,
      "uri": "WorldMap.bin"
    }
  ]
}
