{
  "asset": {
    "generator": "Khronos glTF Blender I/O v4.1.62",
    "version": "2.0"
  },
  "scene": 0,
  "scenes": [
    {
      "name": "Scene",
      "nodes": [0]
    }
  ],
  "nodes": [
    {
      "mesh": 0,
      "name": "Grass"
    }
  ],
  "materials": [
    {
      "doubleSided": true,
      "name": "grass_green_M",
      "pbrMetallicRoughness": {
        "baseColorFactor": [
          0.08437561988830566, 0.1946180909872055, 0.026241270825266838, 1
        ],
        "metallicFactor": 0
      }
    },
    {
      "doubleSided": true,
      "name": "grass_green_D",
      "pbrMetallicRoughness": {
        "baseColorFactor": [
          0.06847769021987915, 0.15896104276180267, 0.021219054237008095, 1
        ],
        "metallicFactor": 0
      }
    },
    {
      "doubleSided": true,
      "name": "grass_green_XD",
      "pbrMetallicRoughness": {
        "baseColorFactor": [
          0.04970621317625046, 0.10702323913574219, 0.01520854327827692, 1
        ],
        "metallicFactor": 0
      }
    },
    {
      "doubleSided": true,
      "name": "grass_green_XL",
      "pbrMetallicRoughness": {
        "baseColorFactor": [
          0.104615718126297, 0.2581833302974701, 0.03189610689878464, 1
        ],
        "metallicFactor": 0
      }
    },
    {
      "doubleSided": true,
      "name": "grass_green_L",
      "pbrMetallicRoughness": {
        "baseColorFactor": [
          0.10461574047803879, 0.24228140711784363, 0.02955690398812294, 1
        ],
        "metallicFactor": 0
      }
    }
  ],
  "meshes": [
    {
      "name": "Grass",
      "primitives": [
        {
          "attributes": {
            "POSITION": 0,
            "NORMAL": 1,
            "TEXCOORD_0": 2
          },
          "indices": 3,
          "material": 0
        },
        {
          "attributes": {
            "POSITION": 4,
            "NORMAL": 5,
            "TEXCOORD_0": 6
          },
          "indices": 7,
          "material": 1
        },
        {
          "attributes": {
            "POSITION": 8,
            "NORMAL": 9,
            "TEXCOORD_0": 10
          },
          "indices": 11,
          "material": 2
        },
        {
          "attributes": {
            "POSITION": 12,
            "NORMAL": 13,
            "TEXCOORD_0": 14
          },
          "indices": 15,
          "material": 3
        },
        {
          "attributes": {
            "POSITION": 16,
            "NORMAL": 17,
            "TEXCOORD_0": 18
          },
          "indices": 19,
          "material": 4
        }
      ]
    }
  ],
  "accessors": [
    {
      "bufferView": 0,
      "componentType": 5126,
      "count": 634,
      "max": [2.5, 0, 2.5],
      "min": [-2.5, 0, -2.5],
      "type": "VEC3"
    },
    {
      "bufferView": 1,
      "componentType": 5126,
      "count": 634,
      "type": "VEC3"
    },
    {
      "bufferView": 2,
      "componentType": 5126,
      "count": 634,
      "type": "VEC2"
    },
    {
      "bufferView": 3,
      "componentType": 5123,
      "count": 2112,
      "type": "SCALAR"
    },
    {
      "bufferView": 4,
      "componentType": 5126,
      "count": 214,
      "max": [2.5, 0, 2.299999952316284],
      "min": [-2.5, 0, -2.5],
      "type": "VEC3"
    },
    {
      "bufferView": 5,
      "componentType": 5126,
      "count": 214,
      "type": "VEC3"
    },
    {
      "bufferView": 6,
      "componentType": 5126,
      "count": 214,
      "type": "VEC2"
    },
    {
      "bufferView": 7,
      "componentType": 5123,
      "count": 342,
      "type": "SCALAR"
    },
    {
      "bufferView": 8,
      "componentType": 5126,
      "count": 281,
      "max": [2.5, 0, 2.5],
      "min": [-2.5, 0, -2.5],
      "type": "VEC3"
    },
    {
      "bufferView": 9,
      "componentType": 5126,
      "count": 281,
      "type": "VEC3"
    },
    {
      "bufferView": 10,
      "componentType": 5126,
      "count": 281,
      "type": "VEC2"
    },
    {
      "bufferView": 11,
      "componentType": 5123,
      "count": 486,
      "type": "SCALAR"
    },
    {
      "bufferView": 12,
      "componentType": 5126,
      "count": 220,
      "max": [2.5, 0, 2.5],
      "min": [-2.5, 0, -2.5],
      "type": "VEC3"
    },
    {
      "bufferView": 13,
      "componentType": 5126,
      "count": 220,
      "type": "VEC3"
    },
    {
      "bufferView": 14,
      "componentType": 5126,
      "count": 220,
      "type": "VEC2"
    },
    {
      "bufferView": 15,
      "componentType": 5123,
      "count": 372,
      "type": "SCALAR"
    },
    {
      "bufferView": 16,
      "componentType": 5126,
      "count": 264,
      "max": [2.5, 0, 2.5],
      "min": [-2.5, 0, -2.5],
      "type": "VEC3"
    },
    {
      "bufferView": 17,
      "componentType": 5126,
      "count": 264,
      "type": "VEC3"
    },
    {
      "bufferView": 18,
      "componentType": 5126,
      "count": 264,
      "type": "VEC2"
    },
    {
      "bufferView": 19,
      "componentType": 5123,
      "count": 438,
      "type": "SCALAR"
    }
  ],
  "bufferViews": [
    {
      "buffer": 0,
      "byteLength": 7608,
      "byteOffset": 0,
      "target": 34962
    },
    {
      "buffer": 0,
      "byteLength": 7608,
      "byteOffset": 7608,
      "target": 34962
    },
    {
      "buffer": 0,
      "byteLength": 5072,
      "byteOffset": 15216,
      "target": 34962
    },
    {
      "buffer": 0,
      "byteLength": 4224,
      "byteOffset": 20288,
      "target": 34963
    },
    {
      "buffer": 0,
      "byteLength": 2568,
      "byteOffset": 24512,
      "target": 34962
    },
    {
      "buffer": 0,
      "byteLength": 2568,
      "byteOffset": 27080,
      "target": 34962
    },
    {
      "buffer": 0,
      "byteLength": 1712,
      "byteOffset": 29648,
      "target": 34962
    },
    {
      "buffer": 0,
      "byteLength": 684,
      "byteOffset": 31360,
      "target": 34963
    },
    {
      "buffer": 0,
      "byteLength": 3372,
      "byteOffset": 32044,
      "target": 34962
    },
    {
      "buffer": 0,
      "byteLength": 3372,
      "byteOffset": 35416,
      "target": 34962
    },
    {
      "buffer": 0,
      "byteLength": 2248,
      "byteOffset": 38788,
      "target": 34962
    },
    {
      "buffer": 0,
      "byteLength": 972,
      "byteOffset": 41036,
      "target": 34963
    },
    {
      "buffer": 0,
      "byteLength": 2640,
      "byteOffset": 42008,
      "target": 34962
    },
    {
      "buffer": 0,
      "byteLength": 2640,
      "byteOffset": 44648,
      "target": 34962
    },
    {
      "buffer": 0,
      "byteLength": 1760,
      "byteOffset": 47288,
      "target": 34962
    },
    {
      "buffer": 0,
      "byteLength": 744,
      "byteOffset": 49048,
      "target": 34963
    },
    {
      "buffer": 0,
      "byteLength": 3168,
      "byteOffset": 49792,
      "target": 34962
    },
    {
      "buffer": 0,
      "byteLength": 3168,
      "byteOffset": 52960,
      "target": 34962
    },
    {
      "buffer": 0,
      "byteLength": 2112,
      "byteOffset": 56128,
      "target": 34962
    },
    {
      "buffer": 0,
      "byteLength": 876,
      "byteOffset": 58240,
      "target": 34963
    }
  ],
  "buffers": [
    {
      "byteLength": 59116,
      "uri": "Grass.bin"
    }
  ]
}
