{
  "asset": {
    "generator": "Khronos glTF Blender I/O v4.1.62",
    "version": "2.0"
  },
  "scene": 0,
  "scenes": [
    {
      "name": "Scene",
      "nodes": [0]
    }
  ],
  "nodes": [
    {
      "mesh": 0,
      "name": "SnakeCellCorner",
      "rotation": [0, 0, -1, 0],
      "scale": [-1, -1, -1],
      "translation": [-1, 0.5, 0]
    }
  ],
  "materials": [
    {
      "doubleSided": true,
      "name": "snake_turquoise_D",
      "pbrMetallicRoughness": {
        "baseColorFactor": [0.02955639734864235, 0.21223096549510956, 0.18116432428359985, 1],
        "metallicFactor": 0
      }
    },
    {
      "doubleSided": true,
      "name": "snake_black",
      "pbrMetallicRoughness": {
        "baseColorFactor": [0, 0, 0, 1],
        "metallicFactor": 0
      }
    },
    {
      "doubleSided": true,
      "name": "snake_red_M",
      "pbrMetallicRoughness": {
        "baseColorFactor": [1, 0, 0, 1],
        "metallicFactor": 0
      }
    },
    {
      "doubleSided": true,
      "name": "snake_red_XXL",
      "pbrMetallicRoughness": {
        "baseColorFactor": [1, 0.21586060523986816, 0.21586063504219055, 1],
        "metallicFactor": 0
      }
    },
    {
      "doubleSided": true,
      "name": "snake_blue",
      "pbrMetallicRoughness": {
        "baseColorFactor": [0.0027316738851368427, 0.008023172616958618, 0.07618542015552521, 1],
        "metallicFactor": 0
      }
    },
    {
      "doubleSided": true,
      "name": "snake_brown",
      "pbrMetallicRoughness": {
        "baseColorFactor": [0.07618501037359238, 0.006512091029435396, 0.0003035300178453326, 1],
        "metallicFactor": 0
      }
    },
    {
      "doubleSided": true,
      "name": "snake_orange_D",
      "pbrMetallicRoughness": {
        "baseColorFactor": [0.4232655167579651, 0.06847822666168213, 0.0080232173204422, 1],
        "metallicFactor": 0
      }
    },
    {
      "doubleSided": true,
      "name": "snake_turquoise_L",
      "pbrMetallicRoughness": {
        "baseColorFactor": [0.03820342943072319, 0.5775811076164246, 0.40724048018455505, 1],
        "metallicFactor": 0
      }
    },
    {
      "doubleSided": true,
      "name": "snake_orange_L",
      "pbrMetallicRoughness": {
        "baseColorFactor": [1, 0.13286840915679932, 0, 1],
        "metallicFactor": 0
      }
    }
  ],
  "meshes": [
    {
      "name": "SnakeCellCorner",
      "primitives": [
        {
          "attributes": {
            "POSITION": 0,
            "NORMAL": 1,
            "TEXCOORD_0": 2
          },
          "indices": 3,
          "material": 0
        },
        {
          "attributes": {
            "POSITION": 4,
            "NORMAL": 5,
            "TEXCOORD_0": 6
          },
          "indices": 7,
          "material": 1
        },
        {
          "attributes": {
            "POSITION": 8,
            "NORMAL": 9,
            "TEXCOORD_0": 10
          },
          "indices": 11,
          "material": 2
        },
        {
          "attributes": {
            "POSITION": 12,
            "NORMAL": 13,
            "TEXCOORD_0": 14
          },
          "indices": 15,
          "material": 3
        },
        {
          "attributes": {
            "POSITION": 16,
            "NORMAL": 17,
            "TEXCOORD_0": 18
          },
          "indices": 19,
          "material": 4
        },
        {
          "attributes": {
            "POSITION": 20,
            "NORMAL": 21,
            "TEXCOORD_0": 22
          },
          "indices": 23,
          "material": 5
        },
        {
          "attributes": {
            "POSITION": 24,
            "NORMAL": 25,
            "TEXCOORD_0": 26
          },
          "indices": 27,
          "material": 6
        },
        {
          "attributes": {
            "POSITION": 28,
            "NORMAL": 29,
            "TEXCOORD_0": 30
          },
          "indices": 31,
          "material": 7
        },
        {
          "attributes": {
            "POSITION": 32,
            "NORMAL": 33,
            "TEXCOORD_0": 34
          },
          "indices": 15,
          "material": 8
        }
      ]
    }
  ],
  "accessors": [
    {
      "bufferView": 0,
      "componentType": 5126,
      "count": 27,
      "max": [0.26999998092651367, 0.44999998807907104, 0.26999998092651367],
      "min": [-0.44999998807907104, -0.44999998807907104, -0.45000001788139343],
      "type": "VEC3"
    },
    {
      "bufferView": 1,
      "componentType": 5126,
      "count": 27,
      "type": "VEC3"
    },
    {
      "bufferView": 2,
      "componentType": 5126,
      "count": 27,
      "type": "VEC2"
    },
    {
      "bufferView": 3,
      "componentType": 5123,
      "count": 42,
      "type": "SCALAR"
    },
    {
      "bufferView": 4,
      "componentType": 5126,
      "count": 161,
      "max": [0.45000001788139343, 0.44999998807907104, 0.44999998807907104],
      "min": [-0.45000001788139343, -0.4500000476837158, -0.45000001788139343],
      "type": "VEC3"
    },
    {
      "bufferView": 5,
      "componentType": 5126,
      "count": 161,
      "type": "VEC3"
    },
    {
      "bufferView": 6,
      "componentType": 5126,
      "count": 161,
      "type": "VEC2"
    },
    {
      "bufferView": 7,
      "componentType": 5123,
      "count": 354,
      "type": "SCALAR"
    },
    {
      "bufferView": 8,
      "componentType": 5126,
      "count": 32,
      "max": [0.2699999511241913, 0.27000001072883606, 0.27000001072883606],
      "min": [-0.44999998807907104, -0.27000001072883606, -0.44999998807907104],
      "type": "VEC3"
    },
    {
      "bufferView": 9,
      "componentType": 5126,
      "count": 32,
      "type": "VEC3"
    },
    {
      "bufferView": 10,
      "componentType": 5126,
      "count": 32,
      "type": "VEC2"
    },
    {
      "bufferView": 11,
      "componentType": 5123,
      "count": 96,
      "type": "SCALAR"
    },
    {
      "bufferView": 12,
      "componentType": 5126,
      "count": 8,
      "max": [0.08999999612569809, 0.08999998867511749, 0.0899999737739563],
      "min": [-0.44999998807907104, -0.09000001102685928, -0.44999998807907104],
      "type": "VEC3"
    },
    {
      "bufferView": 13,
      "componentType": 5126,
      "count": 8,
      "type": "VEC3"
    },
    {
      "bufferView": 14,
      "componentType": 5126,
      "count": 8,
      "type": "VEC2"
    },
    {
      "bufferView": 15,
      "componentType": 5123,
      "count": 12,
      "type": "SCALAR"
    },
    {
      "bufferView": 16,
      "componentType": 5126,
      "count": 72,
      "max": [0.45000001788139343, 0.44999998807907104, 0.44999995827674866],
      "min": [-0.44999998807907104, -0.44999998807907104, -0.44999998807907104],
      "type": "VEC3"
    },
    {
      "bufferView": 17,
      "componentType": 5126,
      "count": 72,
      "type": "VEC3"
    },
    {
      "bufferView": 18,
      "componentType": 5126,
      "count": 72,
      "type": "VEC2"
    },
    {
      "bufferView": 19,
      "componentType": 5123,
      "count": 114,
      "type": "SCALAR"
    },
    {
      "bufferView": 20,
      "componentType": 5126,
      "count": 74,
      "max": [0.45000001788139343, 0.27000007033348083, 0.44999998807907104],
      "min": [-0.45000001788139343, -0.27000001072883606, -0.45000001788139343],
      "type": "VEC3"
    },
    {
      "bufferView": 21,
      "componentType": 5126,
      "count": 74,
      "type": "VEC3"
    },
    {
      "bufferView": 22,
      "componentType": 5126,
      "count": 74,
      "type": "VEC2"
    },
    {
      "bufferView": 23,
      "componentType": 5123,
      "count": 132,
      "type": "SCALAR"
    },
    {
      "bufferView": 24,
      "componentType": 5126,
      "count": 32,
      "max": [0.44999998807907104, 0.27000004053115845, 0.44999998807907104],
      "min": [-0.26999998092651367, -0.27000001072883606, -0.26999998092651367],
      "type": "VEC3"
    },
    {
      "bufferView": 25,
      "componentType": 5126,
      "count": 32,
      "type": "VEC3"
    },
    {
      "bufferView": 26,
      "componentType": 5126,
      "count": 32,
      "type": "VEC2"
    },
    {
      "bufferView": 27,
      "componentType": 5123,
      "count": 48,
      "type": "SCALAR"
    },
    {
      "bufferView": 28,
      "componentType": 5126,
      "count": 20,
      "max": [0.27000001072883606, 0.44999998807907104, 0.26999998092651367],
      "min": [-0.44999998807907104, -0.44999998807907104, -0.44999998807907104],
      "type": "VEC3"
    },
    {
      "bufferView": 29,
      "componentType": 5126,
      "count": 20,
      "type": "VEC3"
    },
    {
      "bufferView": 30,
      "componentType": 5126,
      "count": 20,
      "type": "VEC2"
    },
    {
      "bufferView": 31,
      "componentType": 5123,
      "count": 30,
      "type": "SCALAR"
    },
    {
      "bufferView": 32,
      "componentType": 5126,
      "count": 8,
      "max": [0.44999998807907104, 0.0899999812245369, 0.44999998807907104],
      "min": [-0.09000001102685928, -0.09000001102685928, -0.0899999737739563],
      "type": "VEC3"
    },
    {
      "bufferView": 33,
      "componentType": 5126,
      "count": 8,
      "type": "VEC3"
    },
    {
      "bufferView": 34,
      "componentType": 5126,
      "count": 8,
      "type": "VEC2"
    }
  ],
  "bufferViews": [
    {
      "buffer": 0,
      "byteLength": 324,
      "byteOffset": 0,
      "target": 34962
    },
    {
      "buffer": 0,
      "byteLength": 324,
      "byteOffset": 324,
      "target": 34962
    },
    {
      "buffer": 0,
      "byteLength": 216,
      "byteOffset": 648,
      "target": 34962
    },
    {
      "buffer": 0,
      "byteLength": 84,
      "byteOffset": 864,
      "target": 34963
    },
    {
      "buffer": 0,
      "byteLength": 1932,
      "byteOffset": 948,
      "target": 34962
    },
    {
      "buffer": 0,
      "byteLength": 1932,
      "byteOffset": 2880,
      "target": 34962
    },
    {
      "buffer": 0,
      "byteLength": 1288,
      "byteOffset": 4812,
      "target": 34962
    },
    {
      "buffer": 0,
      "byteLength": 708,
      "byteOffset": 6100,
      "target": 34963
    },
    {
      "buffer": 0,
      "byteLength": 384,
      "byteOffset": 6808,
      "target": 34962
    },
    {
      "buffer": 0,
      "byteLength": 384,
      "byteOffset": 7192,
      "target": 34962
    },
    {
      "buffer": 0,
      "byteLength": 256,
      "byteOffset": 7576,
      "target": 34962
    },
    {
      "buffer": 0,
      "byteLength": 192,
      "byteOffset": 7832,
      "target": 34963
    },
    {
      "buffer": 0,
      "byteLength": 96,
      "byteOffset": 8024,
      "target": 34962
    },
    {
      "buffer": 0,
      "byteLength": 96,
      "byteOffset": 8120,
      "target": 34962
    },
    {
      "buffer": 0,
      "byteLength": 64,
      "byteOffset": 8216,
      "target": 34962
    },
    {
      "buffer": 0,
      "byteLength": 24,
      "byteOffset": 8280,
      "target": 34963
    },
    {
      "buffer": 0,
      "byteLength": 864,
      "byteOffset": 8304,
      "target": 34962
    },
    {
      "buffer": 0,
      "byteLength": 864,
      "byteOffset": 9168,
      "target": 34962
    },
    {
      "buffer": 0,
      "byteLength": 576,
      "byteOffset": 10032,
      "target": 34962
    },
    {
      "buffer": 0,
      "byteLength": 228,
      "byteOffset": 10608,
      "target": 34963
    },
    {
      "buffer": 0,
      "byteLength": 888,
      "byteOffset": 10836,
      "target": 34962
    },
    {
      "buffer": 0,
      "byteLength": 888,
      "byteOffset": 11724,
      "target": 34962
    },
    {
      "buffer": 0,
      "byteLength": 592,
      "byteOffset": 12612,
      "target": 34962
    },
    {
      "buffer": 0,
      "byteLength": 264,
      "byteOffset": 13204,
      "target": 34963
    },
    {
      "buffer": 0,
      "byteLength": 384,
      "byteOffset": 13468,
      "target": 34962
    },
    {
      "buffer": 0,
      "byteLength": 384,
      "byteOffset": 13852,
      "target": 34962
    },
    {
      "buffer": 0,
      "byteLength": 256,
      "byteOffset": 14236,
      "target": 34962
    },
    {
      "buffer": 0,
      "byteLength": 96,
      "byteOffset": 14492,
      "target": 34963
    },
    {
      "buffer": 0,
      "byteLength": 240,
      "byteOffset": 14588,
      "target": 34962
    },
    {
      "buffer": 0,
      "byteLength": 240,
      "byteOffset": 14828,
      "target": 34962
    },
    {
      "buffer": 0,
      "byteLength": 160,
      "byteOffset": 15068,
      "target": 34962
    },
    {
      "buffer": 0,
      "byteLength": 60,
      "byteOffset": 15228,
      "target": 34963
    },
    {
      "buffer": 0,
      "byteLength": 96,
      "byteOffset": 15288,
      "target": 34962
    },
    {
      "buffer": 0,
      "byteLength": 96,
      "byteOffset": 15384,
      "target": 34962
    },
    {
      "buffer": 0,
      "byteLength": 64,
      "byteOffset": 15480,
      "target": 34962
    }
  ],
  "buffers": [
    {
      "byteLength": 15544,
      "uri": "SnakeCellCorner.bin"
    }
  ]
}
