{
  "asset": {
    "generator": "Khronos glTF Blender I/O v4.1.62",
    "version": "2.0"
  },
  "scene": 0,
  "scenes": [
    {
      "name": "Scene",
      "nodes": [0]
    }
  ],
  "nodes": [
    {
      "mesh": 0,
      "name": "SnakeCellCorner"
    }
  ],
  "materials": [
    {
      "doubleSided": true,
      "name": "snake_green_M",
      "pbrMetallicRoughness": {
        "baseColorFactor": [0.1328674852848053, 0.21586079895496368, 0, 1],
        "metallicFactor": 0
      }
    },
    {
      "doubleSided": true,
      "name": "snake_green_L",
      "pbrMetallicRoughness": {
        "baseColorFactor": [0.2461998015642166, 0.4019782543182373, 0, 1],
        "metallicFactor": 0
      }
    },
    {
      "doubleSided": true,
      "name": "snake_green_XL",
      "pbrMetallicRoughness": {
        "baseColorFactor": [0.4019751250743866, 0.6583756804466248, 0, 1],
        "metallicFactor": 0
      }
    },
    {
      "doubleSided": true,
      "name": "snake_green_D",
      "pbrMetallicRoughness": {
        "baseColorFactor": [0.057805053889751434, 0.09084182977676392, 0, 1],
        "metallicFactor": 0
      }
    },
    {
      "doubleSided": true,
      "name": "snake_green_XD",
      "pbrMetallicRoughness": {
        "baseColorFactor": [0.015996193513274193, 0.024157658219337463, 0, 1],
        "metallicFactor": 0
      }
    },
    {
      "doubleSided": true,
      "name": "snake_yellow_M",
      "pbrMetallicRoughness": {
        "baseColorFactor": [
          0.6514019966125488, 0.5028870105743408, 0.11443553864955902, 1
        ],
        "metallicFactor": 0
      }
    },
    {
      "doubleSided": true,
      "name": "snake_yellow_L",
      "pbrMetallicRoughness": {
        "baseColorFactor": [
          0.730456531047821, 0.6104964017868042, 0.24228130280971527, 1
        ],
        "metallicFactor": 0
      }
    },
    {
      "doubleSided": true,
      "name": "snake_yellow_XL",
      "pbrMetallicRoughness": {
        "baseColorFactor": [
          0.8148418068885803, 0.7230558395385742, 0.42869073152542114, 1
        ],
        "metallicFactor": 0
      }
    },
    {
      "doubleSided": true,
      "name": "snake_yellow_D",
      "pbrMetallicRoughness": {
        "baseColorFactor": [
          0.5775771737098694, 0.40724074840545654, 0.038204483687877655, 1
        ],
        "metallicFactor": 0
      }
    },
    {
      "doubleSided": true,
      "name": "snake_yellow_XD",
      "pbrMetallicRoughness": {
        "baseColorFactor": [
          0.35153061151504517, 0.2501586377620697, 0.025186927989125252, 1
        ],
        "metallicFactor": 0
      }
    }
  ],
  "meshes": [
    {
      "name": "SnakeCellCorner",
      "primitives": [
        {
          "attributes": {
            "POSITION": 0,
            "NORMAL": 1,
            "TEXCOORD_0": 2
          },
          "indices": 3,
          "material": 0
        },
        {
          "attributes": {
            "POSITION": 4,
            "NORMAL": 5,
            "TEXCOORD_0": 6
          },
          "indices": 7,
          "material": 1
        },
        {
          "attributes": {
            "POSITION": 8,
            "NORMAL": 9,
            "TEXCOORD_0": 10
          },
          "indices": 11,
          "material": 2
        },
        {
          "attributes": {
            "POSITION": 12,
            "NORMAL": 13,
            "TEXCOORD_0": 14
          },
          "indices": 15,
          "material": 3
        },
        {
          "attributes": {
            "POSITION": 16,
            "NORMAL": 17,
            "TEXCOORD_0": 18
          },
          "indices": 19,
          "material": 4
        },
        {
          "attributes": {
            "POSITION": 20,
            "NORMAL": 21,
            "TEXCOORD_0": 22
          },
          "indices": 23,
          "material": 5
        },
        {
          "attributes": {
            "POSITION": 24,
            "NORMAL": 25,
            "TEXCOORD_0": 26
          },
          "indices": 27,
          "material": 6
        },
        {
          "attributes": {
            "POSITION": 28,
            "NORMAL": 29,
            "TEXCOORD_0": 30
          },
          "indices": 31,
          "material": 7
        },
        {
          "attributes": {
            "POSITION": 32,
            "NORMAL": 33,
            "TEXCOORD_0": 34
          },
          "indices": 35,
          "material": 8
        },
        {
          "attributes": {
            "POSITION": 36,
            "NORMAL": 37,
            "TEXCOORD_0": 38
          },
          "indices": 39,
          "material": 9
        }
      ]
    }
  ],
  "accessors": [
    {
      "bufferView": 0,
      "componentType": 5126,
      "count": 63,
      "max": [0.44999998807907104, 0.44999998807907104, 0.45000001788139343],
      "min": [-0.45000001788139343, -0.09000001102685928, -0.44999998807907104],
      "type": "VEC3"
    },
    {
      "bufferView": 1,
      "componentType": 5126,
      "count": 63,
      "type": "VEC3"
    },
    {
      "bufferView": 2,
      "componentType": 5126,
      "count": 63,
      "type": "VEC2"
    },
    {
      "bufferView": 3,
      "componentType": 5123,
      "count": 132,
      "type": "SCALAR"
    },
    {
      "bufferView": 4,
      "componentType": 5126,
      "count": 65,
      "max": [0.08999999612569809, 0.44999998807907104, 0.44999998807907104],
      "min": [-0.45000001788139343, -0.09000001102685928, -0.45000001788139343],
      "type": "VEC3"
    },
    {
      "bufferView": 5,
      "componentType": 5126,
      "count": 65,
      "type": "VEC3"
    },
    {
      "bufferView": 6,
      "componentType": 5126,
      "count": 65,
      "type": "VEC2"
    },
    {
      "bufferView": 7,
      "componentType": 5123,
      "count": 138,
      "type": "SCALAR"
    },
    {
      "bufferView": 8,
      "componentType": 5126,
      "count": 20,
      "max": [-0.2699999511241913, 0.44999998807907104, 0.44999998807907104],
      "min": [-0.45000001788139343, -0.09000001102685928, -0.2699999511241913],
      "type": "VEC3"
    },
    {
      "bufferView": 9,
      "componentType": 5126,
      "count": 20,
      "type": "VEC3"
    },
    {
      "bufferView": 10,
      "componentType": 5126,
      "count": 20,
      "type": "VEC2"
    },
    {
      "bufferView": 11,
      "componentType": 5123,
      "count": 42,
      "type": "SCALAR"
    },
    {
      "bufferView": 12,
      "componentType": 5126,
      "count": 50,
      "max": [0.45000001788139343, 0.44999998807907104, 0.09000000357627869],
      "min": [-0.44999998807907104, -0.09000001102685928, -0.45000001788139343],
      "type": "VEC3"
    },
    {
      "bufferView": 13,
      "componentType": 5126,
      "count": 50,
      "type": "VEC3"
    },
    {
      "bufferView": 14,
      "componentType": 5126,
      "count": 50,
      "type": "VEC2"
    },
    {
      "bufferView": 15,
      "componentType": 5123,
      "count": 102,
      "type": "SCALAR"
    },
    {
      "bufferView": 16,
      "componentType": 5126,
      "count": 42,
      "max": [0.45000001788139343, 0.44999998807907104, -0.2699999511241913],
      "min": [-0.44999998807907104, 0.0899999812245369, -0.45000001788139343],
      "type": "VEC3"
    },
    {
      "bufferView": 17,
      "componentType": 5126,
      "count": 42,
      "type": "VEC3"
    },
    {
      "bufferView": 18,
      "componentType": 5126,
      "count": 42,
      "type": "VEC2"
    },
    {
      "bufferView": 19,
      "componentType": 5123,
      "count": 72,
      "type": "SCALAR"
    },
    {
      "bufferView": 20,
      "componentType": 5126,
      "count": 26,
      "max": [0.44999998807907104, -0.09000001102685928, 0.45000001788139343],
      "min": [-0.44999998807907104, -0.44999998807907104, -0.45000001788139343],
      "type": "VEC3"
    },
    {
      "bufferView": 21,
      "componentType": 5126,
      "count": 26,
      "type": "VEC3"
    },
    {
      "bufferView": 22,
      "componentType": 5126,
      "count": 26,
      "type": "VEC2"
    },
    {
      "bufferView": 23,
      "componentType": 5123,
      "count": 42,
      "type": "SCALAR"
    },
    {
      "bufferView": 24,
      "componentType": 5126,
      "count": 29,
      "max": [0.26999998092651367, -0.09000001102685928, 0.44999998807907104],
      "min": [-0.44999998807907104, -0.44999998807907104, -0.27000001072883606],
      "type": "VEC3"
    },
    {
      "bufferView": 25,
      "componentType": 5126,
      "count": 29,
      "type": "VEC3"
    },
    {
      "bufferView": 26,
      "componentType": 5126,
      "count": 29,
      "type": "VEC2"
    },
    {
      "bufferView": 27,
      "componentType": 5123,
      "count": 54,
      "type": "SCALAR"
    },
    {
      "bufferView": 28,
      "componentType": 5126,
      "count": 44,
      "max": [-0.0899999812245369, -0.08999999612569809, 0.44999998807907104],
      "min": [-0.45000001788139343, -0.44999998807907104, -0.45000001788139343],
      "type": "VEC3"
    },
    {
      "bufferView": 29,
      "componentType": 5126,
      "count": 44,
      "type": "VEC3"
    },
    {
      "bufferView": 30,
      "componentType": 5126,
      "count": 44,
      "type": "VEC2"
    },
    {
      "bufferView": 31,
      "componentType": 5123,
      "count": 108,
      "type": "SCALAR"
    },
    {
      "bufferView": 32,
      "componentType": 5126,
      "count": 29,
      "max": [0.44999998807907104, -0.09000001102685928, 0.27000001072883606],
      "min": [-0.26999998092651367, -0.44999998807907104, -0.44999995827674866],
      "type": "VEC3"
    },
    {
      "bufferView": 33,
      "componentType": 5126,
      "count": 29,
      "type": "VEC3"
    },
    {
      "bufferView": 34,
      "componentType": 5126,
      "count": 29,
      "type": "VEC2"
    },
    {
      "bufferView": 35,
      "componentType": 5123,
      "count": 54,
      "type": "SCALAR"
    },
    {
      "bufferView": 36,
      "componentType": 5126,
      "count": 45,
      "max": [0.45000001788139343, -0.08999999612569809, -0.0899999737739563],
      "min": [-0.44999998807907104, -0.4500000476837158, -0.45000001788139343],
      "type": "VEC3"
    },
    {
      "bufferView": 37,
      "componentType": 5126,
      "count": 45,
      "type": "VEC3"
    },
    {
      "bufferView": 38,
      "componentType": 5126,
      "count": 45,
      "type": "VEC2"
    },
    {
      "bufferView": 39,
      "componentType": 5123,
      "count": 108,
      "type": "SCALAR"
    }
  ],
  "bufferViews": [
    {
      "buffer": 0,
      "byteLength": 756,
      "byteOffset": 0,
      "target": 34962
    },
    {
      "buffer": 0,
      "byteLength": 756,
      "byteOffset": 756,
      "target": 34962
    },
    {
      "buffer": 0,
      "byteLength": 504,
      "byteOffset": 1512,
      "target": 34962
    },
    {
      "buffer": 0,
      "byteLength": 264,
      "byteOffset": 2016,
      "target": 34963
    },
    {
      "buffer": 0,
      "byteLength": 780,
      "byteOffset": 2280,
      "target": 34962
    },
    {
      "buffer": 0,
      "byteLength": 780,
      "byteOffset": 3060,
      "target": 34962
    },
    {
      "buffer": 0,
      "byteLength": 520,
      "byteOffset": 3840,
      "target": 34962
    },
    {
      "buffer": 0,
      "byteLength": 276,
      "byteOffset": 4360,
      "target": 34963
    },
    {
      "buffer": 0,
      "byteLength": 240,
      "byteOffset": 4636,
      "target": 34962
    },
    {
      "buffer": 0,
      "byteLength": 240,
      "byteOffset": 4876,
      "target": 34962
    },
    {
      "buffer": 0,
      "byteLength": 160,
      "byteOffset": 5116,
      "target": 34962
    },
    {
      "buffer": 0,
      "byteLength": 84,
      "byteOffset": 5276,
      "target": 34963
    },
    {
      "buffer": 0,
      "byteLength": 600,
      "byteOffset": 5360,
      "target": 34962
    },
    {
      "buffer": 0,
      "byteLength": 600,
      "byteOffset": 5960,
      "target": 34962
    },
    {
      "buffer": 0,
      "byteLength": 400,
      "byteOffset": 6560,
      "target": 34962
    },
    {
      "buffer": 0,
      "byteLength": 204,
      "byteOffset": 6960,
      "target": 34963
    },
    {
      "buffer": 0,
      "byteLength": 504,
      "byteOffset": 7164,
      "target": 34962
    },
    {
      "buffer": 0,
      "byteLength": 504,
      "byteOffset": 7668,
      "target": 34962
    },
    {
      "buffer": 0,
      "byteLength": 336,
      "byteOffset": 8172,
      "target": 34962
    },
    {
      "buffer": 0,
      "byteLength": 144,
      "byteOffset": 8508,
      "target": 34963
    },
    {
      "buffer": 0,
      "byteLength": 312,
      "byteOffset": 8652,
      "target": 34962
    },
    {
      "buffer": 0,
      "byteLength": 312,
      "byteOffset": 8964,
      "target": 34962
    },
    {
      "buffer": 0,
      "byteLength": 208,
      "byteOffset": 9276,
      "target": 34962
    },
    {
      "buffer": 0,
      "byteLength": 84,
      "byteOffset": 9484,
      "target": 34963
    },
    {
      "buffer": 0,
      "byteLength": 348,
      "byteOffset": 9568,
      "target": 34962
    },
    {
      "buffer": 0,
      "byteLength": 348,
      "byteOffset": 9916,
      "target": 34962
    },
    {
      "buffer": 0,
      "byteLength": 232,
      "byteOffset": 10264,
      "target": 34962
    },
    {
      "buffer": 0,
      "byteLength": 108,
      "byteOffset": 10496,
      "target": 34963
    },
    {
      "buffer": 0,
      "byteLength": 528,
      "byteOffset": 10604,
      "target": 34962
    },
    {
      "buffer": 0,
      "byteLength": 528,
      "byteOffset": 11132,
      "target": 34962
    },
    {
      "buffer": 0,
      "byteLength": 352,
      "byteOffset": 11660,
      "target": 34962
    },
    {
      "buffer": 0,
      "byteLength": 216,
      "byteOffset": 12012,
      "target": 34963
    },
    {
      "buffer": 0,
      "byteLength": 348,
      "byteOffset": 12228,
      "target": 34962
    },
    {
      "buffer": 0,
      "byteLength": 348,
      "byteOffset": 12576,
      "target": 34962
    },
    {
      "buffer": 0,
      "byteLength": 232,
      "byteOffset": 12924,
      "target": 34962
    },
    {
      "buffer": 0,
      "byteLength": 108,
      "byteOffset": 13156,
      "target": 34963
    },
    {
      "buffer": 0,
      "byteLength": 540,
      "byteOffset": 13264,
      "target": 34962
    },
    {
      "buffer": 0,
      "byteLength": 540,
      "byteOffset": 13804,
      "target": 34962
    },
    {
      "buffer": 0,
      "byteLength": 360,
      "byteOffset": 14344,
      "target": 34962
    },
    {
      "buffer": 0,
      "byteLength": 216,
      "byteOffset": 14704,
      "target": 34963
    }
  ],
  "buffers": [
    {
      "byteLength": 14920,
      "uri": "SnakeCellCorner.bin"
    }
  ]
}
