{
	"asset":{
		"generator":"Khronos glTF Blender I/O v4.1.62",
		"version":"2.0"
	},
	"scene":0,
	"scenes":[
		{
			"name":"Scene",
			"nodes":[
				0
			]
		}
	],
	"nodes":[
		{
			"mesh":0,
			"name":"SnakeHead"
		}
	],
	"materials":[
		{
			"doubleSided":true,
			"name":"Material",
			"pbrMetallicRoughness":{
				"baseColorFactor":[
					0.800000011920929,
					0.800000011920929,
					0.800000011920929,
					1
				],
				"metallicFactor":0,
				"roughnessFactor":0.5
			}
		}
	],
	"meshes":[
		{
			"name":"SnakeHead",
			"primitives":[
				{
					"attributes":{
						"POSITION":0,
						"NORMAL":1
					},
					"indices":2,
					"material":0
				}
			]
		}
	],
	"accessors":[
		{
			"bufferView":0,
			"componentType":5126,
			"count":12215,
			"max":[
				0.9153509140014648,
				0.3427257537841797,
				0.5157697796821594
			],
			"min":[
				-0.9813508987426758,
				-0.35605907440185547,
				-0.5157698392868042
			],
			"type":"VEC3"
		},
		{
			"bufferView":1,
			"componentType":5126,
			"count":12215,
			"type":"VEC3"
		},
		{
			"bufferView":2,
			"componentType":5123,
			"count":34332,
			"type":"SCALAR"
		}
	],
	"bufferViews":[
		{
			"buffer":0,
			"byteLength":146580,
			"byteOffset":0,
			"target":34962
		},
		{
			"buffer":0,
			"byteLength":146580,
			"byteOffset":146580,
			"target":34962
		},
		{
			"buffer":0,
			"byteLength":68664,
			"byteOffset":293160,
			"target":34963
		}
	],
	"buffers":[
		{
			"byteLength":361824,
			"uri":"SnakeHead.bin"
		}
	]
}
