{
	"asset":{
		"generator":"Khronos glTF Blender I/O v4.0.44",
		"version":"2.0"
	},
	"scene":0,
	"scenes":[
		{
			"name":"Scene",
			"nodes":[
				0
			]
		}
	],
	"nodes":[
		{
			"mesh":0,
			"name":"MHelliumBalloonLarge",
			"rotation":[
				0.7071068286895752,
				0,
				0,
				0.7071068286895752
			],
			"translation":[
				0,
				0,
				-2
			]
		}
	],
	"meshes":[
		{
			"name":"MHelliumBalloonLarge",
			"primitives":[
				{
					"attributes":{
						"POSITION":0,
						"NORMAL":1
					},
					"indices":2
				}
			]
		}
	],
	"accessors":[
		{
			"bufferView":0,
			"componentType":5126,
			"count":52656,
			"max":[
				0.738627016544342,
				0.14370335638523102,
				0.2687152326107025
			],
			"min":[
				-0.22473013401031494,
				-0.31065449118614197,
				-0.8010685443878174
			],
			"type":"VEC3"
		},
		{
			"bufferView":1,
			"componentType":5126,
			"count":52656,
			"type":"VEC3"
		},
		{
			"bufferView":2,
			"componentType":5123,
			"count":315924,
			"type":"SCALAR"
		}
	],
	"bufferViews":[
		{
			"buffer":0,
			"byteLength":631872,
			"byteOffset":0,
			"target":34962
		},
		{
			"buffer":0,
			"byteLength":631872,
			"byteOffset":631872,
			"target":34962
		},
		{
			"buffer":0,
			"byteLength":631848,
			"byteOffset":1263744,
			"target":34963
		}
	],
	"buffers":[
		{
			"byteLength":1895592,
			"uri":"MHelliumBalloonLarge.bin"
		}
	]
}
