{
  "asset": {
    "generator": "Khronos glTF Blender I/O v4.0.44",
    "version": "2.0"
  },
  "scene": 0,
  "scenes": [
    {
      "name": "Scene",
      "nodes": [0]
    }
  ],
  "nodes": [
    {
      "mesh": 0,
      "name": "MHelliumBalloon",
      "rotation": [0.7071068286895752, 0, 0, 0.7071068286895752],
      "translation": [-5, 0, -0.5999999642372131]
    }
  ],
  "meshes": [
    {
      "name": "MHelliumBalloon",
      "primitives": [
        {
          "attributes": {
            "POSITION": 0,
            "NORMAL": 1
          },
          "indices": 2
        }
      ]
    }
  ],
  "accessors": [
    {
      "bufferView": 0,
      "componentType": 5126,
      "count": 202938,
      "max": [0.7345587015151978, 0.1423533707857132, 0.2698959410190582],
      "min": [-0.21982957422733307, -0.29558485746383667, -0.8029462695121765],
      "type": "VEC3"
    },
    {
      "bufferView": 1,
      "componentType": 5126,
      "count": 202938,
      "type": "VEC3"
    },
    {
      "bufferView": 2,
      "componentType": 5125,
      "count": 1217616,
      "type": "SCALAR"
    }
  ],
  "bufferViews": [
    {
      "buffer": 0,
      "byteLength": 2435256,
      "byteOffset": 0,
      "target": 34962
    },
    {
      "buffer": 0,
      "byteLength": 2435256,
      "byteOffset": 2435256,
      "target": 34962
    },
    {
      "buffer": 0,
      "byteLength": 4870464,
      "byteOffset": 4870512,
      "target": 34963
    }
  ],
  "buffers": [
    {
      "byteLength": 9740976,
      "uri": "MHelliumBalloon.bin"
    }
  ]
}
