{
	"asset":{
		"generator":"Khronos glTF Blender I/O v4.0.44",
		"version":"2.0"
	},
	"scene":0,
	"scenes":[
		{
			"name":"Scene",
			"nodes":[
				0
			]
		}
	],
	"nodes":[
		{
			"mesh":0,
			"name":"OccupySpace"
		}
	],
	"meshes":[
		{
			"name":"OccupySpace",
			"primitives":[
				{
					"attributes":{
						"POSITION":0,
						"NORMAL":1,
						"TEXCOORD_0":2
					},
					"indices":3
				}
			]
		}
	],
	"accessors":[
		{
			"bufferView":0,
			"componentType":5126,
			"count":47816,
			"max":[
				1.8270903825759888,
				0.6499994993209839,
				0.30000004172325134
			],
			"min":[
				-1.8300000429153442,
				-0.6549485921859741,
				-2.6582746670555935e-08
			],
			"type":"VEC3"
		},
		{
			"bufferView":1,
			"componentType":5126,
			"count":47816,
			"type":"VEC3"
		},
		{
			"bufferView":2,
			"componentType":5126,
			"count":47816,
			"type":"VEC2"
		},
		{
			"bufferView":3,
			"componentType":5123,
			"count":73824,
			"type":"SCALAR"
		}
	],
	"bufferViews":[
		{
			"buffer":0,
			"byteLength":573792,
			"byteOffset":0,
			"target":34962
		},
		{
			"buffer":0,
			"byteLength":573792,
			"byteOffset":573792,
			"target":34962
		},
		{
			"buffer":0,
			"byteLength":382528,
			"byteOffset":1147584,
			"target":34962
		},
		{
			"buffer":0,
			"byteLength":147648,
			"byteOffset":1530112,
			"target":34963
		}
	],
	"buffers":[
		{
			"byteLength":1677760,
			"uri":"OccupySpace.bin"
		}
	]
}
