{
  "asset": {
    "generator": "Khronos glTF Blender I/O v4.1.62",
    "version": "2.0"
  },
  "scene": 0,
  "scenes": [
    {
      "name": "Scene",
      "nodes": [0]
    }
  ],
  "nodes": [
    {
      "mesh": 0,
      "name": "OwlSticker"
    }
  ],
  "materials": [
    {
      "doubleSided": true,
      "name": "glitter_sticher_002.002",
      "pbrMetallicRoughness": {
        "baseColorFactor": [0, 0.014770270325243473, 0.8002911806106567, 1],
        "metallicFactor": 0.6113636493682861
      }
    },
    {
      "doubleSided": true,
      "name": "Material.004",
      "pbrMetallicRoughness": {
        "baseColorFactor": [0.022312013432383537, 0.0031378916464746, 0.07239659875631332, 1],
        "metallicFactor": 0
      }
    },
    {
      "doubleSided": true,
      "name": "white",
      "pbrMetallicRoughness": {
        "baseColorFactor": [0.800000011920929, 0.800000011920929, 0.800000011920929, 1],
        "metallicFactor": 0
      }
    }
  ],
  "meshes": [
    {
      "name": "OwlSticker",
      "primitives": [
        {
          "attributes": {
            "POSITION": 0,
            "NORMAL": 1,
            "TEXCOORD_0": 2
          },
          "indices": 3,
          "material": 0
        },
        {
          "attributes": {
            "POSITION": 4,
            "NORMAL": 5,
            "TEXCOORD_0": 6
          },
          "indices": 7,
          "material": 1
        },
        {
          "attributes": {
            "POSITION": 8,
            "NORMAL": 9,
            "TEXCOORD_0": 10
          },
          "indices": 11,
          "material": 2
        }
      ]
    }
  ],
  "accessors": [
    {
      "bufferView": 0,
      "componentType": 5126,
      "count": 108541,
      "max": [-0.4246700406074524, 0.05426052212715149, 0.13448722660541534],
      "min": [-0.49480462074279785, -0.14619922637939453, -0.11521924287080765],
      "type": "VEC3"
    },
    {
      "bufferView": 1,
      "componentType": 5126,
      "count": 108541,
      "type": "VEC3"
    },
    {
      "bufferView": 2,
      "componentType": 5126,
      "count": 108541,
      "type": "VEC2"
    },
    {
      "bufferView": 3,
      "componentType": 5125,
      "count": 165822,
      "type": "SCALAR"
    },
    {
      "bufferView": 4,
      "componentType": 5126,
      "count": 88806,
      "max": [-0.42154306173324585, 0.05790124088525772, 0.13819919526576996],
      "min": [-0.49480462074279785, -0.16512534022331238, -0.11888059228658676],
      "type": "VEC3"
    },
    {
      "bufferView": 5,
      "componentType": 5126,
      "count": 88806,
      "type": "VEC3"
    },
    {
      "bufferView": 6,
      "componentType": 5126,
      "count": 88806,
      "type": "VEC2"
    },
    {
      "bufferView": 7,
      "componentType": 5125,
      "count": 492174,
      "type": "SCALAR"
    },
    {
      "bufferView": 8,
      "componentType": 5126,
      "count": 9873,
      "max": [-0.4446105659008026, -0.00199786270968616, 0.08560512959957123],
      "min": [-0.49480462074279785, -0.14429238438606262, -0.11880506575107574],
      "type": "VEC3"
    },
    {
      "bufferView": 9,
      "componentType": 5126,
      "count": 9873,
      "type": "VEC3"
    },
    {
      "bufferView": 10,
      "componentType": 5126,
      "count": 9873,
      "type": "VEC2"
    },
    {
      "bufferView": 11,
      "componentType": 5123,
      "count": 44052,
      "type": "SCALAR"
    }
  ],
  "bufferViews": [
    {
      "buffer": 0,
      "byteLength": 1302492,
      "byteOffset": 0,
      "target": 34962
    },
    {
      "buffer": 0,
      "byteLength": 1302492,
      "byteOffset": 1302492,
      "target": 34962
    },
    {
      "buffer": 0,
      "byteLength": 868328,
      "byteOffset": 2604984,
      "target": 34962
    },
    {
      "buffer": 0,
      "byteLength": 663288,
      "byteOffset": 3473312,
      "target": 34963
    },
    {
      "buffer": 0,
      "byteLength": 1065672,
      "byteOffset": 4136600,
      "target": 34962
    },
    {
      "buffer": 0,
      "byteLength": 1065672,
      "byteOffset": 5202272,
      "target": 34962
    },
    {
      "buffer": 0,
      "byteLength": 710448,
      "byteOffset": 6267944,
      "target": 34962
    },
    {
      "buffer": 0,
      "byteLength": 1968696,
      "byteOffset": 6978392,
      "target": 34963
    },
    {
      "buffer": 0,
      "byteLength": 118476,
      "byteOffset": 8947088,
      "target": 34962
    },
    {
      "buffer": 0,
      "byteLength": 118476,
      "byteOffset": 9065564,
      "target": 34962
    },
    {
      "buffer": 0,
      "byteLength": 78984,
      "byteOffset": 9184040,
      "target": 34962
    },
    {
      "buffer": 0,
      "byteLength": 88104,
      "byteOffset": 9263024,
      "target": 34963
    }
  ],
  "buffers": [
    {
      "byteLength": 9351128,
      "uri": "OwlSticker.bin"
    }
  ]
}
