{
	"asset":{
		"generator":"Khronos glTF Blender I/O v4.1.62",
		"version":"2.0"
	},
	"scene":0,
	"scenes":[
		{
			"name":"Scene",
			"nodes":[
				0
			]
		}
	],
	"nodes":[
		{
			"mesh":0,
			"name":"Smiley"
		}
	],
	"materials":[
		{
			"doubleSided":true,
			"name":"Material.001",
			"pbrMetallicRoughness":{
				"baseColorTexture":{
					"index":0
				},
				"metallicFactor":0,
				"roughnessFactor":0.25
			}
		}
	],
	"meshes":[
		{
			"name":"Smiley",
			"primitives":[
				{
					"attributes":{
						"POSITION":0,
						"NORMAL":1,
						"TEXCOORD_0":2
					},
					"indices":3,
					"material":0
				}
			]
		}
	],
	"textures":[
		{
			"sampler":0,
			"source":0
		}
	],
	"images":[
		{
			"mimeType":"image/png",
			"name":"smiley_DIFFUSE",
			"uri":"smiley_DIFFUSE.png"
		}
	],
	"accessors":[
		{
			"bufferView":0,
			"componentType":5126,
			"count":17021,
			"max":[
				-0.33857354521751404,
				-0.130728617310524,
				0.14802037179470062
			],
			"min":[
				-0.4226110577583313,
				-0.33158403635025024,
				-0.05378802865743637
			],
			"type":"VEC3"
		},
		{
			"bufferView":1,
			"componentType":5126,
			"count":17021,
			"type":"VEC3"
		},
		{
			"bufferView":2,
			"componentType":5126,
			"count":17021,
			"type":"VEC2"
		},
		{
			"bufferView":3,
			"componentType":5123,
			"count":98304,
			"type":"SCALAR"
		}
	],
	"bufferViews":[
		{
			"buffer":0,
			"byteLength":204252,
			"byteOffset":0,
			"target":34962
		},
		{
			"buffer":0,
			"byteLength":204252,
			"byteOffset":204252,
			"target":34962
		},
		{
			"buffer":0,
			"byteLength":136168,
			"byteOffset":408504,
			"target":34962
		},
		{
			"buffer":0,
			"byteLength":196608,
			"byteOffset":544672,
			"target":34963
		}
	],
	"samplers":[
		{
			"magFilter":9729,
			"minFilter":9987
		}
	],
	"buffers":[
		{
			"byteLength":741280,
			"uri":"Smiley.bin"
		}
	]
}
