{
  "asset": {
    "generator": "Khronos glTF Blender I/O v4.1.62",
    "version": "2.0"
  },
  "scene": 0,
  "scenes": [
    {
      "name": "Scene",
      "nodes": [0]
    }
  ],
  "nodes": [
    {
      "mesh": 0,
      "name": "VinylDisc"
    }
  ],
  "materials": [
    {
      "doubleSided": true,
      "name": "vinyl_disc_finira",
      "pbrMetallicRoughness": {
        "baseColorFactor": [
          0.800000011920929, 0.800000011920929, 0.800000011920929, 1
        ],
        "metallicFactor": 0,
        "roughnessFactor": 0.5
      }
    },
    {
      "doubleSided": true,
      "name": "vinyl_disc_back",
      "pbrMetallicRoughness": {
        "baseColorFactor": [
          0.800000011920929, 0.800000011920929, 0.800000011920929, 1
        ],
        "metallicFactor": 0,
        "roughnessFactor": 0.5
      }
    }
  ],
  "meshes": [
    {
      "name": "VinylDisc",
      "primitives": [
        {
          "attributes": {
            "POSITION": 0,
            "NORMAL": 1,
            "TEXCOORD_0": 2
          },
          "indices": 3,
          "material": 0
        },
        {
          "attributes": {
            "POSITION": 4,
            "NORMAL": 5,
            "TEXCOORD_0": 6
          },
          "indices": 7,
          "material": 1
        }
      ]
    }
  ],
  "accessors": [
    {
      "bufferView": 0,
      "componentType": 5126,
      "count": 85,
      "max": [1.6350005865097046, 3.2300007343292236, 0.020000001415610313],
      "min": [
        -1.6350005865097046, -3.850460075227602e-7, -0.020000001415610313
      ],
      "type": "VEC3"
    },
    {
      "bufferView": 1,
      "componentType": 5126,
      "count": 85,
      "type": "VEC3"
    },
    {
      "bufferView": 2,
      "componentType": 5126,
      "count": 85,
      "type": "VEC2"
    },
    {
      "bufferView": 3,
      "componentType": 5123,
      "count": 288,
      "type": "SCALAR"
    },
    {
      "bufferView": 4,
      "componentType": 5126,
      "count": 25,
      "max": [1.6350005865097046, 3.2300007343292236, -0.0040000006556510925],
      "min": [
        -1.6350005865097046, -3.850460075227602e-7, -0.020000001415610313
      ],
      "type": "VEC3"
    },
    {
      "bufferView": 5,
      "componentType": 5126,
      "count": 25,
      "type": "VEC3"
    },
    {
      "bufferView": 6,
      "componentType": 5126,
      "count": 25,
      "type": "VEC2"
    },
    {
      "bufferView": 7,
      "componentType": 5123,
      "count": 96,
      "type": "SCALAR"
    }
  ],
  "bufferViews": [
    {
      "buffer": 0,
      "byteLength": 1020,
      "byteOffset": 0,
      "target": 34962
    },
    {
      "buffer": 0,
      "byteLength": 1020,
      "byteOffset": 1020,
      "target": 34962
    },
    {
      "buffer": 0,
      "byteLength": 680,
      "byteOffset": 2040,
      "target": 34962
    },
    {
      "buffer": 0,
      "byteLength": 576,
      "byteOffset": 2720,
      "target": 34963
    },
    {
      "buffer": 0,
      "byteLength": 300,
      "byteOffset": 3296,
      "target": 34962
    },
    {
      "buffer": 0,
      "byteLength": 300,
      "byteOffset": 3596,
      "target": 34962
    },
    {
      "buffer": 0,
      "byteLength": 200,
      "byteOffset": 3896,
      "target": 34962
    },
    {
      "buffer": 0,
      "byteLength": 192,
      "byteOffset": 4096,
      "target": 34963
    }
  ],
  "buffers": [
    {
      "byteLength": 4288,
      "uri": "VinylDisc.bin"
    }
  ]
}
