{
  "asset": {
    "generator": "Khronos glTF Blender I/O v4.0.44",
    "version": "2.0"
  },
  "scene": 0,
  "scenes": [
    {
      "name": "Scene",
      "nodes": [0]
    }
  ],
  "nodes": [
    {
      "mesh": 0,
      "name": "IconNpm"
    }
  ],
  "materials": [
    {
      "doubleSided": true,
      "name": "icon_npm_#cc3533",
      "pbrMetallicRoughness": {
        "baseColorFactor": [
          0.6039296388626099, 0.03559969738125801, 0.033102404326200485, 1
        ],
        "metallicFactor": 0
      }
    },
    {
      "doubleSided": true,
      "name": "icon_npm_#ffffff",
      "pbrMetallicRoughness": {
        "metallicFactor": 0
      }
    }
  ],
  "meshes": [
    {
      "name": "IconNpm",
      "primitives": [
        {
          "attributes": {
            "POSITION": 0,
            "NORMAL": 1
          },
          "indices": 2,
          "material": 0
        },
        {
          "attributes": {
            "POSITION": 3,
            "NORMAL": 4
          },
          "indices": 5,
          "material": 1
        }
      ]
    }
  ],
  "accessors": [
    {
      "bufferView": 0,
      "componentType": 5126,
      "count": 48,
      "max": [1.2837355136871338, 0.496743381023407, 0.09999999403953552],
      "min": [-1.2837355136871338, -0.4927034080028534, -0.20000000298023224],
      "type": "VEC3"
    },
    {
      "bufferView": 1,
      "componentType": 5126,
      "count": 48,
      "type": "VEC3"
    },
    {
      "bufferView": 2,
      "componentType": 5123,
      "count": 84,
      "type": "SCALAR"
    },
    {
      "bufferView": 3,
      "componentType": 5126,
      "count": 180,
      "max": [1.1453489065170288, 0.3591434955596924, 0.20000015199184418],
      "min": [-1.1453403234481812, -0.3558988571166992, 0.09999984502792358],
      "type": "VEC3"
    },
    {
      "bufferView": 4,
      "componentType": 5126,
      "count": 180,
      "type": "VEC3"
    },
    {
      "bufferView": 5,
      "componentType": 5123,
      "count": 312,
      "type": "SCALAR"
    }
  ],
  "bufferViews": [
    {
      "buffer": 0,
      "byteLength": 576,
      "byteOffset": 0,
      "target": 34962
    },
    {
      "buffer": 0,
      "byteLength": 576,
      "byteOffset": 576,
      "target": 34962
    },
    {
      "buffer": 0,
      "byteLength": 168,
      "byteOffset": 1152,
      "target": 34963
    },
    {
      "buffer": 0,
      "byteLength": 2160,
      "byteOffset": 1320,
      "target": 34962
    },
    {
      "buffer": 0,
      "byteLength": 2160,
      "byteOffset": 3480,
      "target": 34962
    },
    {
      "buffer": 0,
      "byteLength": 624,
      "byteOffset": 5640,
      "target": 34963
    }
  ],
  "buffers": [
    {
      "byteLength": 6264,
      "uri": "IconNpm.bin"
    }
  ]
}
