{
  "asset": {
    "generator": "Khronos glTF Blender I/O v4.0.44",
    "version": "2.0"
  },
  "scene": 0,
  "scenes": [
    {
      "name": "Scene",
      "nodes": [0]
    }
  ],
  "nodes": [
    {
      "mesh": 0,
      "name": "IconI18n"
    }
  ],
  "materials": [
    {
      "doubleSided": true,
      "name": "icon_i18n_#004d40",
      "pbrMetallicRoughness": {
        "baseColorFactor": [0, 0.07421032339334488, 0.051265764981508255, 1],
        "metallicFactor": 0
      }
    },
    {
      "doubleSided": true,
      "name": "icon_i18n_#009688",
      "pbrMetallicRoughness": {
        "baseColorFactor": [0, 0.3049740493297577, 0.2461836338043213, 1],
        "metallicFactor": 0
      }
    },
    {
      "doubleSided": true,
      "name": "icon_i18n_#ffffff",
      "pbrMetallicRoughness": {
        "metallicFactor": 0,
        "roughnessFactor": 0.5
      }
    }
  ],
  "meshes": [
    {
      "name": "IconI18n",
      "primitives": [
        {
          "attributes": {
            "POSITION": 0,
            "NORMAL": 1
          },
          "indices": 2,
          "material": 0
        },
        {
          "attributes": {
            "POSITION": 3,
            "NORMAL": 4
          },
          "indices": 5,
          "material": 1
        },
        {
          "attributes": {
            "POSITION": 6,
            "NORMAL": 7
          },
          "indices": 8,
          "material": 2
        }
      ]
    }
  ],
  "accessors": [
    {
      "bufferView": 0,
      "componentType": 5126,
      "count": 1225,
      "max": [0.6126810312271118, 0.995782196521759, 0.20000000298023224],
      "min": [-0.5966317057609558, -0.49769923090934753, -0.20000000298023224],
      "type": "VEC3"
    },
    {
      "bufferView": 1,
      "componentType": 5126,
      "count": 1225,
      "type": "VEC3"
    },
    {
      "bufferView": 2,
      "componentType": 5123,
      "count": 2175,
      "type": "SCALAR"
    },
    {
      "bufferView": 3,
      "componentType": 5126,
      "count": 980,
      "max": [0.6836327910423279, 0.7946240305900574, 0.20000000298023224],
      "min": [-0.6784390211105347, -0.9844509959220886, -0.20000000298023224],
      "type": "VEC3"
    },
    {
      "bufferView": 4,
      "componentType": 5126,
      "count": 980,
      "type": "VEC3"
    },
    {
      "bufferView": 5,
      "componentType": 5123,
      "count": 1788,
      "type": "SCALAR"
    },
    {
      "bufferView": 6,
      "componentType": 5126,
      "count": 147,
      "max": [0.5737472176551819, 0.18439540266990662, 0.10384615510702133],
      "min": [-0.5651625394821167, -0.897524356842041, 0.10000000149011612],
      "type": "VEC3"
    },
    {
      "bufferView": 7,
      "componentType": 5126,
      "count": 147,
      "type": "VEC3"
    },
    {
      "bufferView": 8,
      "componentType": 5123,
      "count": 423,
      "type": "SCALAR"
    }
  ],
  "bufferViews": [
    {
      "buffer": 0,
      "byteLength": 14700,
      "byteOffset": 0,
      "target": 34962
    },
    {
      "buffer": 0,
      "byteLength": 14700,
      "byteOffset": 14700,
      "target": 34962
    },
    {
      "buffer": 0,
      "byteLength": 4350,
      "byteOffset": 29400,
      "target": 34963
    },
    {
      "buffer": 0,
      "byteLength": 11760,
      "byteOffset": 33752,
      "target": 34962
    },
    {
      "buffer": 0,
      "byteLength": 11760,
      "byteOffset": 45512,
      "target": 34962
    },
    {
      "buffer": 0,
      "byteLength": 3576,
      "byteOffset": 57272,
      "target": 34963
    },
    {
      "buffer": 0,
      "byteLength": 1764,
      "byteOffset": 60848,
      "target": 34962
    },
    {
      "buffer": 0,
      "byteLength": 1764,
      "byteOffset": 62612,
      "target": 34962
    },
    {
      "buffer": 0,
      "byteLength": 846,
      "byteOffset": 64376,
      "target": 34963
    }
  ],
  "buffers": [
    {
      "byteLength": 65224,
      "uri": "IconI18n.bin"
    }
  ]
}
