{
  "asset": {
    "generator": "Khronos glTF Blender I/O v4.0.44",
    "version": "2.0"
  },
  "scene": 0,
  "scenes": [
    {
      "name": "Scene",
      "nodes": [0]
    }
  ],
  "nodes": [
    {
      "mesh": 0,
      "name": "IconGithub"
    }
  ],
  "materials": [
    {
      "doubleSided": true,
      "name": "icon_github_#ffffff",
      "pbrMetallicRoughness": {
        "baseColorFactor": [1, 1, 0.9999275803565979, 1],
        "metallicFactor": 0
      }
    }
  ],
  "meshes": [
    {
      "name": "IconGithub",
      "primitives": [
        {
          "attributes": {
            "POSITION": 0,
            "NORMAL": 1
          },
          "indices": 2,
          "material": 0
        }
      ]
    }
  ],
  "accessors": [
    {
      "bufferView": 0,
      "componentType": 5126,
      "count": 1026,
      "max": [1.0073374509811401, 0.996697187423706, 0.20000022649765015],
      "min": [-1.0070581436157227, -0.985853374004364, -0.20000016689300537],
      "type": "VEC3"
    },
    {
      "bufferView": 1,
      "componentType": 5126,
      "count": 1026,
      "type": "VEC3"
    },
    {
      "bufferView": 2,
      "componentType": 5123,
      "count": 3012,
      "type": "SCALAR"
    }
  ],
  "bufferViews": [
    {
      "buffer": 0,
      "byteLength": 12312,
      "byteOffset": 0,
      "target": 34962
    },
    {
      "buffer": 0,
      "byteLength": 12312,
      "byteOffset": 12312,
      "target": 34962
    },
    {
      "buffer": 0,
      "byteLength": 6024,
      "byteOffset": 24624,
      "target": 34963
    }
  ],
  "buffers": [
    {
      "byteLength": 30648,
      "uri": "IconGithub.bin"
    }
  ]
}
