{
	"asset":{
		"generator":"Khronos glTF Blender I/O v4.0.44",
		"version":"2.0"
	},
	"scene":0,
	"scenes":[
		{
			"name":"Scene",
			"nodes":[
				0
			]
		}
	],
	"nodes":[
		{
			"mesh":0,
			"name":"IconSass"
		}
	],
	"materials":[
		{
			"doubleSided":true,
			"name":"icon_sass_#ce679b",
			"pbrMetallicRoughness":{
				"baseColorFactor":[
					0.6173110604286194,
					0.13562729954719543,
					0.327754408121109,
					1
				],
				"metallicFactor":0
			}
		}
	],
	"meshes":[
		{
			"name":"IconSass",
			"primitives":[
				{
					"attributes":{
						"POSITION":0,
						"NORMAL":1
					},
					"indices":2,
					"material":0
				}
			]
		}
	],
	"accessors":[
		{
			"bufferView":0,
			"componentType":5126,
			"count":3906,
			"max":[
				1.3266383409500122,
				1.0009698867797852,
				0.1331108659505844
			],
			"min":[
				-1.3279205560684204,
				-0.9892206788063049,
				-0.13311003148555756
			],
			"type":"VEC3"
		},
		{
			"bufferView":1,
			"componentType":5126,
			"count":3906,
			"type":"VEC3"
		},
		{
			"bufferView":2,
			"componentType":5123,
			"count":7866,
			"type":"SCALAR"
		}
	],
	"bufferViews":[
		{
			"buffer":0,
			"byteLength":46872,
			"byteOffset":0,
			"target":34962
		},
		{
			"buffer":0,
			"byteLength":46872,
			"byteOffset":46872,
			"target":34962
		},
		{
			"buffer":0,
			"byteLength":15732,
			"byteOffset":93744,
			"target":34963
		}
	],
	"buffers":[
		{
			"byteLength":109476,
			"uri":"IconSass.bin"
		}
	]
}
