{
  "asset": {
    "generator": "Khronos glTF Blender I/O v4.0.44",
    "version": "2.0"
  },
  "extensionsUsed": ["KHR_materials_specular", "KHR_materials_ior"],
  "scene": 0,
  "scenes": [
    {
      "name": "Scene",
      "nodes": [0]
    }
  ],
  "nodes": [
    {
      "mesh": 0,
      "name": "IconPhotoshop"
    }
  ],
  "materials": [
    {
      "doubleSided": true,
      "extensions": {
        "KHR_materials_specular": {
          "specularFactor": 0
        },
        "KHR_materials_ior": {
          "ior": 1.4500000476837158
        }
      },
      "name": "icon_photoshop_#051e37",
      "pbrMetallicRoughness": {
        "baseColorFactor": [
          0.0015176329761743546, 0.012983032502233982, 0.038204375654459, 1
        ],
        "metallicFactor": 0
      }
    },
    {
      "doubleSided": true,
      "extensions": {
        "KHR_materials_specular": {
          "specularFactor": 0
        },
        "KHR_materials_ior": {
          "ior": 1.4500000476837158
        }
      },
      "name": "icon_photoshop_#39a9ff",
      "pbrMetallicRoughness": {
        "baseColorFactor": [0.04091513156890869, 0.39675527811050415, 1, 1],
        "metallicFactor": 0
      }
    }
  ],
  "meshes": [
    {
      "name": "IconPhotoshop",
      "primitives": [
        {
          "attributes": {
            "POSITION": 0,
            "NORMAL": 1,
            "TEXCOORD_0": 2
          },
          "indices": 3,
          "material": 0
        },
        {
          "attributes": {
            "POSITION": 4,
            "NORMAL": 5,
            "TEXCOORD_0": 6
          },
          "indices": 7,
          "material": 1
        }
      ]
    }
  ],
  "accessors": [
    {
      "bufferView": 0,
      "componentType": 5126,
      "count": 144,
      "max": [1, 1, 0.10000008344650269],
      "min": [-1, -1, -0.20000000298023224],
      "type": "VEC3"
    },
    {
      "bufferView": 1,
      "componentType": 5126,
      "count": 144,
      "type": "VEC3"
    },
    {
      "bufferView": 2,
      "componentType": 5126,
      "count": 144,
      "type": "VEC2"
    },
    {
      "bufferView": 3,
      "componentType": 5123,
      "count": 276,
      "type": "SCALAR"
    },
    {
      "bufferView": 4,
      "componentType": 5126,
      "count": 418,
      "max": [0.6620892286300659, 0.4800003170967102, 0.2000008225440979],
      "min": [-0.5640745162963867, -0.42543721199035645, 0.10000008344650269],
      "type": "VEC3"
    },
    {
      "bufferView": 5,
      "componentType": 5126,
      "count": 418,
      "type": "VEC3"
    },
    {
      "bufferView": 6,
      "componentType": 5126,
      "count": 418,
      "type": "VEC2"
    },
    {
      "bufferView": 7,
      "componentType": 5123,
      "count": 741,
      "type": "SCALAR"
    }
  ],
  "bufferViews": [
    {
      "buffer": 0,
      "byteLength": 1728,
      "byteOffset": 0,
      "target": 34962
    },
    {
      "buffer": 0,
      "byteLength": 1728,
      "byteOffset": 1728,
      "target": 34962
    },
    {
      "buffer": 0,
      "byteLength": 1152,
      "byteOffset": 3456,
      "target": 34962
    },
    {
      "buffer": 0,
      "byteLength": 552,
      "byteOffset": 4608,
      "target": 34963
    },
    {
      "buffer": 0,
      "byteLength": 5016,
      "byteOffset": 5160,
      "target": 34962
    },
    {
      "buffer": 0,
      "byteLength": 5016,
      "byteOffset": 10176,
      "target": 34962
    },
    {
      "buffer": 0,
      "byteLength": 3344,
      "byteOffset": 15192,
      "target": 34962
    },
    {
      "buffer": 0,
      "byteLength": 1482,
      "byteOffset": 18536,
      "target": 34963
    }
  ],
  "buffers": [
    {
      "byteLength": 20020,
      "uri": "IconPhotoshop.bin"
    }
  ]
}
