{
  "asset": {
    "generator": "Khronos glTF Blender I/O v4.0.44",
    "version": "2.0"
  },
  "scene": 0,
  "scenes": [
    {
      "name": "Scene",
      "nodes": [0]
    }
  ],
  "nodes": [
    {
      "mesh": 0,
      "name": "IconRedux"
    }
  ],
  "materials": [
    {
      "doubleSided": true,
      "name": "icon_redux_#764abc",
      "pbrMetallicRoughness": {
        "baseColorFactor": [
          0.18119458854198456, 0.06847501546144485, 0.5028499960899353, 1
        ],
        "metallicFactor": 0,
        "roughnessFactor": 0.5
      }
    }
  ],
  "meshes": [
    {
      "name": "IconRedux",
      "primitives": [
        {
          "attributes": {
            "POSITION": 0,
            "NORMAL": 1,
            "TEXCOORD_0": 2
          },
          "indices": 3,
          "material": 0
        }
      ]
    }
  ],
  "accessors": [
    {
      "bufferView": 0,
      "componentType": 5126,
      "count": 3444,
      "max": [1.0635948181152344, 0.9852140545845032, 0.2000013142824173],
      "min": [-1.0635952949523926, -1.000099539756775, -0.20000049471855164],
      "type": "VEC3"
    },
    {
      "bufferView": 1,
      "componentType": 5126,
      "count": 3444,
      "type": "VEC3"
    },
    {
      "bufferView": 2,
      "componentType": 5126,
      "count": 3444,
      "type": "VEC2"
    },
    {
      "bufferView": 3,
      "componentType": 5123,
      "count": 10098,
      "type": "SCALAR"
    }
  ],
  "bufferViews": [
    {
      "buffer": 0,
      "byteLength": 41328,
      "byteOffset": 0,
      "target": 34962
    },
    {
      "buffer": 0,
      "byteLength": 41328,
      "byteOffset": 41328,
      "target": 34962
    },
    {
      "buffer": 0,
      "byteLength": 27552,
      "byteOffset": 82656,
      "target": 34962
    },
    {
      "buffer": 0,
      "byteLength": 20196,
      "byteOffset": 110208,
      "target": 34963
    }
  ],
  "buffers": [
    {
      "byteLength": 130404,
      "uri": "IconRedux.bin"
    }
  ]
}
