{
	"asset":{
		"generator":"Khronos glTF Blender I/O v4.0.44",
		"version":"2.0"
	},
	"scene":0,
	"scenes":[
		{
			"name":"Scene",
			"nodes":[
				0
			]
		}
	],
	"nodes":[
		{
			"mesh":0,
			"name":"IconWebgl"
		}
	],
	"materials":[
		{
			"doubleSided":true,
			"name":"icon_webgl_#990001",
			"pbrMetallicRoughness":{
				"baseColorFactor":[
					0.3186008632183075,
					0,
					0.0003035138361155987,
					1
				],
				"metallicFactor":0
			}
		}
	],
	"meshes":[
		{
			"name":"IconWebgl",
			"primitives":[
				{
					"attributes":{
						"POSITION":0,
						"NORMAL":1,
						"TEXCOORD_0":2
					},
					"indices":3,
					"material":0
				}
			]
		}
	],
	"accessors":[
		{
			"bufferView":0,
			"componentType":5126,
			"count":3304,
			"max":[
				1.54950749874115,
				0.7163969874382019,
				0.1999950408935547
			],
			"min":[
				-1.7794675827026367,
				-0.734403133392334,
				-0.19999979436397552
			],
			"type":"VEC3"
		},
		{
			"bufferView":1,
			"componentType":5126,
			"count":3304,
			"type":"VEC3"
		},
		{
			"bufferView":2,
			"componentType":5126,
			"count":3304,
			"type":"VEC2"
		},
		{
			"bufferView":3,
			"componentType":5123,
			"count":5520,
			"type":"SCALAR"
		}
	],
	"bufferViews":[
		{
			"buffer":0,
			"byteLength":39648,
			"byteOffset":0,
			"target":34962
		},
		{
			"buffer":0,
			"byteLength":39648,
			"byteOffset":39648,
			"target":34962
		},
		{
			"buffer":0,
			"byteLength":26432,
			"byteOffset":79296,
			"target":34962
		},
		{
			"buffer":0,
			"byteLength":11040,
			"byteOffset":105728,
			"target":34963
		}
	],
	"buffers":[
		{
			"byteLength":116768,
			"uri":"IconWebgl.bin"
		}
	]
}
