{
  "asset": {
    "generator": "Khronos glTF Blender I/O v4.1.62",
    "version": "2.0"
  },
  "scene": 0,
  "scenes": [
    {
      "name": "Scene",
      "nodes": [0]
    }
  ],
  "nodes": [
    {
      "mesh": 0,
      "name": "Couronnes",
      "translation": [0, 25.599998474121094, -16]
    }
  ],
  "materials": [
    {
      "doubleSided": true,
      "name": "couronnes_border",
      "pbrMetallicRoughness": {
        "baseColorFactor": [
          0.800000011920929, 0.800000011920929, 0.800000011920929, 1
        ],
        "metallicFactor": 0,
        "roughnessFactor": 0.5
      }
    },
    {
      "doubleSided": true,
      "name": "couronnes",
      "pbrMetallicRoughness": {
        "baseColorFactor": [
          0.800000011920929, 0.800000011920929, 0.800000011920929, 1
        ],
        "metallicFactor": 0,
        "roughnessFactor": 0.5
      }
    }
  ],
  "meshes": [
    {
      "name": "Couronnes",
      "primitives": [
        {
          "attributes": {
            "POSITION": 0,
            "NORMAL": 1,
            "TEXCOORD_0": 2
          },
          "indices": 3,
          "material": 0
        },
        {
          "attributes": {
            "POSITION": 4,
            "NORMAL": 5,
            "TEXCOORD_0": 6
          },
          "indices": 7,
          "material": 1
        }
      ]
    }
  ],
  "accessors": [
    {
      "bufferView": 0,
      "componentType": 5126,
      "count": 280,
      "max": [10.534534454345703, 1.9230883121490479, 0.20213501155376434],
      "min": [-10.542828559875488, -1.9244145154953003, -0.008988108485937119],
      "type": "VEC3"
    },
    {
      "bufferView": 1,
      "componentType": 5126,
      "count": 280,
      "type": "VEC3"
    },
    {
      "bufferView": 2,
      "componentType": 5126,
      "count": 280,
      "type": "VEC2"
    },
    {
      "bufferView": 3,
      "componentType": 5123,
      "count": 420,
      "type": "SCALAR"
    },
    {
      "bufferView": 4,
      "componentType": 5126,
      "count": 493,
      "max": [10.534534454345703, 1.9230883121490479, 0.2048986405134201],
      "min": [-10.535085678100586, -1.9244145154953003, -0.008496983908116817],
      "type": "VEC3"
    },
    {
      "bufferView": 5,
      "componentType": 5126,
      "count": 493,
      "type": "VEC3"
    },
    {
      "bufferView": 6,
      "componentType": 5126,
      "count": 493,
      "type": "VEC2"
    },
    {
      "bufferView": 7,
      "componentType": 5123,
      "count": 891,
      "type": "SCALAR"
    }
  ],
  "bufferViews": [
    {
      "buffer": 0,
      "byteLength": 3360,
      "byteOffset": 0,
      "target": 34962
    },
    {
      "buffer": 0,
      "byteLength": 3360,
      "byteOffset": 3360,
      "target": 34962
    },
    {
      "buffer": 0,
      "byteLength": 2240,
      "byteOffset": 6720,
      "target": 34962
    },
    {
      "buffer": 0,
      "byteLength": 840,
      "byteOffset": 8960,
      "target": 34963
    },
    {
      "buffer": 0,
      "byteLength": 5916,
      "byteOffset": 9800,
      "target": 34962
    },
    {
      "buffer": 0,
      "byteLength": 5916,
      "byteOffset": 15716,
      "target": 34962
    },
    {
      "buffer": 0,
      "byteLength": 3944,
      "byteOffset": 21632,
      "target": 34962
    },
    {
      "buffer": 0,
      "byteLength": 1782,
      "byteOffset": 25576,
      "target": 34963
    }
  ],
  "buffers": [
    {
      "byteLength": 27360,
      "uri": "Couronnes.bin"
    }
  ]
}
