{
  "asset": {
    "generator": "Khronos glTF Blender I/O v4.1.62",
    "version": "2.0"
  },
  "scene": 0,
  "scenes": [
    {
      "name": "Scene",
      "nodes": [0]
    }
  ],
  "nodes": [
    {
      "mesh": 0,
      "name": "DoorFrame",
      "translation": [-28.600000381469727, 0, -10]
    }
  ],
  "meshes": [
    {
      "name": "DoorFrame.002",
      "primitives": [
        {
          "attributes": {
            "POSITION": 0,
            "NORMAL": 1,
            "TEXCOORD_0": 2
          },
          "indices": 3
        }
      ]
    }
  ],
  "accessors": [
    {
      "bufferView": 0,
      "componentType": 5126,
      "count": 1472,
      "max": [1.0659148693084717, 23.00002098083496, 4.946239948272705],
      "min": [-5.898332133824624e-8, 0, -4.946239948272705],
      "type": "VEC3"
    },
    {
      "bufferView": 1,
      "componentType": 5126,
      "count": 1472,
      "type": "VEC3"
    },
    {
      "bufferView": 2,
      "componentType": 5126,
      "count": 1472,
      "type": "VEC2"
    },
    {
      "bufferView": 3,
      "componentType": 5123,
      "count": 2634,
      "type": "SCALAR"
    }
  ],
  "bufferViews": [
    {
      "buffer": 0,
      "byteLength": 17664,
      "byteOffset": 0,
      "target": 34962
    },
    {
      "buffer": 0,
      "byteLength": 17664,
      "byteOffset": 17664,
      "target": 34962
    },
    {
      "buffer": 0,
      "byteLength": 11776,
      "byteOffset": 35328,
      "target": 34962
    },
    {
      "buffer": 0,
      "byteLength": 5268,
      "byteOffset": 47104,
      "target": 34963
    }
  ],
  "buffers": [
    {
      "byteLength": 52372,
      "uri": "DoorFrame.bin"
    }
  ]
}
