{
  "asset": {
    "generator": "Khronos glTF Blender I/O v4.1.62",
    "version": "2.0"
  },
  "scene": 0,
  "scenes": [
    {
      "name": "Scene",
      "nodes": [0]
    }
  ],
  "nodes": [
    {
      "mesh": 0,
      "name": "HourAndMinuteMarkers",
      "translation": [
        -28.372249603271484, 25.39999771118164, -10.007051467895508
      ]
    }
  ],
  "meshes": [
    {
      "name": "HourAndMinuteMarkers",
      "primitives": [
        {
          "attributes": {
            "POSITION": 0,
            "NORMAL": 1,
            "TEXCOORD_0": 2
          },
          "indices": 3
        }
      ]
    }
  ],
  "accessors": [
    {
      "bufferView": 0,
      "componentType": 5126,
      "count": 1440,
      "max": [3.895086422289751e-7, 1.3650000095367432, 1.3650000095367432],
      "min": [-0.0007003889768384397, -1.3650000095367432, -1.3650000095367432],
      "type": "VEC3"
    },
    {
      "bufferView": 1,
      "componentType": 5126,
      "count": 1440,
      "type": "VEC3"
    },
    {
      "bufferView": 2,
      "componentType": 5126,
      "count": 1440,
      "type": "VEC2"
    },
    {
      "bufferView": 3,
      "componentType": 5123,
      "count": 2160,
      "type": "SCALAR"
    }
  ],
  "bufferViews": [
    {
      "buffer": 0,
      "byteLength": 17280,
      "byteOffset": 0,
      "target": 34962
    },
    {
      "buffer": 0,
      "byteLength": 17280,
      "byteOffset": 17280,
      "target": 34962
    },
    {
      "buffer": 0,
      "byteLength": 11520,
      "byteOffset": 34560,
      "target": 34962
    },
    {
      "buffer": 0,
      "byteLength": 4320,
      "byteOffset": 46080,
      "target": 34963
    }
  ],
  "buffers": [
    {
      "byteLength": 50400,
      "uri": "HourAndMinuteMarkers.bin"
    }
  ]
}
