{
  "asset": {
    "generator": "Khronos glTF Blender I/O v4.1.62",
    "version": "2.0"
  },
  "scene": 0,
  "scenes": [
    {
      "name": "Scene",
      "nodes": [0]
    }
  ],
  "nodes": [
    {
      "mesh": 0,
      "name": "NicotianaRustica",
      "translation": [10.199999809265137, 14.899999618530273, -16]
    }
  ],
  "materials": [
    {
      "doubleSided": true,
      "name": "nicotiana_rustica_frame",
      "pbrMetallicRoughness": {
        "baseColorFactor": [
          0.800000011920929, 0.800000011920929, 0.800000011920929, 1
        ],
        "metallicFactor": 0,
        "roughnessFactor": 0.5
      }
    },
    {
      "doubleSided": true,
      "name": "nicotiana_rustica",
      "pbrMetallicRoughness": {
        "baseColorFactor": [
          0.800000011920929, 0.800000011920929, 0.800000011920929, 1
        ],
        "metallicFactor": 0,
        "roughnessFactor": 0.5
      }
    }
  ],
  "meshes": [
    {
      "name": "NicotianaRustica",
      "primitives": [
        {
          "attributes": {
            "POSITION": 0,
            "NORMAL": 1,
            "TEXCOORD_0": 2
          },
          "indices": 3,
          "material": 0
        },
        {
          "attributes": {
            "POSITION": 4,
            "NORMAL": 5,
            "TEXCOORD_0": 6
          },
          "indices": 7,
          "material": 1
        }
      ]
    }
  ],
  "accessors": [
    {
      "bufferView": 0,
      "componentType": 5126,
      "count": 524,
      "max": [2.827199935913086, 8.06399917602539, 0.22618335485458374],
      "min": [
        -2.8271989822387695, 1.6391277313232422e-7, -1.1976808309555054e-5
      ],
      "type": "VEC3"
    },
    {
      "bufferView": 1,
      "componentType": 5126,
      "count": 524,
      "type": "VEC3"
    },
    {
      "bufferView": 2,
      "componentType": 5126,
      "count": 524,
      "type": "VEC2"
    },
    {
      "bufferView": 3,
      "componentType": 5123,
      "count": 1416,
      "type": "SCALAR"
    },
    {
      "bufferView": 4,
      "componentType": 5126,
      "count": 4,
      "max": [2.3961868286132812, 7.63709831237793, 0.06957095861434937],
      "min": [-2.3961849212646484, 0.42690008878707886, 0.06957095861434937],
      "type": "VEC3"
    },
    {
      "bufferView": 5,
      "componentType": 5126,
      "count": 4,
      "type": "VEC3"
    },
    {
      "bufferView": 6,
      "componentType": 5126,
      "count": 4,
      "type": "VEC2"
    },
    {
      "bufferView": 7,
      "componentType": 5123,
      "count": 6,
      "type": "SCALAR"
    }
  ],
  "bufferViews": [
    {
      "buffer": 0,
      "byteLength": 6288,
      "byteOffset": 0,
      "target": 34962
    },
    {
      "buffer": 0,
      "byteLength": 6288,
      "byteOffset": 6288,
      "target": 34962
    },
    {
      "buffer": 0,
      "byteLength": 4192,
      "byteOffset": 12576,
      "target": 34962
    },
    {
      "buffer": 0,
      "byteLength": 2832,
      "byteOffset": 16768,
      "target": 34963
    },
    {
      "buffer": 0,
      "byteLength": 48,
      "byteOffset": 19600,
      "target": 34962
    },
    {
      "buffer": 0,
      "byteLength": 48,
      "byteOffset": 19648,
      "target": 34962
    },
    {
      "buffer": 0,
      "byteLength": 32,
      "byteOffset": 19696,
      "target": 34962
    },
    {
      "buffer": 0,
      "byteLength": 12,
      "byteOffset": 19728,
      "target": 34963
    }
  ],
  "buffers": [
    {
      "byteLength": 19740,
      "uri": "NicotianaRustica.bin"
    }
  ]
}
