{
	"asset":{
		"generator":"Khronos glTF Blender I/O v4.1.62",
		"version":"2.0"
	},
	"scene":0,
	"scenes":[
		{
			"name":"Scene",
			"nodes":[
				0
			]
		}
	],
	"nodes":[
		{
			"mesh":0,
			"name":"Screen",
			"translation":[
				0,
				9.181699752807617,
				-14.399999618530273
			]
		}
	],
	"materials":[
		{
			"doubleSided":true,
			"name":"screen",
			"pbrMetallicRoughness":{
				"baseColorFactor":[
					0.800000011920929,
					0.800000011920929,
					0.800000011920929,
					1
				],
				"metallicFactor":0,
				"roughnessFactor":0.5
			}
		},
		{
			"doubleSided":true,
			"name":"screen_frame",
			"pbrMetallicRoughness":{
				"baseColorFactor":[
					0.800000011920929,
					0.800000011920929,
					0.800000011920929,
					1
				],
				"metallicFactor":0,
				"roughnessFactor":0.5
			}
		}
	],
	"meshes":[
		{
			"name":"Screen",
			"primitives":[
				{
					"attributes":{
						"POSITION":0,
						"NORMAL":1,
						"TEXCOORD_0":2
					},
					"indices":3,
					"material":0
				},
				{
					"attributes":{
						"POSITION":4,
						"NORMAL":5,
						"TEXCOORD_0":6
					},
					"indices":7,
					"material":1
				}
			]
		}
	],
	"accessors":[
		{
			"bufferView":0,
			"componentType":5126,
			"count":4,
			"max":[
				5.951168537139893,
				7.2967000007629395,
				0.2720518112182617
			],
			"min":[
				-5.951168537139893,
				0.7128034234046936,
				0.2720518112182617
			],
			"type":"VEC3"
		},
		{
			"bufferView":1,
			"componentType":5126,
			"count":4,
			"type":"VEC3"
		},
		{
			"bufferView":2,
			"componentType":5126,
			"count":4,
			"type":"VEC2"
		},
		{
			"bufferView":3,
			"componentType":5123,
			"count":6,
			"type":"SCALAR"
		},
		{
			"bufferView":4,
			"componentType":5126,
			"count":832,
			"max":[
				6.011280536651611,
				7.365603923797607,
				1.0889207124710083
			],
			"min":[
				-6.011280536651611,
				3.540515763233998e-06,
				-1.0105130672454834
			],
			"type":"VEC3"
		},
		{
			"bufferView":5,
			"componentType":5126,
			"count":832,
			"type":"VEC3"
		},
		{
			"bufferView":6,
			"componentType":5126,
			"count":832,
			"type":"VEC2"
		},
		{
			"bufferView":7,
			"componentType":5123,
			"count":1470,
			"type":"SCALAR"
		}
	],
	"bufferViews":[
		{
			"buffer":0,
			"byteLength":48,
			"byteOffset":0,
			"target":34962
		},
		{
			"buffer":0,
			"byteLength":48,
			"byteOffset":48,
			"target":34962
		},
		{
			"buffer":0,
			"byteLength":32,
			"byteOffset":96,
			"target":34962
		},
		{
			"buffer":0,
			"byteLength":12,
			"byteOffset":128,
			"target":34963
		},
		{
			"buffer":0,
			"byteLength":9984,
			"byteOffset":140,
			"target":34962
		},
		{
			"buffer":0,
			"byteLength":9984,
			"byteOffset":10124,
			"target":34962
		},
		{
			"buffer":0,
			"byteLength":6656,
			"byteOffset":20108,
			"target":34962
		},
		{
			"buffer":0,
			"byteLength":2940,
			"byteOffset":26764,
			"target":34963
		}
	],
	"buffers":[
		{
			"byteLength":29704,
			"uri":"Screen.bin"
		}
	]
}
