{
	"asset":{
		"generator":"Khronos glTF Blender I/O v4.1.62",
		"version":"2.0"
	},
	"scene":0,
	"scenes":[
		{
			"name":"Scene",
			"nodes":[
				0
			]
		}
	],
	"nodes":[
		{
			"mesh":0,
			"name":"Shelf",
			"translation":[
				0,
				18,
				-16
			]
		}
	],
	"meshes":[
		{
			"name":"Shelf",
			"primitives":[
				{
					"attributes":{
						"POSITION":0,
						"NORMAL":1,
						"TEXCOORD_0":2
					},
					"indices":3
				}
			]
		}
	],
	"accessors":[
		{
			"bufferView":0,
			"componentType":5126,
			"count":2946,
			"max":[
				6,
				1.3200000524520874,
				2.0400002002716064
			],
			"min":[
				-6,
				-0.7200000286102295,
				2.0489096641540527e-08
			],
			"type":"VEC3"
		},
		{
			"bufferView":1,
			"componentType":5126,
			"count":2946,
			"type":"VEC3"
		},
		{
			"bufferView":2,
			"componentType":5126,
			"count":2946,
			"type":"VEC2"
		},
		{
			"bufferView":3,
			"componentType":5123,
			"count":4680,
			"type":"SCALAR"
		}
	],
	"bufferViews":[
		{
			"buffer":0,
			"byteLength":35352,
			"byteOffset":0,
			"target":34962
		},
		{
			"buffer":0,
			"byteLength":35352,
			"byteOffset":35352,
			"target":34962
		},
		{
			"buffer":0,
			"byteLength":23568,
			"byteOffset":70704,
			"target":34962
		},
		{
			"buffer":0,
			"byteLength":9360,
			"byteOffset":94272,
			"target":34963
		}
	],
	"buffers":[
		{
			"byteLength":103632,
			"uri":"Shelf.bin"
		}
	]
}
