{
  "asset": {
    "generator": "Khronos glTF Blender I/O v4.1.62",
    "version": "2.0"
  },
  "scene": 0,
  "scenes": [
    {
      "name": "Scene",
      "nodes": [0]
    }
  ],
  "nodes": [
    {
      "mesh": 0,
      "name": "TableLamp",
      "translation": [11.776460647583008, 1.012279987335205, -9.079935073852539]
    }
  ],
  "materials": [
    {
      "doubleSided": true,
      "emissiveFactor": [1, 1, 1],
      "name": "SphereLight",
      "pbrMetallicRoughness": {
        "baseColorFactor": [0, 0, 0, 1]
      }
    }
  ],
  "meshes": [
    {
      "name": "TableLamp",
      "primitives": [
        {
          "attributes": {
            "POSITION": 0,
            "NORMAL": 1,
            "TEXCOORD_0": 2
          },
          "indices": 3,
          "material": 0
        }
      ]
    }
  ],
  "accessors": [
    {
      "bufferView": 0,
      "componentType": 5126,
      "count": 1632,
      "max": [1.3979525566101074, 1.5679527521133423, 1.3979521989822388],
      "min": [-1.397951602935791, -0.9923547506332397, -1.3979512453079224],
      "type": "VEC3"
    },
    {
      "bufferView": 1,
      "componentType": 5126,
      "count": 1632,
      "type": "VEC3"
    },
    {
      "bufferView": 2,
      "componentType": 5126,
      "count": 1632,
      "type": "VEC2"
    },
    {
      "bufferView": 3,
      "componentType": 5123,
      "count": 2400,
      "type": "SCALAR"
    }
  ],
  "bufferViews": [
    {
      "buffer": 0,
      "byteLength": 19584,
      "byteOffset": 0,
      "target": 34962
    },
    {
      "buffer": 0,
      "byteLength": 19584,
      "byteOffset": 19584,
      "target": 34962
    },
    {
      "buffer": 0,
      "byteLength": 13056,
      "byteOffset": 39168,
      "target": 34962
    },
    {
      "buffer": 0,
      "byteLength": 4800,
      "byteOffset": 52224,
      "target": 34963
    }
  ],
  "buffers": [
    {
      "byteLength": 57024,
      "uri": "TableLamp.bin"
    }
  ]
}
