{
  "asset": {
    "generator": "Khronos glTF Blender I/O v4.1.62",
    "version": "2.0"
  },
  "scene": 0,
  "scenes": [
    {
      "name": "Scene",
      "nodes": [0]
    }
  ],
  "nodes": [
    {
      "mesh": 0,
      "name": "WestBaseboard"
    }
  ],
  "materials": [
    {
      "doubleSided": true,
      "name": "clay_west_wall",
      "pbrMetallicRoughness": {
        "baseColorFactor": [
          0.800000011920929, 0.800000011920929, 0.800000011920929, 1
        ],
        "metallicFactor": 0
      }
    }
  ],
  "meshes": [
    {
      "name": "WestBaseboard",
      "primitives": [
        {
          "attributes": {
            "POSITION": 0,
            "NORMAL": 1,
            "TEXCOORD_0": 2
          },
          "indices": 3,
          "material": 0
        }
      ]
    }
  ],
  "accessors": [
    {
      "bufferView": 0,
      "componentType": 5126,
      "count": 440,
      "max": [-28.349994659423828, 1.600000023841858, 15.999999046325684],
      "min": [-28.599998474121094, 0, -16],
      "type": "VEC3"
    },
    {
      "bufferView": 1,
      "componentType": 5126,
      "count": 440,
      "type": "VEC3"
    },
    {
      "bufferView": 2,
      "componentType": 5126,
      "count": 440,
      "type": "VEC2"
    },
    {
      "bufferView": 3,
      "componentType": 5123,
      "count": 660,
      "type": "SCALAR"
    }
  ],
  "bufferViews": [
    {
      "buffer": 0,
      "byteLength": 5280,
      "byteOffset": 0,
      "target": 34962
    },
    {
      "buffer": 0,
      "byteLength": 5280,
      "byteOffset": 5280,
      "target": 34962
    },
    {
      "buffer": 0,
      "byteLength": 3520,
      "byteOffset": 10560,
      "target": 34962
    },
    {
      "buffer": 0,
      "byteLength": 1320,
      "byteOffset": 14080,
      "target": 34963
    }
  ],
  "buffers": [
    {
      "byteLength": 15400,
      "uri": "WestBaseboard.bin"
    }
  ]
}
