{
  "asset": {
    "generator": "Khronos glTF Blender I/O v4.2.70",
    "version": "2.0"
  },
  "scene": 0,
  "scenes": [
    {
      "name": "Scene",
      "nodes": [0]
    }
  ],
  "nodes": [
    {
      "mesh": 0,
      "name": "ColorPadFigma",
      "translation": [-32, 0, 0]
    }
  ],
  "meshes": [
    {
      "name": "ColorPadFigma",
      "primitives": [
        {
          "attributes": {
            "POSITION": 0,
            "NORMAL": 1,
            "TEXCOORD_0": 2
          },
          "indices": 3
        }
      ]
    }
  ],
  "accessors": [
    {
      "bufferView": 0,
      "componentType": 5126,
      "count": 1474,
      "max": [0.7937999963760376, 1.0290000438690186, 0.7937999963760376],
      "min": [-0.7937999963760376, 0.9800000190734863, -0.7937999963760376],
      "type": "VEC3"
    },
    {
      "bufferView": 1,
      "componentType": 5126,
      "count": 1474,
      "type": "VEC3"
    },
    {
      "bufferView": 2,
      "componentType": 5126,
      "count": 1474,
      "type": "VEC2"
    },
    {
      "bufferView": 3,
      "componentType": 5123,
      "count": 2964,
      "type": "SCALAR"
    }
  ],
  "bufferViews": [
    {
      "buffer": 0,
      "byteLength": 17688,
      "byteOffset": 0,
      "target": 34962
    },
    {
      "buffer": 0,
      "byteLength": 17688,
      "byteOffset": 17688,
      "target": 34962
    },
    {
      "buffer": 0,
      "byteLength": 11792,
      "byteOffset": 35376,
      "target": 34962
    },
    {
      "buffer": 0,
      "byteLength": 5928,
      "byteOffset": 47168,
      "target": 34963
    }
  ],
  "buffers": [
    {
      "byteLength": 53096,
      "uri": "ColorPadFigma.bin"
    }
  ]
}
