{
	"asset":{
		"generator":"Khronos glTF Blender I/O v4.1.62",
		"version":"2.0"
	},
	"scene":0,
	"scenes":[
		{
			"name":"Scene",
			"nodes":[
				0
			]
		}
	],
	"nodes":[
		{
			"mesh":0,
			"name":"Nextjs"
		}
	],
	"materials":[
		{
			"doubleSided":true,
			"name":"logo_nextjs_simple_#000000",
			"pbrMetallicRoughness":{
				"baseColorFactor":[
					0,
					0,
					0,
					1
				],
				"metallicFactor":0
			}
		},
		{
			"doubleSided":true,
			"name":"logo_nextjs_simple_#ffffff",
			"pbrMetallicRoughness":{
				"metallicFactor":0
			}
		},
		{
			"doubleSided":true,
			"name":"ring",
			"pbrMetallicRoughness":{
				"metallicFactor":0,
				"roughnessFactor":0.5
			}
		}
	],
	"meshes":[
		{
			"name":"Nextjs",
			"primitives":[
				{
					"attributes":{
						"POSITION":0,
						"NORMAL":1,
						"TEXCOORD_0":2
					},
					"indices":3,
					"material":0
				},
				{
					"attributes":{
						"POSITION":4,
						"NORMAL":5,
						"TEXCOORD_0":6
					},
					"indices":7,
					"material":1
				},
				{
					"attributes":{
						"POSITION":8,
						"NORMAL":9,
						"TEXCOORD_0":10
					},
					"indices":11,
					"material":2
				}
			]
		}
	],
	"accessors":[
		{
			"bufferView":0,
			"componentType":5126,
			"count":308,
			"max":[
				7.900000095367432,
				7.899999618530273,
				1.1900019645690918
			],
			"min":[
				-7.899999141693115,
				-7.900000095367432,
				-1.1800020933151245
			],
			"type":"VEC3"
		},
		{
			"bufferView":1,
			"componentType":5126,
			"count":308,
			"type":"VEC3"
		},
		{
			"bufferView":2,
			"componentType":5126,
			"count":308,
			"type":"VEC2"
		},
		{
			"bufferView":3,
			"componentType":5123,
			"count":924,
			"type":"SCALAR"
		},
		{
			"bufferView":4,
			"componentType":5126,
			"count":340,
			"max":[
				4.290805816650391,
				3.1493818759918213,
				1.980000376701355
			],
			"min":[
				-2.970460891723633,
				-6.956027984619141,
				1.1899998188018799
			],
			"type":"VEC3"
		},
		{
			"bufferView":5,
			"componentType":5126,
			"count":340,
			"type":"VEC3"
		},
		{
			"bufferView":6,
			"componentType":5126,
			"count":340,
			"type":"VEC2"
		},
		{
			"bufferView":7,
			"componentType":5123,
			"count":978,
			"type":"SCALAR"
		},
		{
			"bufferView":8,
			"componentType":5126,
			"count":679,
			"max":[
				1.2500009536743164,
				9.75,
				0.25000035762786865
			],
			"min":[
				-1.2499988079071045,
				7.791400909423828,
				-0.25000035762786865
			],
			"type":"VEC3"
		},
		{
			"bufferView":9,
			"componentType":5126,
			"count":679,
			"type":"VEC3"
		},
		{
			"bufferView":10,
			"componentType":5126,
			"count":679,
			"type":"VEC2"
		},
		{
			"bufferView":11,
			"componentType":5123,
			"count":3756,
			"type":"SCALAR"
		}
	],
	"bufferViews":[
		{
			"buffer":0,
			"byteLength":3696,
			"byteOffset":0,
			"target":34962
		},
		{
			"buffer":0,
			"byteLength":3696,
			"byteOffset":3696,
			"target":34962
		},
		{
			"buffer":0,
			"byteLength":2464,
			"byteOffset":7392,
			"target":34962
		},
		{
			"buffer":0,
			"byteLength":1848,
			"byteOffset":9856,
			"target":34963
		},
		{
			"buffer":0,
			"byteLength":4080,
			"byteOffset":11704,
			"target":34962
		},
		{
			"buffer":0,
			"byteLength":4080,
			"byteOffset":15784,
			"target":34962
		},
		{
			"buffer":0,
			"byteLength":2720,
			"byteOffset":19864,
			"target":34962
		},
		{
			"buffer":0,
			"byteLength":1956,
			"byteOffset":22584,
			"target":34963
		},
		{
			"buffer":0,
			"byteLength":8148,
			"byteOffset":24540,
			"target":34962
		},
		{
			"buffer":0,
			"byteLength":8148,
			"byteOffset":32688,
			"target":34962
		},
		{
			"buffer":0,
			"byteLength":5432,
			"byteOffset":40836,
			"target":34962
		},
		{
			"buffer":0,
			"byteLength":7512,
			"byteOffset":46268,
			"target":34963
		}
	],
	"buffers":[
		{
			"byteLength":53780,
			"uri":"Nextjs.bin"
		}
	]
}
