{
  "asset": {
    "generator": "Khronos glTF Blender I/O v4.1.62",
    "version": "2.0"
  },
  "scene": 0,
  "scenes": [
    {
      "name": "Scene",
      "nodes": [0]
    }
  ],
  "nodes": [
    {
      "mesh": 0,
      "name": "Ring"
    }
  ],
  "meshes": [
    {
      "name": "Ring",
      "primitives": [
        {
          "attributes": {
            "POSITION": 0,
            "NORMAL": 1,
            "TEXCOORD_0": 2
          },
          "indices": 3
        }
      ]
    }
  ],
  "accessors": [
    {
      "bufferView": 0,
      "componentType": 5126,
      "count": 3930,
      "max": [7.449312686920166, 7.520000457763672, 0.5440346598625183],
      "min": [-7.270686149597168, -7.199999809265137, -0.5440341234207153],
      "type": "VEC3"
    },
    {
      "bufferView": 1,
      "componentType": 5126,
      "count": 3930,
      "type": "VEC3"
    },
    {
      "bufferView": 2,
      "componentType": 5126,
      "count": 3930,
      "type": "VEC2"
    },
    {
      "bufferView": 3,
      "componentType": 5123,
      "count": 23208,
      "type": "SCALAR"
    }
  ],
  "bufferViews": [
    {
      "buffer": 0,
      "byteLength": 47160,
      "byteOffset": 0,
      "target": 34962
    },
    {
      "buffer": 0,
      "byteLength": 47160,
      "byteOffset": 47160,
      "target": 34962
    },
    {
      "buffer": 0,
      "byteLength": 31440,
      "byteOffset": 94320,
      "target": 34962
    },
    {
      "buffer": 0,
      "byteLength": 46416,
      "byteOffset": 125760,
      "target": 34963
    }
  ],
  "buffers": [
    {
      "byteLength": 172176,
      "uri": "Ring.bin"
    }
  ]
}
