{
	"asset":{
		"generator":"Khronos glTF Blender I/O v4.1.62",
		"version":"2.0"
	},
	"scene":0,
	"scenes":[
		{
			"name":"Scene",
			"nodes":[
				0
			]
		}
	],
	"nodes":[
		{
			"mesh":0,
			"name":"StringElement",
			"rotation":[
				0,
				0.7071068286895752,
				0,
				0.7071068286895752
			]
		}
	],
	"meshes":[
		{
			"name":"StringElement",
			"primitives":[
				{
					"attributes":{
						"POSITION":0,
						"NORMAL":1,
						"TEXCOORD_0":2
					},
					"indices":3
				}
			]
		}
	],
	"accessors":[
		{
			"bufferView":0,
			"componentType":5126,
			"count":1275,
			"max":[
				1.2499998807907104,
				1.75,
				0.25
			],
			"min":[
				-1.2499998807907104,
				-1.75,
				-0.25000011920928955
			],
			"type":"VEC3"
		},
		{
			"bufferView":1,
			"componentType":5126,
			"count":1275,
			"type":"VEC3"
		},
		{
			"bufferView":2,
			"componentType":5126,
			"count":1275,
			"type":"VEC2"
		},
		{
			"bufferView":3,
			"componentType":5123,
			"count":7200,
			"type":"SCALAR"
		}
	],
	"bufferViews":[
		{
			"buffer":0,
			"byteLength":15300,
			"byteOffset":0,
			"target":34962
		},
		{
			"buffer":0,
			"byteLength":15300,
			"byteOffset":15300,
			"target":34962
		},
		{
			"buffer":0,
			"byteLength":10200,
			"byteOffset":30600,
			"target":34962
		},
		{
			"buffer":0,
			"byteLength":14400,
			"byteOffset":40800,
			"target":34963
		}
	],
	"buffers":[
		{
			"byteLength":55200,
			"uri":"StringElement.bin"
		}
	]
}
