{
  "asset": {
    "generator": "Khronos glTF Blender I/O v4.2.57",
    "version": "2.0"
  },
  "scene": 0,
  "scenes": [
    {
      "name": "Scene",
      "nodes": [0]
    }
  ],
  "nodes": [
    {
      "mesh": 0,
      "name": "Building002",
      "translation": [20.700000762939453, 0, 0]
    }
  ],
  "materials": [
    {
      "doubleSided": true,
      "name": "building_002",
      "pbrMetallicRoughness": {
        "baseColorTexture": {
          "index": 0
        },
        "metallicFactor": 0
      }
    },
    {
      "doubleSided": true,
      "name": "building_002_glass",
      "pbrMetallicRoughness": {
        "baseColorTexture": {
          "index": 1
        },
        "metallicFactor": 0,
        "roughnessFactor": 0
      }
    },
    {
      "doubleSided": true,
      "name": "building_002_right_wall",
      "pbrMetallicRoughness": {
        "baseColorFactor": [0.8003931045532227, 0.6881924867630005, 0.5095568299293518, 1],
        "metallicFactor": 0
      }
    }
  ],
  "meshes": [
    {
      "name": "Building002",
      "primitives": [
        {
          "attributes": {
            "POSITION": 0,
            "NORMAL": 1,
            "TEXCOORD_0": 2
          },
          "indices": 3,
          "material": 0
        },
        {
          "attributes": {
            "POSITION": 4,
            "NORMAL": 5,
            "TEXCOORD_0": 6
          },
          "indices": 7,
          "material": 1
        },
        {
          "attributes": {
            "POSITION": 8,
            "NORMAL": 9,
            "TEXCOORD_0": 10
          },
          "indices": 11,
          "material": 2
        }
      ]
    }
  ],
  "textures": [
    {
      "sampler": 0,
      "source": 0
    },
    {
      "sampler": 0,
      "source": 0
    }
  ],
  "images": [
    {
      "mimeType": "image/jpeg",
      "name": "building_002",
      "uri": "building_002.jpg"
    }
  ],
  "accessors": [
    {
      "bufferView": 0,
      "componentType": 5126,
      "count": 1101,
      "max": [10.352999687194824, 25.368572235107422, 0.5954381823539734],
      "min": [-10.352999687194824, 0, -7.32949161529541],
      "type": "VEC3"
    },
    {
      "bufferView": 1,
      "componentType": 5126,
      "count": 1101,
      "type": "VEC3"
    },
    {
      "bufferView": 2,
      "componentType": 5126,
      "count": 1101,
      "type": "VEC2"
    },
    {
      "bufferView": 3,
      "componentType": 5123,
      "count": 2868,
      "type": "SCALAR"
    },
    {
      "bufferView": 4,
      "componentType": 5126,
      "count": 196,
      "max": [8.016658782958984, 24.407690048217773, 0],
      "min": [-9.143184661865234, 0.15849590301513672, -0.3364863395690918],
      "type": "VEC3"
    },
    {
      "bufferView": 5,
      "componentType": 5126,
      "count": 196,
      "type": "VEC3"
    },
    {
      "bufferView": 6,
      "componentType": 5126,
      "count": 196,
      "type": "VEC2"
    },
    {
      "bufferView": 7,
      "componentType": 5123,
      "count": 348,
      "type": "SCALAR"
    },
    {
      "bufferView": 8,
      "componentType": 5126,
      "count": 18,
      "max": [-10.352999687194824, 25.368572235107422, 0],
      "min": [-10.352999687194824, 0, -7.3294901847839355],
      "type": "VEC3"
    },
    {
      "bufferView": 9,
      "componentType": 5126,
      "count": 18,
      "type": "VEC3"
    },
    {
      "bufferView": 10,
      "componentType": 5126,
      "count": 18,
      "type": "VEC2"
    },
    {
      "bufferView": 11,
      "componentType": 5123,
      "count": 48,
      "type": "SCALAR"
    }
  ],
  "bufferViews": [
    {
      "buffer": 0,
      "byteLength": 13212,
      "byteOffset": 0,
      "target": 34962
    },
    {
      "buffer": 0,
      "byteLength": 13212,
      "byteOffset": 13212,
      "target": 34962
    },
    {
      "buffer": 0,
      "byteLength": 8808,
      "byteOffset": 26424,
      "target": 34962
    },
    {
      "buffer": 0,
      "byteLength": 5736,
      "byteOffset": 35232,
      "target": 34963
    },
    {
      "buffer": 0,
      "byteLength": 2352,
      "byteOffset": 40968,
      "target": 34962
    },
    {
      "buffer": 0,
      "byteLength": 2352,
      "byteOffset": 43320,
      "target": 34962
    },
    {
      "buffer": 0,
      "byteLength": 1568,
      "byteOffset": 45672,
      "target": 34962
    },
    {
      "buffer": 0,
      "byteLength": 696,
      "byteOffset": 47240,
      "target": 34963
    },
    {
      "buffer": 0,
      "byteLength": 216,
      "byteOffset": 47936,
      "target": 34962
    },
    {
      "buffer": 0,
      "byteLength": 216,
      "byteOffset": 48152,
      "target": 34962
    },
    {
      "buffer": 0,
      "byteLength": 144,
      "byteOffset": 48368,
      "target": 34962
    },
    {
      "buffer": 0,
      "byteLength": 96,
      "byteOffset": 48512,
      "target": 34963
    }
  ],
  "samplers": [
    {
      "magFilter": 9729,
      "minFilter": 9987
    }
  ],
  "buffers": [
    {
      "byteLength": 48608,
      "uri": "Building002.bin"
    }
  ]
}
