{
  "asset": {
    "generator": "Khronos glTF Blender I/O v4.1.62",
    "version": "2.0"
  },
  "scene": 0,
  "scenes": [
    {
      "name": "Scene",
      "nodes": [0]
    }
  ],
  "nodes": [
    {
      "mesh": 0,
      "name": "Couronnes",
      "translation": [0, 25.599998474121094, -16]
    }
  ],
  "materials": [
    {
      "doubleSided": true,
      "name": "couronnes_border",
      "pbrMetallicRoughness": {
        "baseColorFactor": [0.800000011920929, 0.800000011920929, 0.800000011920929, 1],
        "metallicFactor": 0,
        "roughnessFactor": 0.5
      }
    },
    {
      "doubleSided": true,
      "name": "couronnes",
      "pbrMetallicRoughness": {
        "baseColorFactor": [0.800000011920929, 0.800000011920929, 0.800000011920929, 1],
        "metallicFactor": 0,
        "roughnessFactor": 0.5
      }
    }
  ],
  "meshes": [
    {
      "name": "Couronnes",
      "primitives": [
        {
          "attributes": {
            "POSITION": 0,
            "NORMAL": 1,
            "TEXCOORD_0": 2
          },
          "indices": 3,
          "material": 0
        },
        {
          "attributes": {
            "POSITION": 4,
            "NORMAL": 5,
            "TEXCOORD_0": 6
          },
          "indices": 7,
          "material": 1
        }
      ]
    }
  ],
  "accessors": [
    {
      "bufferView": 0,
      "componentType": 5126,
      "count": 280,
      "max": [8.427627563476562, 1.5384706258773804, 0.1527414321899414],
      "min": [-8.434263229370117, -1.5395315885543823, -0.007190486881881952],
      "type": "VEC3"
    },
    {
      "bufferView": 1,
      "componentType": 5126,
      "count": 280,
      "type": "VEC3"
    },
    {
      "bufferView": 2,
      "componentType": 5126,
      "count": 280,
      "type": "VEC2"
    },
    {
      "bufferView": 3,
      "componentType": 5123,
      "count": 420,
      "type": "SCALAR"
    },
    {
      "bufferView": 4,
      "componentType": 5126,
      "count": 491,
      "max": [8.427627563476562, 1.5384706258773804, 0.16391891241073608],
      "min": [-8.428069114685059, -1.5395315885543823, -0.0067975870333611965],
      "type": "VEC3"
    },
    {
      "bufferView": 5,
      "componentType": 5126,
      "count": 491,
      "type": "VEC3"
    },
    {
      "bufferView": 6,
      "componentType": 5126,
      "count": 491,
      "type": "VEC2"
    },
    {
      "bufferView": 7,
      "componentType": 5123,
      "count": 891,
      "type": "SCALAR"
    }
  ],
  "bufferViews": [
    {
      "buffer": 0,
      "byteLength": 3360,
      "byteOffset": 0,
      "target": 34962
    },
    {
      "buffer": 0,
      "byteLength": 3360,
      "byteOffset": 3360,
      "target": 34962
    },
    {
      "buffer": 0,
      "byteLength": 2240,
      "byteOffset": 6720,
      "target": 34962
    },
    {
      "buffer": 0,
      "byteLength": 840,
      "byteOffset": 8960,
      "target": 34963
    },
    {
      "buffer": 0,
      "byteLength": 5892,
      "byteOffset": 9800,
      "target": 34962
    },
    {
      "buffer": 0,
      "byteLength": 5892,
      "byteOffset": 15692,
      "target": 34962
    },
    {
      "buffer": 0,
      "byteLength": 3928,
      "byteOffset": 21584,
      "target": 34962
    },
    {
      "buffer": 0,
      "byteLength": 1782,
      "byteOffset": 25512,
      "target": 34963
    }
  ],
  "buffers": [
    {
      "byteLength": 27296,
      "uri": "Couronnes.bin"
    }
  ]
}
