{
  "asset": {
    "generator": "Khronos glTF Blender I/O v4.1.62",
    "version": "2.0"
  },
  "scene": 0,
  "scenes": [
    {
      "name": "Scene",
      "nodes": [0]
    }
  ],
  "nodes": [
    {
      "mesh": 0,
      "name": "HeartHeliumBalloon"
    }
  ],
  "meshes": [
    {
      "name": "HeartHeliumBalloon",
      "primitives": [
        {
          "attributes": {
            "POSITION": 0,
            "NORMAL": 1
          },
          "indices": 2
        }
      ]
    }
  ],
  "accessors": [
    {
      "bufferView": 0,
      "componentType": 5126,
      "count": 144405,
      "max": [1.4350244998931885, 1.1398340463638306, 0.22294408082962036],
      "min": [-1.4357558488845825, -1.6231346130371094, -1.223816990852356],
      "type": "VEC3"
    },
    {
      "bufferView": 1,
      "componentType": 5126,
      "count": 144405,
      "type": "VEC3"
    },
    {
      "bufferView": 2,
      "componentType": 5125,
      "count": 858294,
      "type": "SCALAR"
    }
  ],
  "bufferViews": [
    {
      "buffer": 0,
      "byteLength": 1732860,
      "byteOffset": 0,
      "target": 34962
    },
    {
      "buffer": 0,
      "byteLength": 1732860,
      "byteOffset": 1732860,
      "target": 34962
    },
    {
      "buffer": 0,
      "byteLength": 3433176,
      "byteOffset": 3465720,
      "target": 34963
    }
  ],
  "buffers": [
    {
      "byteLength": 6898896,
      "uri": "HeartHeliumBalloon.bin"
    }
  ]
}
