{
  "asset": {
    "generator": "Khronos glTF Blender I/O v4.1.62",
    "version": "2.0"
  },
  "scene": 0,
  "scenes": [
    {
      "name": "Scene",
      "nodes": [0]
    }
  ],
  "nodes": [
    {
      "mesh": 0,
      "name": "ButterflyGlass"
    }
  ],
  "meshes": [
    {
      "name": "ButterflyGlass",
      "primitives": [
        {
          "attributes": {
            "POSITION": 0,
            "NORMAL": 1,
            "TEXCOORD_0": 2,
            "TEXCOORD_1": 3
          },
          "indices": 4
        }
      ]
    }
  ],
  "accessors": [
    {
      "bufferView": 0,
      "componentType": 5126,
      "count": 6758,
      "max": [-14.470776557922363, 9.805370330810547, -14.306171417236328],
      "min": [-16.681520462036133, 7.594626426696777, -14.463415145874023],
      "type": "VEC3"
    },
    {
      "bufferView": 1,
      "componentType": 5126,
      "count": 6758,
      "type": "VEC3"
    },
    {
      "bufferView": 2,
      "componentType": 5126,
      "count": 6758,
      "type": "VEC2"
    },
    {
      "bufferView": 3,
      "componentType": 5126,
      "count": 6758,
      "type": "VEC2"
    },
    {
      "bufferView": 4,
      "componentType": 5123,
      "count": 38400,
      "type": "SCALAR"
    }
  ],
  "bufferViews": [
    {
      "buffer": 0,
      "byteLength": 81096,
      "byteOffset": 0,
      "target": 34962
    },
    {
      "buffer": 0,
      "byteLength": 81096,
      "byteOffset": 81096,
      "target": 34962
    },
    {
      "buffer": 0,
      "byteLength": 54064,
      "byteOffset": 162192,
      "target": 34962
    },
    {
      "buffer": 0,
      "byteLength": 54064,
      "byteOffset": 216256,
      "target": 34962
    },
    {
      "buffer": 0,
      "byteLength": 76800,
      "byteOffset": 270320,
      "target": 34963
    }
  ],
  "buffers": [
    {
      "byteLength": 347120,
      "uri": "ButterflyGlass.bin"
    }
  ]
}
